<?xml version="1.0" encoding="utf-8"?>
<svg version="1.1" id="Layer_1" x="0px" y="0px" viewBox="0 0 80 80" style="enable-background:new 0 0 80 80;" xmlns="http://www.w3.org/2000/svg" xmlns:bx="https://boxy-svg.com">
  <style type="text/css">
	.st0{fill:none;stroke:#000000;stroke-width:3;stroke-miterlimit:10;}
	.st1{font-family:'MyriadPro-Regular';}
	.st2{font-size:32.8529px;}
</style>
  <rect x="2.924" y="6.875" width="70.813" height="71.976" transform="matrix(1, 0, -0.000459, 1, 1.706139, -3.4582)" rx="3.912" ry="3.912" style="fill: rgba(0, 68, 102, 0.28);"/>
  <path class="st0" d="M 68.077 77.396 L 11.73 77.396 C 6.686 77.396 2.556 72.41 2.556 66.317 L 2.556 13.415 C 2.556 7.322 6.686 2.336 11.73 2.336 L 68.077 2.336 C 73.123 2.336 77.252 7.322 77.252 13.415 L 77.252 66.317 C 77.252 72.41 73.123 77.396 68.077 77.396 Z" style="stroke-width: 5; stroke: rgb(0, 68, 102);"/>
  <ellipse style="fill: rgb(216, 216, 216); stroke: rgb(0, 0, 0); stroke-width: 2px;" cx="30.828" cy="18.606" rx="8.97" ry="5.116"/>
  <ellipse style="fill: rgb(216, 216, 216); stroke: rgb(0, 0, 0); stroke-width: 2px;" cx="55.668" cy="59.495" rx="8.97" ry="5.116"/>
  <path style="stroke: rgb(0, 0, 0); fill: none; stroke-dasharray: 0; paint-order: stroke;" d="M 24.432 22.591 C 20.536 26.728 23.991 26.526 27.666 29.201"/>
  <path d="M 51.405 44.946 L 53.741 49.109 L 49.069 49.109 L 51.405 44.946 Z" transform="matrix(-0.827259, 0.56182, -0.56182, -0.827259, 97.144455, 40.751457)" bx:shape="triangle 49.069 44.946 4.672 4.163 0.5 0 1@1382c0c3"/>
  <ellipse style="stroke-width: 2px; stroke: rgb(134, 1, 134); fill: rgb(255, 131, 255);" cx="42.914" cy="39.084" rx="16.935" ry="9.659"/>
  <path d="M 48.975 36.025 C 48.91 35.831 48.717 35.668 48.522 35.701 L 46.808 35.864 C 46.549 35.539 46.226 35.215 45.903 34.957 L 46.03 33.242 C 46.064 33.049 45.903 32.854 45.707 32.79 L 43.508 32.175 C 43.314 32.11 43.087 32.207 43.023 32.4 L 42.246 33.955 C 41.825 34.019 41.373 34.116 40.984 34.278 L 39.528 33.306 C 39.367 33.178 39.141 33.211 38.978 33.372 L 37.394 34.989 C 37.232 35.151 37.232 35.376 37.327 35.539 L 38.299 36.995 C 38.138 37.416 38.007 37.837 37.976 38.29 L 36.454 39.034 C 36.26 39.13 36.164 39.326 36.229 39.519 L 36.811 41.653 C 36.875 41.849 37.037 41.978 37.263 41.978 L 38.978 41.849 C 39.107 42.043 39.236 42.204 39.398 42.366 C 39.559 42.528 39.722 42.657 39.885 42.787 L 39.787 44.468 C 39.787 44.663 39.916 44.857 40.111 44.921 L 42.246 45.504 C 42.279 45.504 42.31 45.504 42.374 45.504 C 42.537 45.504 42.698 45.407 42.764 45.278 L 43.573 43.756 C 44.025 43.693 44.445 43.595 44.834 43.433 L 46.29 44.404 C 46.451 44.5 46.678 44.468 46.84 44.339 L 48.425 42.754 C 48.587 42.593 48.587 42.366 48.489 42.204 L 47.52 40.748 C 47.681 40.328 47.778 39.907 47.843 39.488 L 49.428 38.677 C 49.623 38.581 49.719 38.386 49.654 38.161 L 48.975 36.025 Z M 40.724 38.84 C 40.724 37.642 41.696 36.672 42.893 36.672 C 44.09 36.672 45.061 37.642 45.061 38.84 C 45.061 40.036 44.09 41.007 42.893 41.007 L 42.893 41.007 C 41.696 41.007 40.724 40.036 40.724 38.84 Z"/>
  <line style="stroke-dasharray: 2px; stroke: rgb(0, 0, 0);" x1="4.754" y1="9.916" x2="75.041" y2="9.916"/>
  <line style="stroke-dasharray: 2px; stroke: rgb(0, 0, 0);" x1="4.754" y1="68.635" x2="75.866" y2="68.635"/>
  <path style="stroke: rgb(0, 0, 0); fill: none; stroke-dasharray: 0; paint-order: stroke;" d="M 41.475 49.242 C 38.697 58.634 39.248 56.168 42.65 58.263" transform="matrix(0.99962, -0.027552, 0.027552, 0.99962, -1.461264, 1.094)"/>
  <path d="M 51.405 44.946 L 53.741 49.109 L 49.069 49.109 L 51.405 44.946 Z" transform="matrix(-0.21489, 0.976638, -0.976638, -0.21489, 101.401566, 18.342373)" bx:shape="triangle 49.069 44.946 4.672 4.163 0.5 0 1@1382c0c3" bx:origin="-1.351 -0.959"/>
  <line style="stroke-dasharray: 2px; stroke: rgb(0, 0, 0);" x1="4.857" y1="51.456" x2="75.969" y2="51.456"/>
  <line style="stroke-dasharray: 2px; stroke: rgb(0, 0, 0);" x1="3.978" y1="26.598" x2="75.09" y2="26.598"/>
</svg>