<?xml version="1.0" encoding="utf-8"?>
<!-- Generator: Adobe Illustrator 21.0.2, SVG Export Plug-In . SVG Version: 6.00 Build 0)  -->
<svg version="1.1" id="Layer_1" xmlns="http://www.w3.org/2000/svg" xmlns:xlink="http://www.w3.org/1999/xlink" x="0px" y="0px"
	 viewBox="0 0 108 135" style="enable-background:new 0 0 108 135;" xml:space="preserve">
<style type="text/css">
	.st0{fill:#FFFFFF;}
</style>
<title>Artboard 9</title>
<g>
	<g>
		<path d="M96.5,113H15.4c-3.8,0-6.8-3.1-6.8-6.8V40.2h90.9v68.2c0,1.3,1,2.3,2.3,2.3s2.3-1,2.3-2.3V28.9c0-6.3-5.1-11.4-11.4-11.4
			H15.4C9.1,17.5,4,22.6,4,28.9v77.3c0,6.3,5.1,11.4,11.4,11.4h81.1c1.3,0,2.3-1,2.3-2.3S97.7,113,96.5,113z M33.5,26.6
			c1.3,0,2.3,1,2.3,2.3s-1,2.3-2.3,2.3s-2.3-1-2.3-2.3S32.3,26.6,33.5,26.6z M24.5,26.6c1.3,0,2.3,1,2.3,2.3s-1,2.3-2.3,2.3
			s-2.3-1-2.3-2.3S23.2,26.6,24.5,26.6z M15.4,26.6c1.3,0,2.3,1,2.3,2.3s-1,2.3-2.3,2.3s-2.3-1-2.3-2.3S14.1,26.6,15.4,26.6z"/>
	</g>
</g>
<g>
	<path d="M35.4,79.6l3.4,0.6c0.4,1.5,1,2.9,1.8,4.2l-2,2.8c-0.7,1-0.6,2.5,0.3,3.4l2,2c0.9,0.9,2.3,1,3.4,0.3l2.8-1.9
		c1.3,0.8,2.8,1.4,4.2,1.8l0.6,3.4c0.2,1.2,1.3,2.2,2.6,2.2h2.9c1.3,0,2.4-0.9,2.6-2.2l0.6-3.4c1.5-0.4,2.9-1,4.2-1.7l2.8,2
		c1,0.7,2.5,0.6,3.4-0.3l2-2c0.9-0.9,1-2.3,0.3-3.4l-2-2.8c0.8-1.3,1.4-2.8,1.8-4.3l3.4-0.6c1.2-0.2,2.2-1.3,2.2-2.6v-2.8
		c0-1.3-0.9-2.4-2.2-2.6L73.2,71c-0.4-1.5-1-2.9-1.8-4.2l2-2.8c0.7-1,0.6-2.5-0.3-3.4l-2.1-2c-0.9-0.9-2.3-1-3.4-0.3l-2.9,1.9
		c-1.3-0.8-2.8-1.4-4.2-1.8L60,55c-0.2-1.2-1.3-2.2-2.6-2.2h-2.9c-1.3,0-2.4,0.9-2.6,2.2l-0.6,3.4c-1.5,0.4-2.9,1-4.2,1.8l-2.8-2
		c-1-0.7-2.5-0.6-3.4,0.3l-2,2c-0.9,0.9-1,2.3-0.3,3.4l2,2.8c-0.8,1.3-1.4,2.8-1.8,4.2l-3.4,0.6c-1.3,0.2-2.2,1.3-2.2,2.6v2.9
		C33.3,78.3,34.2,79.4,35.4,79.6z"/>
	<circle class="st0" cx="56" cy="75.6" r="7.6"/>
</g>
</svg>
