<?xml version="1.0" encoding="utf-8"?>
<!-- Generator: Adobe Illustrator 21.0.2, SVG Export Plug-In . SVG Version: 6.00 Build 0)  -->
<svg version="1.1" id="Layer_1" xmlns="http://www.w3.org/2000/svg" xmlns:xlink="http://www.w3.org/1999/xlink" x="0px" y="0px"
	 viewBox="0 0 100 125" style="enable-background:new 0 0 100 125;" xml:space="preserve">
<path d="M59.1,94h-0.2c0.2-0.3,0.3-0.6,0.3-1c0-0.8-0.6-1.5-1.3-1.7v0c0-0.1,0-0.2-0.1-0.3C57.7,91,57.7,91,57.6,91c0,0,0,0,0,0
	c-0.2,0-0.4-0.2-0.4-0.3l-0.1-23.5l-1.1-57c0-0.1,0.1-0.1,0.1-0.1c0.2,0,0.4-0.2,0.4-0.4V9.5c0.1-0.1,0.2-0.1,0.2-0.2
	c0.1-0.2,0.2-0.4,0.1-0.6c-0.1-0.4-0.4-0.6-0.8-0.6H56v-1c0,0,0-0.1,0.1-0.1c0.2,0,0.4-0.2,0.4-0.4V6.6c0.7-0.2,1.3-0.8,1.4-1.5
	c0.1,0,0.2-0.2,0.2-0.3V3.4c0,0,0-0.1,0.1-0.1c0.2,0,0.4-0.2,0.4-0.4V2.5c0-0.2-0.2-0.4-0.4-0.4H41.9c-0.2,0-0.4,0.2-0.4,0.4V3
	c0,0.2,0.2,0.4,0.4,0.4c0,0,0.1,0,0.1,0.1v1.3c0,0.2,0.1,0.3,0.2,0.3c0.1,0.7,0.7,1.3,1.4,1.5v0.1c0,0.2,0.2,0.4,0.4,0.4
	c0,0,0.1,0,0.1,0.1v1h-0.1c-0.4,0-0.8,0.4-0.8,0.8c0,0.3,0.1,0.5,0.4,0.7v0.1c0,0.2,0.2,0.4,0.4,0.4c0.1,0,0.1,0.1,0.1,0.1l-1.1,57
	c0,0,0,0,0,0c0,0-0.1,23.5-0.1,23.5c0,0.2-0.2,0.4-0.4,0.4c0,0,0,0,0,0c-0.1,0-0.2,0-0.2,0.1c-0.1,0.1-0.1,0.2-0.1,0.3v0
	c-0.8,0.2-1.3,0.8-1.3,1.7c0,0.4,0.1,0.7,0.3,1h-0.2c-0.2,0-0.4,0.2-0.4,0.4v3.1c0,0.2,0.2,0.4,0.4,0.4h18.2c0.2,0,0.4-0.2,0.4-0.4
	v-3.1C59.5,94.2,59.3,94,59.1,94z M43.8,90.6l0.1-23.5l1.1-57c0-0.4-0.2-0.7-0.5-1V9.1c0,0,0,0,0,0h0.1c0.2,0,0.4-0.2,0.4-0.4V7.1
	c0-0.3-0.2-0.7-0.4-0.9V6c0-0.1,0-0.2-0.1-0.3c-0.1-0.1-0.2-0.1-0.3-0.1c-0.1,0-0.2,0-0.3,0c-0.2-0.1-0.4-0.2-0.5-0.4
	c-0.1-0.2-0.2-0.4-0.1-0.7c0-0.1,0-0.2-0.1-0.3c0-0.1-0.1-0.1-0.2-0.1V3.4c0-0.1,0-0.2,0-0.3h14.2c0,0.1,0,0.2,0,0.3v0.7
	c-0.1,0-0.1,0.1-0.2,0.1c-0.1,0.1-0.1,0.2-0.1,0.3c0,0.1,0,0.2,0,0.3c-0.1,0.5-0.5,0.8-1,0.8c-0.1,0-0.2,0-0.3,0.1
	c-0.1,0.1-0.1,0.2-0.1,0.3v0.2C55.2,6.4,55,6.8,55,7.1v1.6c0,0.2,0.2,0.4,0.4,0.4l0.1,0c0,0,0,0,0,0v0.1c-0.3,0.2-0.5,0.6-0.5,1
	l1.1,56.9l0.1,23.5c0,0.5,0.3,1,0.7,1.2v0.2c0,0.1,0.1,0.2,0.1,0.3s0.2,0.1,0.3,0.1c0.4-0.1,0.9,0.2,0.9,0.7c0,0.4-0.3,0.7-0.7,0.7
	c-0.4,0-0.7,0.3-0.7,0.7c0,0.4,0.3,0.7,0.7,0.7h0.9v1.8H41.5v-1.8h0.9c0.4,0,0.7-0.3,0.7-0.7c0-0.4-0.3-0.7-0.7-0.7
	c-0.1,0-0.1,0-0.2,0c-0.4-0.1-0.6-0.5-0.5-0.9c0.1-0.4,0.5-0.6,0.9-0.5c0.1,0,0.2,0,0.3-0.1c0.1-0.1,0.1-0.2,0.1-0.3v-0.2
	C43.5,91.6,43.8,91.2,43.8,90.6z"/>
</svg>
