<?xml version="1.0" encoding="utf-8"?>
<!-- Generator: Adobe Illustrator 21.0.2, SVG Export Plug-In . SVG Version: 6.00 Build 0)  -->
<svg version="1.1" id="Layer_1" xmlns="http://www.w3.org/2000/svg" xmlns:xlink="http://www.w3.org/1999/xlink" x="0px" y="0px"
	 viewBox="0 0 100 125" style="enable-background:new 0 0 100 125;" xml:space="preserve">
<path d="M31.4,24.9c-2-1.9-5.2-1.8-7.1,0.2L4,46.6c-1.8,1.9-1.8,4.9,0,6.9l20.3,21.5c1,1,2.3,1.6,3.6,1.6c1.2,0,2.5-0.5,3.4-1.4
	c2-1.9,2.1-5.1,0.2-7.1L14.5,50l17-18C33.5,29.9,33.4,26.8,31.4,24.9z M96,46.6L75.7,25.1c-1.9-2-5.1-2.1-7.1-0.2
	c-2,1.9-2.1,5.1-0.2,7.1l17,18.1l-17,18c-1.9,2-1.8,5.2,0.2,7.1c1,0.9,2.2,1.4,3.4,1.4c1.3,0,2.7-0.5,3.6-1.6L96,53.4
	C97.8,51.5,97.8,48.5,96,46.6z M59.9,24.1c-2.6-1-5.5,0.3-6.5,2.9L37.2,69.4c-1,2.6,0.3,5.5,2.9,6.5c0.6,0.2,1.2,0.3,1.8,0.3
	c2,0,3.9-1.2,4.7-3.2l16.3-42.4C63.8,28,62.5,25.1,59.9,24.1z"/>
</svg>
