<svg xmlns="http://www.w3.org/2000/svg" xmlns:xlink="http://www.w3.org/1999/xlink" version="1.1" x="0px" y="0px" viewBox="0 0 100 125" style="enable-background:new 0 0 100 100;" xml:space="preserve"><g><path d="M64.125,74.861C64.125,74.91,64.125,74.814,64.125,74.861L64.125,74.861L64.125,74.861z M24.24,12.636h5.238V0H24.24   C6.273,0,5.469,11.806,5.469,17.124v21.274l0.002,0.135c0,0.023-0.207,5.147-5.471,5.147v12.637c5.264,0,5.471,5.124,5.471,5.149   l-0.002,0.135v21.274c0,5.318,0.803,17.124,18.77,17.124h5.238V87.364h-5.238c-6.577,0-6.106-4.396-6.134-4.688l-0.002,0.127   l0.002-0.131c0-0.006,0-0.01-0.002-0.014V61.637c0.006-0.678-0.078-6.741-3.756-11.638c3.678-4.895,3.764-10.958,3.758-11.636   V17.341c0-0.004,0-0.01,0-0.014v-0.131l0.002,0.127C18.132,17.032,17.661,12.636,24.24,12.636z M94.531,38.533l0.002-0.135V17.124   C94.533,11.806,93.729,0,75.762,0h-5.236v12.636h5.236c6.579,0,6.108,4.396,6.134,4.688l0.002-0.127v0.131c0,0.004,0,0.01,0,0.014   v21.022c-0.006,0.678,0.08,6.741,3.758,11.636c-3.678,4.896-3.764,10.96-3.758,11.638v21.022c0,0.004-0.002,0.008-0.002,0.014   l0.002,0.131l-0.002-0.127c-0.025,0.291,0.443,4.688-6.134,4.688h-5.238V100h5.238c17.967,0,18.77-11.806,18.77-17.124   l0.002-21.274l-0.002-0.135c0-0.025,0.205-5.149,5.469-5.149V43.681C94.736,43.681,94.531,38.557,94.531,38.533z M37.748,12.792   v24.507h24.506V12.792H37.748z M37.748,68.684h12.229c0.633,5.676-0.799,12.927-12.229,12.927c0,4.025,0,5.195,0,5.203   c23.775,0,24.506-11.798,24.506-18.13V44.177H37.748V68.684z"/></g></svg>