<?xml version="1.0" encoding="utf-8"?>
<!-- Generator: Adobe Illustrator 21.0.2, SVG Export Plug-In . SVG Version: 6.00 Build 0)  -->
<svg version="1.1" id="Layer_1" xmlns="http://www.w3.org/2000/svg" xmlns:xlink="http://www.w3.org/1999/xlink" x="0px" y="0px"
	 viewBox="0 0 60 63.8" style="enable-background:new 0 0 60 63.8;" xml:space="preserve">
<g>
	<path d="M31,30.5V12c0-0.6-0.5-1-1-1s-1,0.4-1,1v18.5L11.4,43.2c-0.4,0.3-0.6,1-0.2,1.4c0.3,0.5,0.9,0.5,1.4,0.2L30,32.2l18.4,12.6
		c0.2,0.1,0.4,0.2,0.6,0.2c0.3,0,0.6-0.2,0.8-0.4c0.3-0.5,0.2-1.1-0.3-1.4L31,30.5z"/>
	<path d="M29,4.4V7c0,0.6,0.5,1,1,1s1-0.4,1-1V4.4l2.7-2.7c0.4-0.4,0.4-1,0-1.4s-1-0.4-1.4,0L30,2.6l-2.3-2.3c-0.4-0.4-1-0.4-1.4,0
		s-0.4,1,0,1.4L29,4.4z"/>
	<path d="M57.4,47l2.3-2.3c0.4-0.4,0.4-1,0-1.4s-1-0.4-1.4,0L56,45.6l-2.3-2.3c-0.4-0.4-1-0.4-1.4,0s-0.4,1,0,1.4l2.3,2.3l-2.3,2.3
		c-0.4,0.4-0.4,1,0,1.4c0.2,0.2,0.4,0.3,0.7,0.3s0.5-0.1,0.7-0.3l2.3-2.3l2.3,2.3c0.2,0.2,0.5,0.3,0.7,0.3s0.5-0.1,0.7-0.3
		c0.4-0.4,0.4-1,0-1.4L57.4,47z"/>
	<path d="M7.9,44.4c0.1-0.2,0.1-0.5,0-0.8c-0.1-0.2-0.3-0.4-0.5-0.5C7.3,43,7.1,43,7,43H1c-0.6,0-1,0.5-1,1s0.4,1,1,1h3.6l-4.3,4.3
		c-0.1,0.1-0.2,0.2-0.2,0.3c-0.1,0.2-0.1,0.5,0,0.8c0.1,0.2,0.3,0.4,0.5,0.5C0.7,51,0.9,51,1,51h6c0.6,0,1-0.5,1-1s-0.4-1-1-1H3.4
		l4.3-4.3C7.8,44.6,7.9,44.5,7.9,44.4z"/>
</g>
</svg>
