<?xml version="1.0" encoding="utf-8"?>
<svg version="1.1" id="Layer_1" x="0px" y="0px" viewBox="0 0 75 75" style="enable-background:new 0 0 75 75;" xmlns="http://www.w3.org/2000/svg" xmlns:bx="https://boxy-svg.com">
  <g transform="matrix(1.152936, 0, 0, 1.583656, -7.146986, -63.94841)">
    <path d="M 50.342 54.136 L 50.374 52.154 L 32.903 52.154 L 32.933 50.285 L 29.305 52.97 L 32.844 55.656 L 32.87 54.136 L 50.342 54.136 Z" style="fill: rgb(7, 12, 166);" transform="matrix(-0.819169, -0.573552, 0.573552, -0.819169, 42.051033, 118.81224)" bx:origin="0.496 0.464"/>
    <rect x="23.79" y="43.065" width="8.042" height="7.871" style="fill: rgb(7, 12, 166);"/>
    <path d="M 47.066 63.934 L 46.99 65.895 L 31.349 65.895 L 31.277 67.748 L 28.17 65.089 L 31.48 62.427 L 31.423 63.934 L 47.066 63.934 Z" style="fill: rgb(155, 51, 164);" transform="matrix(-0.845306, 0.534283, -0.534283, -0.845306, 104.191843, 100.007697)"/>
    <rect x="24.045" y="65.224" width="8.042" height="7.871" style="fill: rgb(155, 51, 164);"/>
    <path d="M 48.565 56.487 L 48.565 58.469 L 33.6 58.469 L 33.6 60.339 L 30.53 57.653 L 33.6 54.966 L 33.6 56.487 L 48.565 56.487 Z" style="fill: rgb(7, 12, 166);" transform="matrix(-1, 0, 0, -1, 79.094999, 115.305)"/>
    <rect x="23.79" y="54.187" width="8.042" height="7.871" style="fill: rgb(7, 12, 166);"/>
    <rect x="45.363" y="53.65" width="8.042" height="7.871" style="fill: rgb(7, 12, 166);"/>
  </g>
  <g transform="matrix(1, 0, 0, 1, -0.261588, 1.664367)">
    <circle cx="17.49" cy="63.104" r="8.014"/>
    <circle cx="36.871" cy="63.283" r="8.014"/>
    <circle cx="55.877" cy="62.992" r="8.014"/>
  </g>
</svg>