<?xml version="1.0" encoding="utf-8"?>
<svg version="1.1" id="Layer_1" x="0px" y="0px" viewBox="0 0 75 75" style="enable-background:new 0 0 75 75;" xmlns="http://www.w3.org/2000/svg">
  <g transform="matrix(1.519568, 0, 0, 1.519568, -18.710281, -63.100315)">
    <path d="M 43.347 53.817 L 43.347 51.834 L 26.844 51.834 L 26.844 49.965 L 23.457 52.651 L 26.844 55.338 L 26.844 53.817 L 43.347 53.817 Z" style="fill: rgb(7, 12, 166);" transform="matrix(-0.798634, 0.601817, -0.601817, -0.798634, 91.764545, 74.598883)"/>
    <rect x="-49.397" y="43.468" width="8.042" height="7.871" style="fill: rgb(7, 12, 166);" transform="matrix(-1, 0, 0, 1, 0, 0)"/>
    <path d="M 43.4 63.431 L 43.4 64.877 L 26.548 64.877 L 26.548 66.243 L 23.091 64.282 L 26.548 62.319 L 26.548 63.431 L 43.4 63.431 Z" style="fill: rgb(155, 51, 164);" transform="matrix(-0.809017, -0.587785, 0.587785, -0.809017, 22.358267, 135.826635)"/>
    <rect x="-49.142" y="65.628" width="8.042" height="7.871" style="fill: rgb(155, 51, 164);" transform="matrix(-1, 0, 0, 1, 0, 0)"/>
    <path d="M 41.574 56.8 L 41.574 58.782 L 27.632 58.782 L 27.632 60.652 L 24.772 57.966 L 27.632 55.279 L 27.632 56.8 L 41.574 56.8 Z" style="fill: rgb(7, 12, 166);" transform="matrix(-1, 0, 0, -1, 66.346001, 115.931)"/>
    <rect x="-49.397" y="54.59" width="8.042" height="7.871" style="fill: rgb(7, 12, 166);" transform="matrix(-1, 0, 0, 1, 0, 0)"/>
    <rect x="-29.812" y="54.479" width="8.042" height="7.871" style="fill: rgb(7, 12, 166);" transform="matrix(-1, 0, 0, 1, 0, 0)"/>
  </g>
  <g transform="matrix(1, 0, 0, 1, -0.96089, -1.249386)">
    <circle cx="17.49" cy="63.104" r="8.014"/>
    <circle cx="36.871" cy="63.283" r="8.014"/>
    <circle cx="55.877" cy="62.992" r="8.014"/>
  </g>
</svg>