<?xml version="1.0" encoding="utf-8"?>
<svg version="1.1" id="Layer_1" x="0px" y="0px" viewBox="0 0 75 75" style="enable-background:new 0 0 75 75;" xmlns="http://www.w3.org/2000/svg" xmlns:bx="https://boxy-svg.com">
  <g transform="matrix(-1.124882, 0.688531, -0.688531, -1.124882, 113.607147, 18.184793)">
    <g>
      <path d="M 71.239 26.433 C 71.865 22.307 69.001 24.506 68.84 24.901 L 68.7 25.243 C 68.626 25.438 67.163 29.192 65.804 29.192 C 64.399 29.192 64.825 25.779 64.852 25.572 L 64.898 25.159 C 64.936 24.78 65.804 15.902 63.054 15.864 C 60.578 15.864 57.923 21.833 56.91 24.367 L 56.639 25.035 L 56.497 25.42 C 56.445 25.554 55.105 29.088 53.699 29.088 C 52.296 29.088 52.724 25.593 52.737 25.506 C 52.782 25.132 54.059 15.768 50.959 15.768 C 48.332 15.835 44.577 24.925 44.423 25.298 L 44.275 25.679 C 44.214 25.833 42.736 29.587 41.384 29.587 C 41.361 29.587 40.372 29.539 40.372 29.539 C 39.621 29.539 38.434 31.863 37.718 34.734 C 36.999 37.602 37.023 39.926 37.774 39.926 C 37.774 39.926 38.724 40.055 38.764 40.055 L 38.772 40.055 C 41.429 40.055 44.461 32.789 45.164 30.989 C 45.449 30.336 47.261 26.246 48.361 26.23 C 49.7 26.23 49.335 29.569 49.293 29.88 C 49.158 30.889 48.077 39.579 51.074 39.579 C 53.873 39.579 56.885 32.07 57.56 30.283 L 57.723 29.886 C 58.15 28.815 59.272 26.326 60.448 26.326 C 61.612 26.357 61.393 29.855 61.348 30.476 C 61.127 32.324 60.409 39.647 63.19 39.647 C 65.853 39.647 69.622 31.191 70.315 29.428 C 70.583 28.806 70.921 28.536 71.239 26.433 Z" style="fill: rgb(4, 63, 192);" transform="matrix(-0.013649, 0.999907, -0.999907, -0.013649, 82.910841, -25.963809)"/>
    </g>
    <path d="M 72.54 11.457 L 81.346 26.709 L 63.734 26.709 L 72.54 11.457 Z" transform="matrix(0.015708, 0.999877, -0.999877, 0.015708, 67.887817, -60.430977)" style="fill: rgb(4, 63, 192);" bx:shape="triangle 63.734 11.457 17.612 15.252 0.5 0 1@c9235efd"/>
  </g>
  <g transform="matrix(1, 0, 0, 1, 0.4662, -2.331002)">
    <circle cx="17.49" cy="63.104" r="8.014"/>
    <circle cx="36.871" cy="63.283" r="8.014"/>
    <circle cx="55.877" cy="62.992" r="8.014"/>
  </g>
</svg>