<svg xmlns="http://www.w3.org/2000/svg" xmlns:xlink="http://www.w3.org/1999/xlink" width="100" height="100" viewBox="0 0 100 100"><g><g transform="translate(50 50) scale(0.69 0.69) rotate(0) translate(-50 -50)" style="fill:#FF6868"><svg fill="#FF6868" xmlns:dc="http://purl.org/dc/elements/1.1/" xmlns:cc="http://creativecommons.org/ns#" xmlns:rdf="http://www.w3.org/1999/02/22-rdf-syntax-ns#" xmlns:svg="http://www.w3.org/2000/svg" xmlns="http://www.w3.org/2000/svg" xmlns:sodipodi="http://sodipodi.sourceforge.net/DTD/sodipodi-0.dtd" xmlns:inkscape="http://www.inkscape.org/namespaces/inkscape" version="1.1" x="0px" y="0px" viewBox="0 0 100 100"><g transform="translate(0,-952.36218)"><path style="color:#000000;enable-background:accumulate;" d="m 50.073433,973.23098 c -5.919404,5.91939 -7.531297,14.4796 -4.905553,21.87611 l -29.742714,29.74261 -1.347818,12.7944 16.904188,-2.8949 0.707128,-7.7781 7.778152,-0.7071 0.707153,-7.7781 7.778178,-0.7071 9.943666,-9.9439 c 7.396538,2.6259 15.956711,1.014 21.876139,-4.9054 8.200957,-8.201 8.200918,-21.49759 -2.2e-5,-29.69852 -8.200967,-8.20096 -21.497519,-8.20098 -29.698497,0 z m 15.556353,5.65684 c 2.343128,-2.34313 6.142139,-2.34314 8.485294,3e-5 2.343135,2.34312 2.343134,6.14214 10e-7,8.48528 -2.343132,2.34313 -6.142145,2.34312 -8.485286,-2e-5 -2.343147,-2.34314 -2.343145,-6.14216 -9e-6,-8.48529 z" fill="#FF6868" stroke="none" marker="none" visibility="visible" display="inline" overflow="visible"></path></g></svg></g></g></svg>