<?xml version="1.0" encoding="utf-8"?>
<!-- Generator: Adobe Illustrator 22.0.1, SVG Export Plug-In . SVG Version: 6.00 Build 0)  -->
<svg version="1.1" id="Layer_1" xmlns="http://www.w3.org/2000/svg" xmlns:xlink="http://www.w3.org/1999/xlink" x="0px" y="0px"
	 viewBox="0 0 108.3 109.7" style="enable-background:new 0 0 108.3 109.7;" xml:space="preserve">
<g>
	<g>
		<path d="M53.9,81.8l0,11c-2.1,0.5-3.8,2.4-3.8,4.6c0,2.6,2.1,4.7,4.7,4.7c2.6,0,4.7-2.1,4.7-4.7c0-2.3-1.6-4.2-3.8-4.6l0-11
			l19.4-0.1l0,11c-2.2,0.4-3.8,2.4-3.8,4.6c0,2.6,2.1,4.7,4.7,4.7c2.6,0,4.8-2.1,4.8-4.7c0-2.3-1.6-4.2-3.8-4.6l0-11.9
			c0-0.5-0.4-0.9-0.9-0.9L55.8,80l0-4.5c0-0.5-0.4-0.9-0.9-0.9S54,75,54,75.5l0,4.5l-20.3,0.1c-0.5,0-0.9,0.4-0.9,0.9l0,11.9
			c-2.2,0.4-3.8,2.4-3.8,4.6c0,2.6,2.1,4.7,4.7,4.7c2.6,0,4.7-2.1,4.7-4.7c0-2.3-1.6-4.2-3.8-4.6l0-11L53.9,81.8z M79,97.3
			c0,1.6-1.3,2.8-2.8,2.8c-1.6,0-2.8-1.3-2.8-2.8c0-1.5,1.3-2.8,2.8-2.8C77.7,94.5,79,95.8,79,97.3z M36.5,97.5
			c0,1.6-1.3,2.8-2.8,2.8c-1.5,0-2.8-1.3-2.8-2.8c0-1.5,1.3-2.8,2.8-2.8S36.5,96,36.5,97.5z M57.8,97.4c0,1.6-1.3,2.8-2.8,2.8
			c-1.6,0-2.8-1.3-2.8-2.8c0-1.5,1.3-2.8,2.8-2.8C56.5,94.6,57.8,95.9,57.8,97.4z"/>
		<g>
			<path d="M51.8,17h-6.5c-0.6,0-1,0.4-1,1v6.6c0,0.6,0.4,1,1,1h6.5c0.6,0,1-0.4,1-1V18C52.8,17.5,52.4,17,51.8,17z M50.8,23.7h-4.5
				V19h4.5V23.7z"/>
			<path d="M64.8,17h-6.5c-0.6,0-1,0.4-1,1v6.6c0,0.6,0.4,1,1,1h6.5c0.6,0,1-0.4,1-1V18C65.8,17.5,65.3,17,64.8,17z M63.8,23.7h-4.5
				V19h4.5V23.7z"/>
			<path d="M51.8,28.6h-6.5c-0.6,0-1,0.4-1,1v6.6c0,0.6,0.4,1,1,1h6.5c0.6,0,1-0.4,1-1v-6.6C52.8,29.1,52.4,28.6,51.8,28.6z
				 M50.8,35.3h-4.5v-4.6h4.5V35.3z"/>
			<path d="M64.8,28.6h-6.5c-0.6,0-1,0.4-1,1v6.6c0,0.6,0.4,1,1,1h6.5c0.6,0,1-0.4,1-1v-6.6C65.8,29.1,65.3,28.6,64.8,28.6z
				 M63.8,35.3h-4.5v-4.6h4.5V35.3z"/>
			<path d="M51.8,40.2h-6.5c-0.6,0-1,0.4-1,1v6.6c0,0.6,0.4,1,1,1h6.5c0.6,0,1-0.4,1-1v-6.6C52.8,40.6,52.4,40.2,51.8,40.2z
				 M50.8,46.8h-4.5v-4.6h4.5V46.8z"/>
			<path d="M64.8,40.2h-6.5c-0.6,0-1,0.4-1,1v6.6c0,0.6,0.4,1,1,1h6.5c0.6,0,1-0.4,1-1v-6.6C65.8,40.6,65.3,40.2,64.8,40.2z
				 M63.8,46.8h-4.5v-4.6h4.5V46.8z"/>
			<path d="M51.8,51.8h-6.5c-0.6,0-1,0.4-1,1v6.6c0,0.6,0.4,1,1,1h6.5c0.6,0,1-0.4,1-1v-6.6C52.8,52.2,52.4,51.8,51.8,51.8z
				 M50.8,58.4h-4.5v-4.6h4.5V58.4z"/>
			<path d="M64.8,51.8h-6.5c-0.6,0-1,0.4-1,1v6.6c0,0.6,0.4,1,1,1h6.5c0.6,0,1-0.4,1-1v-6.6C65.8,52.2,65.3,51.8,64.8,51.8z
				 M63.8,58.4h-4.5v-4.6h4.5V58.4z"/>
			<path d="M75.8,73.1h-5.2V13.9c0-0.6-0.4-1-1-1h-29c-0.6,0-1,0.4-1,1V73h-5.2c-0.6,0-1,0.4-1,1s0.4,1,1,1h6.2H52h6.2h11.4h6.2
				c0.6,0,1-0.4,1-1S76.3,73.1,75.8,73.1z M53,73.1v-4.2h4.2v4.2H53z M59.2,73.1v-5.2c0-0.6-0.4-1-1-1H52c-0.6,0-1,0.4-1,1v5.2h-9.4
				V14.9h27V73L59.2,73.1L59.2,73.1z"/>
		</g>
	</g>
</g>
</svg>
