<?xml version="1.0" encoding="utf-8"?>
<!-- Generator: Adobe Illustrator 21.0.2, SVG Export Plug-In . SVG Version: 6.00 Build 0)  -->
<svg version="1.1" id="Layer_1" xmlns="http://www.w3.org/2000/svg" xmlns:xlink="http://www.w3.org/1999/xlink" x="0px" y="0px"
	 viewBox="0 0 19 25" style="enable-background:new 0 0 19 25;" xml:space="preserve">
<g transform="translate(-90 -2420)">
	<g>
		<rect x="98" y="2420" width="3" height="3"/>
		<g>
			<polygon points="100,2424 100,2426 99,2426 99,2424 96,2424 96,2429 103,2429 103,2424 			"/>
		</g>
		<rect x="92" y="2430" width="3" height="3"/>
		<g>
			<polygon points="94,2434 94,2436 93,2436 93,2434 90,2434 90,2439 97,2439 97,2434 			"/>
		</g>
		<rect x="104" y="2430" width="3" height="3"/>
		<g>
			<polygon points="106,2434 106,2436 105,2436 105,2434 102,2434 102,2439 109,2439 109,2434 			"/>
		</g>
		<polygon points="100,2432 100,2430 99,2430 99,2432 97,2432 97,2433 102,2433 102,2432 		"/>
	</g>
</g>
</svg>
