<?xml version="1.0" encoding="utf-8"?>
<!-- Generator: Adobe Illustrator 22.0.1, SVG Export Plug-In . SVG Version: 6.00 Build 0)  -->
<svg version="1.1" id="Layer_1" xmlns="http://www.w3.org/2000/svg" xmlns:xlink="http://www.w3.org/1999/xlink" x="0px" y="0px"
	 viewBox="0 0 101 112" style="enable-background:new 0 0 101 112;" xml:space="preserve">
<ellipse cx="51.5" cy="18.3" rx="9.6" ry="9.8"/>
<path d="M40,71.9v30c0,2.6,2.5,4.7,5,4.7c2.5,0,5-2.1,5-4.7V73h2v28.9c0,2.6,2.5,4.7,5,4.7c2.5,0,5-2.1,5-4.7v-30V64H40V71.9z"/>
<g>
	<polygon points="58,41.4 58,39 54,39 54,41.4 56.1,42.5 	"/>
	<path d="M69,34.5c-0.2-2-1.9-3.5-3.8-3.5H37.8c-2,0-3.7,1.5-3.8,3.5c0,0-4.3,26.6-4.3,26.7c-0.2,2,1.3,3.8,3.2,4
		c2,0.2,3.7-1.3,3.9-3.3c0-0.1,3.2-23.2,3.2-23.2V62h22V39.5c0,0,3.6,22.2,3.7,22.3c0.2,2,2.2,3.5,4.1,3.3s3.6-2,3.4-4
		C73.2,61,69,34.5,69,34.5z M59,42l-2.9,1.6L53,42v-4h6V42z"/>
</g>
</svg>
