<?xml version="1.0" encoding="utf-8"?>
<!-- Generator: Adobe Illustrator 21.0.2, SVG Export Plug-In . SVG Version: 6.00 Build 0)  -->
<svg version="1.1" id="Layer_1" xmlns="http://www.w3.org/2000/svg" xmlns:xlink="http://www.w3.org/1999/xlink" x="0px" y="0px"
	 viewBox="0 0 111.9 128.4" style="enable-background:new 0 0 111.9 128.4;" xml:space="preserve">
<style type="text/css">
	.st0{fill:#FFFFFF;}
</style>
<g>
	<g>
		<path d="M53.5,97.5h-38c-3.3,0-6-2.7-6-6v-58h80.1v28c0,1.1,0.9,2,2,2s2-0.9,2-2v-38c0-5.5-4.5-10-10-10H15.5c-5.5,0-10,4.5-10,10
			v68.1c0,5.5,4.5,10,10,10h38c1.1,0,2-0.9,2-2S54.6,97.5,53.5,97.5z M31.5,21.5c1.1,0,2,0.9,2,2c0,1.1-0.9,2-2,2s-2-0.9-2-2
			C29.5,22.4,30.4,21.5,31.5,21.5z M23.5,21.5c1.1,0,2,0.9,2,2c0,1.1-0.9,2-2,2s-2-0.9-2-2C21.5,22.4,22.4,21.5,23.5,21.5z
			 M15.5,21.5c1.1,0,2,0.9,2,2c0,1.1-0.9,2-2,2s-2-0.9-2-2C13.5,22.4,14.4,21.5,15.5,21.5z M97.2,100.9l-6-1.5l-0.2-1
			c1.6-1.7,2.7-3.9,3.1-6.2c1.1-0.6,1.8-1.6,2-2.9l0.4-3.5c0.1-1.1-0.2-2.1-0.9-2.9c-0.2-0.2-0.5-0.5-0.7-0.6l0.1-2.1l0.4-0.4
			c1-1.1,2.4-3.4,0.2-6.8c-1-1.6-3.2-3.5-7.5-3.5c-1.3,0-4.2,0-6.9,1.8c-8.2,0.3-9.2,4.7-9.2,8.1c0,0.7,0.1,1.9,0.2,2.9
			c-0.3,0.2-0.6,0.4-0.8,0.7c-0.7,0.8-1,1.9-0.9,2.9l0.4,3.5c0.2,1.3,1,2.4,2.2,2.9c0.4,2.2,1.5,4.3,3,6l-0.3,1.2l-6,1.5
			c-4.9,1.2-8.3,5.6-8.3,10.6c0,1.1,0.9,2,2,2h40c1.1,0,2-0.9,2-2C105.5,106.5,102.1,102.2,97.2,100.9z"/>
	</g>
</g>
<g>
	<path d="M35.4,65l3,0.5c0.4,1.3,0.9,2.6,1.5,3.7l-1.7,2.5c-0.6,0.9-0.5,2.2,0.3,3l1.8,1.8c0.8,0.8,2,0.9,3,0.3l2.5-1.7
		c1.2,0.7,2.4,1.2,3.7,1.5l0.5,3c0.2,1.1,1.1,1.9,2.3,1.9h2.5c1.1,0,2.1-0.8,2.3-1.9l0.5-3c1.3-0.3,2.5-0.9,3.7-1.5l2.5,1.7
		c0.9,0.6,2.2,0.5,3-0.3l1.8-1.8c0.8-0.8,0.9-2,0.3-3L67,69.3c0.7-1.2,1.2-2.4,1.6-3.8l3-0.5c1.1-0.2,1.9-1.1,1.9-2.3v-2.5
		c0-1.1-0.8-2.1-1.9-2.3l-3-0.5c-0.4-1.3-0.9-2.6-1.5-3.7l1.7-2.5c0.6-0.9,0.5-2.2-0.3-3l-1.8-1.8c-0.8-0.8-2-0.9-3-0.3l-2.5,1.7
		c-1.2-0.7-2.4-1.2-3.7-1.5l-0.5-3c-0.2-1.1-1.1-1.9-2.3-1.9h-2.5c-1.1,0-2.1,0.8-2.3,1.9l-0.5,3c-1.3,0.4-2.6,0.9-3.7,1.5l-2.5-1.7
		c-0.9-0.6-2.2-0.5-3,0.3l-1.8,1.8c-0.8,0.8-0.9,2-0.3,3l1.7,2.5c-0.7,1.2-1.2,2.4-1.5,3.7l-3,0.5c-1.1,0.2-1.9,1.2-1.9,2.3v2.5
		C33.5,63.9,34.3,64.8,35.4,65z"/>
	<circle class="st0" cx="53.5" cy="61.5" r="6.7"/>
</g>
</svg>
