<?xml version="1.0" encoding="utf-8"?>
<!-- Generator: Adobe Illustrator 21.0.2, SVG Export Plug-In . SVG Version: 6.00 Build 0)  -->
<svg version="1.1" id="Layer_1" xmlns="http://www.w3.org/2000/svg" xmlns:xlink="http://www.w3.org/1999/xlink" x="0px" y="0px"
	 viewBox="0 0 107.7 259" style="enable-background:new 0 0 107.7 259;" xml:space="preserve">
<path d="M76.3,62.5c15.6,0,28.3,12.7,28.3,28.3v57.4c0,4.7-3.8,8.5-8.5,8.5s-8.5-3.8-8.5-8.5V95.5c0-1.6-1.3-2.8-2.8-2.8
	c-1.6,0-2.8,1.3-2.8,2.8l0.1,139.9c0,6-4.9,10.9-10.9,10.9c-6,0-10.9-4.9-10.9-10.9c0,0,0-67,0-70.9c0-3.5-2.9-6.4-6.4-6.4
	c-3.5,0-6.4,2.9-6.4,6.4c0,3.9,0,70.9,0,70.9c0,6-4.9,10.9-10.9,10.9s-10.9-4.9-10.9-10.9l0.1-139.9c0-1.6-1.3-2.8-2.8-2.8
	s-2.8,1.3-2.8,2.8v52.8c0,4.7-3.8,8.5-8.5,8.5s-8.5-3.8-8.5-8.5V90.9c0-15.7,12.7-28.3,28.3-28.3C31.4,62.5,76.3,62.5,76.3,62.5z"/>
<path d="M39.6,19.5c2.9-9.5,11.8-16.3,22.2-16.3c10.9,0,20.1,7.6,22.6,17.7l-0.1,0c7.1,3,12.1,10,12.1,18.3
	c0,10.9-8.9,19.8-19.8,19.8H23.6c-6.8,0-12.3-5.5-12.3-12.3c0-5.9,4.1-10.8,9.6-12h0c0-0.1,0-0.2,0-0.3C21,25.9,27.8,19,36.3,19
	c1.1,0,2.3,0.1,3.3,0.4"/>
</svg>
