<?xml version="1.0" encoding="utf-8"?>
<!-- Generator: Adobe Illustrator 21.0.2, SVG Export Plug-In . SVG Version: 6.00 Build 0)  -->
<svg version="1.1"
	 id="Layer_1" xmlns:cc="http://creativecommons.org/ns#" xmlns:dc="http://purl.org/dc/elements/1.1/" xmlns:inkscape="http://www.inkscape.org/namespaces/inkscape" xmlns:rdf="http://www.w3.org/1999/02/22-rdf-syntax-ns#" xmlns:sodipodi="http://sodipodi.sourceforge.net/DTD/sodipodi-0.dtd" xmlns:svg="http://www.w3.org/2000/svg"
	 xmlns="http://www.w3.org/2000/svg" xmlns:xlink="http://www.w3.org/1999/xlink" x="0px" y="0px" viewBox="0 0 100 104.8"
	 style="enable-background:new 0 0 100 104.8;" xml:space="preserve">
<g transform="translate(0,-952.36218)">
	<g id="XMLID_1_">
		<g>
			<path d="M57.9,966.4l20.8,36l-20.8,36H22.5l20.3-35c0.4-0.6,0.4-1.4,0-2l-20.3-35H57.9z"/>
			<path d="M82.8,1001.4c0.1,0.2,0.2,0.5,0.2,0.8c0,0.4-0.1,0.8-0.2,1.2l-22,38c-0.4,0.6-1.1,1-1.8,1H19c-0.4,0-0.7-0.1-1-0.3
				c-0.9-0.5-1.3-1.7-0.7-2.7l21.4-37l-21.4-37c-0.2-0.3-0.3-0.7-0.3-1c0-1.1,0.9-2,2-2h40c0.8,0,1.4,0.4,1.8,1L82.8,1001.4z
				 M78.7,1002.4l-20.8-36H22.5l20.3,35c0.4,0.6,0.4,1.4,0,2l-20.3,35h35.4L78.7,1002.4z"/>
		</g>
		<g>
		</g>
	</g>
</g>
</svg>
