<?xml version="1.0" encoding="utf-8"?>
<svg version="1.1" id="Layer_1" x="0px" y="0px" viewBox="0 0 80 80" style="enable-background:new 0 0 80 80;" xmlns="http://www.w3.org/2000/svg" xmlns:bx="https://boxy-svg.com">
  <style type="text/css">
	.st0{fill:none;stroke:#000000;stroke-width:3;stroke-miterlimit:10;}
	.st1{font-family:'MyriadPro-Regular';}
	.st2{font-size:32.8529px;}
</style>
  <rect x="2.942" y="6.769" width="71.256" height="70.856" transform="matrix(1, 0, -0.000459, 1, 1.529724, -2.462606)" rx="3.912" ry="3.912" style="fill: rgb(210, 227, 228);"/>
  <path class="st0" d="M 68.25 77.303 L 11.708 77.303 C 6.645 77.303 2.501 72.317 2.501 66.225 L 2.501 13.322 C 2.501 7.228 6.645 2.242 11.708 2.242 L 68.25 2.242 C 73.312 2.242 77.456 7.228 77.456 13.322 L 77.456 66.225 C 77.456 72.317 73.312 77.303 68.25 77.303 Z" style="stroke-width: 5; stroke: rgb(36, 85, 101);"/>
  <g transform="matrix(1.394247, 0, 0, 1.462527, -20.014284, -37.075901)">
    <line style="stroke: rgb(0, 0, 0); stroke-width: 5px; stroke-linecap: square; stroke-miterlimit: 1; paint-order: fill markers;" x1="25.486" y1="48.46" x2="59.176" y2="48.46"/>
  </g>
  <g transform="matrix(-0.009272, 0.92528, -1.462454, -0.014654, 94.808784, 10.567874)">
    <line style="stroke: rgb(0, 0, 0); stroke-width: 5px; stroke-linecap: square; stroke-miterlimit: 1; paint-order: fill markers;" x1="25.486" y1="48.46" x2="59.176" y2="48.46"/>
  </g>
  <g transform="matrix(-0.009272, 0.92528, -1.462454, -0.014654, 125.46685, 10.464648)">
    <line style="stroke: rgb(0, 0, 0); stroke-width: 5px; stroke-linecap: square; stroke-miterlimit: 1; paint-order: fill markers;" x1="25.486" y1="48.46" x2="59.176" y2="48.46"/>
  </g>
  <path d="M 343 176 m -11.665 0 a 11.665 11.665 0 1 0 23.33 0 a 11.665 11.665 0 1 0 -23.33 0 Z M 343 176 m -6.999 0 a 6.999 6.999 0 0 1 13.998 0 a 6.999 6.999 0 0 1 -13.998 0 Z" transform="matrix(-0.329557, 0.944136, -0.944136, -0.329557, 317.503718, -247.495026)" style="stroke: rgb(0, 0, 0);" bx:shape="ring 343 176 6.999 6.999 11.665 11.665 1@82b8b0d1"/>
  <path d="M 22.495 25.006 L 28.332 37.727 L 16.657 37.727 L 22.495 25.006 Z" transform="matrix(-0.016416, 0.999865, -0.992164, -0.485501, 55.951332, 20.088804)" style="fill: rgb(98, 1, 254);" bx:shape="triangle 16.657 25.006 11.675 12.721 0.5 0 1@71b54d5b"/>
  <path d="M 22.495 25.006 L 28.332 37.727 L 16.657 37.727 L 22.495 25.006 Z" transform="matrix(-0.013885, 0.999904, 1.006418, -0.455218, 21.894306, 19.028183)" style="fill: rgb(98, 1, 254);" bx:shape="triangle 16.657 25.006 11.675 12.721 0.5 0 1@71b54d5b"/>
</svg>