<?xml version="1.0" encoding="utf-8"?>
<svg version="1.1" id="Layer_1" x="0px" y="0px" viewBox="0 0 75 75" style="enable-background:new 0 0 75 75;" xmlns="http://www.w3.org/2000/svg">
  <g transform="matrix(1.3125, 0, 0, 1.3125, -27.578121, -9.124995)">
    <path stroke="#000000" stroke-width="0.5" stroke-miterlimit="10" d="M32.4,53.1v0.5c0,1.3-1.1,2.4-2.4,2.4h-0.1   c-1.3,0-2.4-1.1-2.4-2.4v-1.8c0-2.3,0.3-4,0.8-5c0.7-1.4,1.9-2.4,3.4-3.1l1.1,1.8c-0.9,0.4-1.6,1-2.1,1.8C30.3,48,30,49.2,30,50.7   h0C31.3,50.7,32.4,51.7,32.4,53.1z M40.4,53.1v0.5c0,1.3-1.1,2.4-2.4,2.4h-0.1c-1.3,0-2.4-1.1-2.4-2.4v-1.8c0-2.3,0.3-4,0.8-5   c0.7-1.4,1.9-2.4,3.4-3.1l1.1,1.8c-0.9,0.4-1.6,1-2.1,1.8c-0.4,0.8-0.7,1.9-0.7,3.4l0,0C39.3,50.7,40.4,51.7,40.4,53.1z" style="fill: rgb(7, 12, 166);"/>
    <path stroke="#000000" stroke-width="0.5" stroke-miterlimit="10" d="M59.6,46.9v-0.5c0-1.3,1.1-2.4,2.4-2.4h0.1   c1.3,0,2.4,1.1,2.4,2.4v1.8c0,2.3-0.3,3.9-0.8,5c-0.7,1.4-1.9,2.4-3.4,3.1l-1.1-1.8c0.9-0.4,1.6-1,2.1-1.8s0.7-1.9,0.8-3.3h0   C60.7,49.3,59.6,48.3,59.6,46.9z M67.6,46.9v-0.5c0-1.3,1.1-2.4,2.4-2.4h0.1c1.3,0,2.4,1.1,2.4,2.4v1.8c0,2.3-0.3,3.9-0.8,5   c-0.7,1.4-1.9,2.4-3.4,3.1l-1.1-1.8c0.9-0.4,1.6-1,2.1-1.8c0.5-0.8,0.7-1.9,0.8-3.3l0,0C68.7,49.3,67.6,48.3,67.6,46.9z" style="fill: rgb(7, 12, 166);"/>
  </g>
  <text style="font-family: &quot;Helvetica Neue&quot;, Helvetica, Arial-Unicode, Arial, sans-serif; font-size: 18px; font-weight: bold; letter-spacing: -0.7px; white-space: pre;" x="0.215" y="15.028">Technical</text>
  <text style="font-family: &quot;Helvetica Neue&quot;, Helvetica, Arial-Unicode, Arial, sans-serif; font-size: 18px; font-weight: bold; letter-spacing: -0.6px; white-space: pre;" x="14.61" y="35.079">Term</text>
  <g transform="matrix(0.519795, 0, 0, 0.519795, 13.230452, 46.853443)">
    <circle cx="56.5" cy="27" r="3.0" style="fill: rgb(7, 12, 166);"/>
    <circle cx="46.5" cy="27" r="3.0" style="fill: rgb(7, 12, 166);"/>
    <circle cx="36.5" cy="27" r="3.0" style="fill: rgb(7, 12, 166);"/>
  </g>
</svg>