<?xml version="1.0" encoding="utf-8"?>
<svg viewBox="0 0 500 500" xmlns="http://www.w3.org/2000/svg" xmlns:bx="https://boxy-svg.com">
  <path d="M 294.653 141.904 Q 299 137.858 303.347 141.904 L 403.33 234.954 Q 407.677 239 403.33 243.046 L 303.347 336.096 Q 299 340.142 294.653 336.096 L 194.67 243.046 Q 190.323 239 194.67 234.954 Z" transform="matrix(0.998402, 0.056516, -0.056516, 0.998402, -26.605405, -117.094084)" style="fill: rgb(253, 208, 156);" bx:shape="n-gon 299 239 108.677 101.142 4 0.04 1@7c888b08"/>
  <path d="M 294.653 141.904 Q 299 137.858 303.347 141.904 L 403.33 234.954 Q 407.677 239 403.33 243.046 L 303.347 336.096 Q 299 340.142 294.653 336.096 L 194.67 243.046 Q 190.323 239 194.67 234.954 Z" transform="matrix(0.998402, 0.056516, -0.056516, 0.998402, 84.972678, -0.017899)" style="fill: rgb(134, 197, 224);" bx:shape="n-gon 299 239 108.677 101.142 4 0.04 1@7c888b08"/>
  <path d="M 299 137.858 L 407.677 239 L 299 340.142 L 190.323 239 Z" transform="matrix(0.998402, 0.056516, -0.056516, 0.998402, -154.354875, -12.307896)" style="fill: rgb(134, 197, 224);" bx:shape="n-gon 299 239 108.677 101.142 4 0 1@6e98581e"/>
  <path d="M 294.653 141.904 Q 299 137.858 303.347 141.904 L 403.33 234.954 Q 407.677 239 403.33 243.046 L 303.347 336.096 Q 299 340.142 294.653 336.096 L 194.67 243.046 Q 190.323 239 194.67 234.954 Z" transform="matrix(0.998402, 0.056516, -0.056516, 0.998402, -37.278409, 104.768534)" style="fill: rgb(134, 197, 224);" bx:shape="n-gon 299 239 108.677 101.142 4 0.04 1@7c888b08"/>
</svg>