<svg id="Layer_1" data-name="Layer 1" xmlns="http://www.w3.org/2000/svg" viewBox="0 0 120 120"><title>icon</title><path d="M81.66,14.15C79.58,12.08,75.42,10,72.45,10H22.2c-3,0-5.2,3.09-5.2,6.06v89.74c0,3,2.22,4.19,5.2,4.19H97.58c3,0,5.42-1.22,5.42-4.19V41.19A15.07,15.07,0,0,0,99.17,32ZM75,18.31c0,0.34,1.53.84,1.92,1.23L94.29,36.4c0.39,0.39.71,1.6,1,1.6H75V18.31ZM96,103H24V17H67V41.19c0,3,2.48,3.81,5.45,3.81H96v58Z"/><path d="M68,64H42V58h7V40H31V58h7V88a2,2,0,0,0,2,2H68v7H86V79H68v7H42V68H68v6H86V56H68v8Z"/><path d="M115.24,16.66c-2-5-7.94-5.66-12.71-5.66H99V6.9A0.82,0.82,0,0,0,98.21,6a0.77,0.77,0,0,0-.58.28l-7.4,7.44a0.91,0.91,0,0,0-.26.65,0.94,0.94,0,0,0,.28.65l7.44,7.44a0.64,0.64,0,0,0,.52.28A0.83,0.83,0,0,0,99,21.78V18h3.54c6.26,0,10.37,1.23,10.37,8.16,0,0.59,0,1.21-.07,1.8,0,0.23-.07.5-0.07,0.73a0.47,0.47,0,0,0,.46.51,0.46,0.46,0,0,0,.41-0.25,7.77,7.77,0,0,0,.54-1.1A18,18,0,0,0,116,21.41,12.6,12.6,0,0,0,115.24,16.66Z"/></svg>