<svg id="Layer_1" data-name="Layer 1" xmlns="http://www.w3.org/2000/svg" viewBox="0 0 120 120"><title>icon</title><path d="M99.17,31L81.66,13.15C79.58,11.08,75.42,9,72.45,9H22.2c-3,0-5.2,3.09-5.2,6.06v89.74c0,3,2.22,4.19,5.2,4.19H97.58c3,0,5.42-1.22,5.42-4.19V40.19A15.07,15.07,0,0,0,99.17,31ZM75,17.31c0,0.34,1.53.84,1.92,1.23L94.29,35.4c0.39,0.39.71,1.6,1,1.6H75V17.31ZM96,102H24V16H67V40.19c0,3,2.48,3.81,5.45,3.81H96v58Z"/><path d="M69.26,63H42V56.74a8,8,0,1,0-4,0V87a2,2,0,0,0,2,2H69.26a8,8,0,1,0,0-4H42V67H69.26A8,8,0,1,0,69.26,63Z"/></svg>