<svg id="Layer_1" data-name="Layer 1" xmlns="http://www.w3.org/2000/svg" viewBox="0 0 120 120"><title>icon</title><path d="M104.64,31H81.26A14.57,14.57,0,0,0,74,32.83V14.4A5.34,5.34,0,0,0,68.67,9H45.29a15.07,15.07,0,0,0-9.22,3.82L13,35.75A15.25,15.25,0,0,0,9,45V82.74A5.57,5.57,0,0,0,14.72,88H45v16.32A5.9,5.9,0,0,0,50.69,110h54a5.62,5.62,0,0,0,5.36-5.68V36C110,33,107.62,31,104.64,31ZM74,42.55V59H57.26ZM38,21V38H21.29ZM49,57.33a15.31,15.31,0,0,0-4,9.22V81H17V45H39.9A5.18,5.18,0,0,0,45,39.57V16H67V39.57ZM103,103H52V67H75.87c3,0,5.13-2.87,5.13-5.84V38h22v65Z"/><path d="M79.39,72a2,2,0,0,0-1.4.58l-10,10a2,2,0,0,0-.57,1.4A2,2,0,0,0,68,85.35l10,10a2,2,0,0,0,1.4.57,2,2,0,0,0,1.39-.57l1.15-1.17a1.93,1.93,0,0,0,.59-1.39,1.84,1.84,0,0,0-.59-1.35L77.42,87H88.27A1.87,1.87,0,0,0,90,84.94V83a1.79,1.79,0,0,0-1.73-2H77.42l4.51-4.51a2,2,0,0,0,0-2.8l-1.15-1.14A2,2,0,0,0,79.39,72Z"/></svg>