<svg id="Layer_1" data-name="Layer 1" xmlns="http://www.w3.org/2000/svg" viewBox="0 0 120 120"><title>icon</title><path d="M113.42,25.16L103,21.47h0L99.7,20.3,98.17,16h0L94.85,6.59a0.89,0.89,0,0,0-1.68,0L89.84,16h0l-1.53,4.31L74.6,25.16a0.89,0.89,0,0,0,0,1.68L88.32,31.7l4.85,13.71a0.89,0.89,0,0,0,1.68,0l4.85-13.72L103,30.52h0l10.42-3.69A0.89,0.89,0,0,0,113.42,25.16Z"/><path d="M94,52a6.9,6.9,0,0,1-6.5-4.59l-3.9-11-11-3.9a6.89,6.89,0,0,1,0-13L82.51,16H20a3,3,0,0,0-3,3v82a3,3,0,0,0,3,3h80a3,3,0,0,0,3-3V40.36l-2.49,7A6.9,6.9,0,0,1,94,52ZM43,93a3,3,0,0,1-3,3H32a3,3,0,0,1-3-3V29a3,3,0,0,1,3-3h8a3,3,0,0,1,3,3V93Z"/></svg>