<svg id="Layer_1" data-name="Layer 1" xmlns="http://www.w3.org/2000/svg" viewBox="0 0 120 120"><title>icon</title><path d="M113.42,25.16L99.7,20.3,94.85,6.59a0.89,0.89,0,0,0-1.68,0L88.31,20.31,74.6,25.16a0.9,0.9,0,0,0-.28.16h0a0.84,0.84,0,0,0-.23.31l0,0.07a0.86,0.86,0,0,0,0,.36,0.9,0.9,0,0,0,0,.13l0,0.11a0.86,0.86,0,0,0,.06.13l0.05,0.09a0.85,0.85,0,0,0,.12.12l0.06,0.06a0.91,0.91,0,0,0,.24.13L88.32,31.7,92.5,43.5h0l0.68,1.91A0.87,0.87,0,0,0,94,46a0.91,0.91,0,0,0,.33-0.07l0.06,0a0.84,0.84,0,0,0,.28-0.21h0a0.89,0.89,0,0,0,.16-0.28l4.85-13.72,13.71-4.85A0.89,0.89,0,0,0,113.42,25.16Z"/><path d="M98.92,49.92a6.87,6.87,0,0,1-11.41-2.51l-3.9-11-11-3.9a6.87,6.87,0,0,1-2.51-11.41l-7.86-7.86a2.36,2.36,0,0,0-3.34,0L13.23,58.89a2.36,2.36,0,0,0,0,3.34l44.55,44.55a2.36,2.36,0,0,0,3.34,0l45.66-45.66a2.36,2.36,0,0,0,0-3.34Z"/></svg>