<svg id="Layer_1" data-name="Layer 1" xmlns="http://www.w3.org/2000/svg" viewBox="0 0 120 120"><defs><style>.cls-1{fill:none;}</style></defs><title>icon</title><path class="cls-1" d="M92.29,34.4L74.92,17.54c-0.39-.39-1.92-0.9-1.92-1.23V36H93.33C93,36,92.68,34.79,92.29,34.4Z"/><path class="cls-1" d="M65,39.19V15H22v86H94V43H70.45C67.48,43,65,42.17,65,39.19ZM77.84,64.61A8,8,0,0,1,62.26,65H47V80H74.26A8,8,0,0,1,82,74a8.08,8.08,0,0,1,7.06,11.93,6.83,6.83,0,0,1-3.19,3.16A8.08,8.08,0,0,1,74.26,84H43.72A0.72,0.72,0,0,1,43,83.28V65H35l-3.34,0A0.66,0.66,0,0,1,31,64.31V54.74h0a8,8,0,1,1,4,0h0V61H62.26A8,8,0,0,1,77.84,64.61Z"/><path d="M97.17,30L79.66,12.15C77.58,10.08,73.42,8,70.45,8H20.2c-3,0-5.2,3.09-5.2,6.06v89.74c0,3,2.22,4.19,5.2,4.19H95.58c3,0,5.42-1.22,5.42-4.19V39.19A15.07,15.07,0,0,0,97.17,30ZM73,16.31c0,0.34,1.53.84,1.92,1.23L92.29,34.4c0.39,0.39.71,1.6,1,1.6H73V16.31ZM94,101H22V15H65V39.19c0,3,2.48,3.81,5.45,3.81H94v58Z"/><path d="M82,74a8,8,0,0,0-7.74,6H47V65H62.26a8,8,0,1,0,0-4H35V54.74h0a8,8,0,1,0-4,0h0v9.57a0.66,0.66,0,0,0,.66.66L35,65h8V83.28a0.72,0.72,0,0,0,.72.72H74.26a8.08,8.08,0,0,0,11.61,5.09,6.83,6.83,0,0,0,3.19-3.16A8.08,8.08,0,0,0,82,74Z"/></svg>