<svg id="Layer_1" data-name="Layer 1" xmlns="http://www.w3.org/2000/svg" xmlns:xlink="http://www.w3.org/1999/xlink" viewBox="0 0 25 24"><defs><style>.cls-1{fill:url(#linear-gradient);}.cls-2{fill:none;}.cls-2,.cls-3{stroke:#506584;}.cls-3{fill:url(#linear-gradient-2);}</style><linearGradient id="linear-gradient" x1="20.883" y1="3.175" x2="32.142" y2="24.349" gradientUnits="userSpaceOnUse"><stop offset="0" stop-color="#a6b4c9"/><stop offset="1" stop-color="#607a9f"/></linearGradient><linearGradient id="linear-gradient-2" x1="15.117" y1="7.852" x2="26.294" y2="28.874" xlink:href="#linear-gradient"/></defs><title>swa-icon-concept-scheme</title><path class="cls-1" d="M35.205,21.595c0,.006.248.014.246.019l-.62,1c-.005,0,.111.254.106.254H18.474c-.005,0-.014-.252-.019-.254l-1-.87c0-.005-.254-.139-.254-.144V5.131c0-.005.252-.014.254-.019l.87-.5c.005,0,.139.246.144.246H34.937c.005,0,.014-.248.019-.246l.5.62c0,.005-.246-.111-.246-.106Z" transform="translate(-11.205 -3.863)"/><path class="cls-2" d="M35.705,21.595a.056.056,0,0,1,0,.019l-.745.745a.056.056,0,0,1-.019,0H18.474a.056.056,0,0,1-.019,0l-.745-.745a.056.056,0,0,1,0-.019V5.131a.056.056,0,0,1,0-.019l.745-.745a.056.056,0,0,1,.019,0H34.937a.056.056,0,0,1,.019,0l.745.745a.056.056,0,0,1,0,.019Z" transform="translate(-11.205 -3.863)"/><path class="cls-3" d="M29.705,26.6a.758.758,0,0,1-.758.758H12.464a.758.758,0,0,1-.758-.758V10.121a.758.758,0,0,1,.758-.758H28.947a.758.758,0,0,1,.758.758Z" transform="translate(-11.205 -3.863)"/></svg>