<svg id="Layer_1" data-name="Layer 1" xmlns="http://www.w3.org/2000/svg" viewBox="0 0 16.253 17.314"><defs><style>.cls-1{fill:#29a779;}</style></defs><title>swa-icon-primary-key-property</title><path class="cls-1" d="M23.372,20.257,22.145,19.03l4.224-4.224a4.051,4.051,0,1,0-1.636-1.636l-8.316,8.318a1.157,1.157,0,0,0,1.636,1.636l1.227,1.227a.578.578,0,0,0,.818,0l.818-.818a.577.577,0,0,0,0-.818L19.69,21.487l.818-.82,1.228,1.23a.578.578,0,0,0,.818,0l.818-.818A.581.581,0,0,0,23.372,20.257Zm3.681-10.228a1.737,1.737,0,1,1,0,2.455A1.738,1.738,0,0,1,27.054,10.029Z" transform="translate(-16.079 -7.206)"/></svg>