<?xml version="1.0" encoding="UTF-8" standalone="no"?>
<!-- Created with Inkscape (http://www.inkscape.org/) -->

<svg
   xmlns:dc="http://purl.org/dc/elements/1.1/"
   xmlns:cc="http://creativecommons.org/ns#"
   xmlns:rdf="http://www.w3.org/1999/02/22-rdf-syntax-ns#"
   xmlns:svg="http://www.w3.org/2000/svg"
   xmlns="http://www.w3.org/2000/svg"
   xmlns:sodipodi="http://sodipodi.sourceforge.net/DTD/sodipodi-0.dtd"
   xmlns:inkscape="http://www.inkscape.org/namespaces/inkscape"
   width="60"
   height="60"
   viewBox="0 0 60.0 60.0"
   id="svg2"
   sodipodi:docname="propertiesModified.svg">
  <defs
     id="defs4" />
  <g transform="translate(0,-992.36216)">
    <g>
      <g
         transform="matrix(0.70860533,0,0,0.70246514,8.7047055,304.40965)"
         style="fill:#000000;fill-opacity:1">
        <path
           inkscape:connector-curvature="0"
           style="color:#000000;clip-rule:nonzero;display:inline;overflow:visible;visibility:visible;opacity:1;isolation:auto;mix-blend-mode:normal;color-interpolation:sRGB;color-interpolation-filters:linearRGB;solid-color:#000000;solid-opacity:1;fill:#000000;fill-opacity:1;fill-rule:nonzero;stroke:#000000;stroke-width:4.62535048;stroke-linecap:butt;stroke-linejoin:round;stroke-miterlimit:4;stroke-dasharray:none;stroke-dashoffset:0;stroke-opacity:1;color-rendering:auto;image-rendering:auto;shape-rendering:auto;text-rendering:auto;enable-background:accumulate"
           d="m 17.200335,1033.584 a 9.1278019,8.2335265 0 0 0 -8.5873065,5.7145 l -6.3003532,0 0,5.037 6.2875171,0 a 9.1278019,8.2335265 0 0 0 8.1316276,5.699 9.1278019,8.2335265 0 0 0 9.237665,-5.699 l 31.71784,0 0,-5.037 -31.707144,0 a 9.1278019,8.2335265 0 0 0 -8.138044,-5.699 9.1278019,8.2335265 0 0 0 -0.641802,-0.015 z m -0.06846,3.5703 a 5.0190736,4.662868 0 0 1 0.35513,0.01 5.0190736,4.662868 0 0 1 4.706546,4.9349 l -0.0022,0.01 a 5.0190736,4.662868 0 0 1 -5.316257,4.3674 5.0190736,4.662868 0 0 1 -4.702268,-4.9368 5.0190736,4.662868 0 0 1 4.958989,-4.3789 z"
           id="rect4138" />
        <path
           style="color:#000000;clip-rule:nonzero;display:inline;overflow:visible;visibility:visible;opacity:1;isolation:auto;mix-blend-mode:normal;color-interpolation:sRGB;color-interpolation-filters:linearRGB;solid-color:#000000;solid-opacity:1;fill:#000000;fill-opacity:1;fill-rule:nonzero;stroke:#000000;stroke-width:4.62535048;stroke-linecap:butt;stroke-linejoin:round;stroke-miterlimit:4;stroke-dasharray:none;stroke-dashoffset:0;stroke-opacity:1;color-rendering:auto;image-rendering:auto;shape-rendering:auto;text-rendering:auto;enable-background:accumulate"
           d="m 40.87212,1013.584 a 9.1278019,8.2335267 0 0 0 -8.587305,5.7145 l -29.9721398,0 0,5.037 29.9593018,0 a 9.1278019,8.2335267 0 0 0 8.131628,5.699 9.1278019,8.2335267 0 0 0 9.237666,-5.699 l 8.046054,0 0,-5.037 -8.035358,0 a 9.1278019,8.2335267 0 0 0 -8.138045,-5.699 9.1278019,8.2335267 0 0 0 -0.641802,-0.016 z m 0.382942,3.5704 a 5.0190735,4.6628681 0 0 1 0.352991,0.01 5.0190735,4.6628681 0 0 1 4.706545,4.9368 l 0,0 a 5.0190735,4.6628681 0 0 1 -5.316256,4.3693 5.0190735,4.6628681 0 0 1 -4.704407,-4.9387 5.0190735,4.6628681 0 0 1 4.961127,-4.3789 z"
           id="rect4138-7"
           inkscape:connector-curvature="0" />
        <path
           style="color:#000000;clip-rule:nonzero;display:inline;overflow:visible;visibility:visible;opacity:1;isolation:auto;mix-blend-mode:normal;color-interpolation:sRGB;color-interpolation-filters:linearRGB;solid-color:#000000;solid-opacity:1;fill:#000000;fill-opacity:1;fill-rule:nonzero;stroke:#000000;stroke-width:4.17641068;stroke-linecap:butt;stroke-linejoin:round;stroke-miterlimit:4;stroke-dasharray:none;stroke-dashoffset:0;stroke-opacity:1;color-rendering:auto;image-rendering:auto;shape-rendering:auto;text-rendering:auto;enable-background:accumulate"
           d="m 26.867628,993.82063 a 9.2018042,8.2264242 0 0 0 -8.659084,5.7114 l -16.0155295,0 0,5.03277 16.0047465,0 a 9.2018042,8.2264242 0 0 0 8.197553,5.6941 9.2018042,8.2264242 0 0 0 9.312559,-5.6941 l 22.308731,0 0,-5.03277 -22.297949,0 a 9.2018042,8.2264242 0 0 0 -8.204022,-5.69597 9.2018042,8.2264242 0 0 0 -0.647005,-0.0154 z m 0.08411,3.29536 a 5.0597649,4.6588458 0 0 1 0.355853,0.008 5.0597649,4.6588458 0 0 1 4.744703,4.93241 l 0,0.01 a 5.0597649,4.6588458 0 0 1 -5.361515,4.3636 5.0597649,4.6588458 0 0 1 -4.74039,-4.9343 5.0597649,4.6588458 0 0 1 5.001349,-4.37517 z"
           id="rect4138-4"
           inkscape:connector-curvature="0" />
      </g>
      <path
         id="rect4137"
         transform="translate(0,992.36216)"
         d="M 1.8769531 1.8769531 L 1.8769531 58.123047 L 58.123047 58.123047 L 58.123047 1.8769531 L 1.8769531 1.8769531 z M 4.1835938 4.1835938 L 55.816406 4.1835938 L 55.816406 55.816406 L 4.1835938 55.816406 L 4.1835938 4.1835938 z "
         style="color:#000000;clip-rule:nonzero;display:inline;overflow:visible;visibility:visible;opacity:1;isolation:auto;mix-blend-mode:normal;color-interpolation:sRGB;color-interpolation-filters:linearRGB;solid-color:#000000;solid-opacity:1;fill:#000000;fill-opacity:1;fill-rule:nonzero;stroke:#000000;stroke-width:3.75198674;stroke-linecap:butt;stroke-linejoin:round;stroke-miterlimit:4;stroke-dasharray:none;stroke-dashoffset:0;stroke-opacity:1;color-rendering:auto;image-rendering:auto;shape-rendering:auto;text-rendering:auto;enable-background:accumulate" />
    </g>
  </g>
</svg>
