<svg xmlns="http://www.w3.org/2000/svg" width="400" height="443.09399" viewBox="0 0 400 443.094" version="1.1">
  <g transform="translate(0,-609.26816)">
    <path style="color:#000000;clip-rule:nonzero;display:inline;overflow:visible;visibility:visible;opacity:1;isolation:auto;mix-blend-mode:normal;color-interpolation:sRGB;color-interpolation-filters:linearRGB;solid-color:#000000;solid-opacity:1;fill:#000000;fill-opacity:1;fill-rule:nonzero;stroke:none;stroke-width:1;stroke-linecap:butt;stroke-linejoin:miter;stroke-miterlimit:4;stroke-dasharray:none;stroke-dashoffset:0;stroke-opacity:1;color-rendering:auto;image-rendering:auto;shape-rendering:auto;text-rendering:auto;enable-background:accumulate"
       d="m 200.56641,609.26821 0.008,43.15433 A 200,200.00016 0 0 1 384.55859,775.3035 200,200.00016 0 0 1 341.6875,993.51656 200,200.00016 0 0 1 123.63672,1037.21 200,200.00016 0 0 1 0,852.3602 l 50,0 a 150,150.00012 0 0 0 92.72852,138.63683 150,150.00012 0 0 0 163.5371,-32.76956 150,150.00012 0 0 0 32.1543,-163.66029 150,150.00012 0 0 0 -137.83789,-92.16413 l 0.008,43.88676 -118.67578,-68.4903 118.65235,-68.5313 z"/>
  </g>
</svg>
