<svg xmlns="http://www.w3.org/2000/svg" width="18" height="18" viewBox="0 0 18 18" version="1.1">
    <g transform="translate(0,-1034.3622)">
        <path style="color:#000000;clip-rule:nonzero;display:inline;overflow:visible;visibility:visible;opacity:1;isolation:auto;mix-blend-mode:normal;color-interpolation:sRGB;color-interpolation-filters:linearRGB;solid-color:#000000;solid-opacity:1;fill:#000000;fill-opacity:1;fill-rule:nonzero;stroke:none;stroke-width:1;stroke-linecap:butt;stroke-linejoin:miter;stroke-miterlimit:4;stroke-dasharray:none;stroke-dashoffset:0;stroke-opacity:1;color-rendering:auto;image-rendering:auto;shape-rendering:auto;text-rendering:auto;enable-background:accumulate"
              d="m 8,1034.3622 0,1.5762 a 7.5,7.5004602 0 0 0 -6.42578,6.4258 l -1.57422,0 0,2 1.56836,0 A 7.5,7.5004602 0 0 0 8,1050.7978 l 0,1.5644 2,0 0,-1.5664 a 7.5,7.5004602 0 0 0 6.43359,-6.4316 l 1.56641,0 0,-2 -1.56836,0 A 7.5,7.5004602 0 0 0 10,1035.9306 l 0,-1.5684 -2,0 z m 2,2.877 a 6.2053571,6.2057379 0 0 1 5.11719,5.125 l -1.11719,0 0,2 1.125,0 A 6.2053571,6.2057379 0 0 1 10,1049.4813 l 0,-1.1191 -2,0 0,1.127 a 6.2053571,6.2057379 0 0 1 -5.11523,-5.125 l 1.11523,0 0,-2 -1.12305,0 A 6.2053571,6.2057379 0 0 1 8,1037.247 l 0,1.1152 2,0 0,-1.123 z"/>
    </g>
</svg>
