<svg id="Layer_1" data-name="Layer 1" xmlns="http://www.w3.org/2000/svg" viewBox="0 0 233.115 233.032"><defs><style>.cls-1{fill:#fff;}.cls-2{fill:none;stroke:#000;stroke-miterlimit:10;stroke-width:2px;}</style></defs><title>add-tag-property-graph</title><g id="Tag"><path d="M52.615,0h28a53.075,53.075,0,0,1,38.9,16.1q53.1,52.95,106.1,106c10,10,10,21.3,0,31.3q-36.15,36.15-72.3,72.5c-5.7,5.7-12.3,8.7-20.3,6.3a24.3,24.3,0,0,1-9.6-5.8q-54.6-54.15-108.6-108.6C5.015,108,.215,95.8.115,82c-0.2-20.1-.1-40.2,0-60.3C0.015,8.1,8.315,0,21.915,0h30.7Zm-4,68.8a19.755,19.755,0,0,0,20.3-19.2c0.4-10.7-8.3-19.8-19.3-20.2-10.5-.4-19.5,8.2-20.1,19C29.015,59.1,37.715,68.4,48.615,68.8Z"/><path class="cls-1" d="M70.215,124.1v40.3h38.6v17.4h-38.6v40.6h-18.1V181.8h-38.6V164.4h38.6V124.1h18.1Z"/><path class="cls-2" d="M70.215,124.1v40.3h38.6v17.4h-38.6v40.6h-18.1V181.8h-38.6V164.4h38.6V124.1h18.1Z"/></g></svg>