<?xml version="1.0" encoding="utf-8"?>
<!-- Generator: Adobe Illustrator 17.1.0, SVG Export Plug-In . SVG Version: 6.00 Build 0)  -->
<!DOCTYPE svg PUBLIC "-//W3C//DTD SVG 1.1//EN" "http://www.w3.org/Graphics/SVG/1.1/DTD/svg11.dtd">
<svg version="1.1" xmlns="http://www.w3.org/2000/svg" xmlns:xlink="http://www.w3.org/1999/xlink" x="0px" y="0px"
	 viewBox="0 0 243 243" enable-background="new 0 0 243 243" xml:space="preserve">
<g id="Glossary" display="none">
	<path display="inline" d="M208.7,70c6.3,1.5,10.9,9.3,9,16.6c-2.8,10.7-6.1,21.3-9.3,31.9c-7.6,25-15.2,50.1-22.8,75.1
		c-4,13-13,19.8-26.6,19.8c-34.7,0-69.4,0-104.1,0c-15.3,0-29.3-11.7-31.5-26.7c-0.5-3.7,0.7-7.7,0.9-11.5c0.2-3.2-0.1-6.3,0.2-9.5
		c0.2-1.7,0.8-3.6,1.8-4.9c4.7-6.1,7.8-13.1,10.1-20.3c1-3.1,1-6.4,1.6-9.6c0.4-1.8,0.7-3.8,1.7-5.2c4.8-6.6,7.5-14.1,9.6-21.8
		c0.5-1.8,0.5-3.8,0.2-5.6c-0.4-3,0.4-5.4,2.5-7.6c6.4-6.3,8.8-14.6,10.7-23c0.2-0.7,0.3-1.5,0.1-2.1c-1.4-4.3,0.8-7.3,3.2-10.6
		c2.6-3.7,4.3-8.1,6.5-12.1c1.2-2.2,2.3-4.6,4.1-6.2c1.8-1.5,4.3-2.7,6.6-3c4.2-0.5,8.5-0.2,12.7-0.2c28.6,0,57.2,0,85.8,0
		c13.6,0,20.7,9.6,16.8,22.6c-5.2,17.4-10.5,34.8-15.8,52.2c-6,19.7-11.8,39.4-18.1,59c-4.3,13.3-8.5,16.1-22.6,16.1
		c-32.8,0-65.6,0-98.4,0c-1.1,0-2.2-0.1-3.3,0.1c-3.1,0.4-4.6,2.4-3.9,5.4c0.9,3.9,3.3,6.7,7.1,7.9c2.7,0.9,5.6,1.6,8.5,1.6
		c36.4,0.1,72.8,0.1,109.2,0.1c6.2,0,10.3-2.7,12.3-9.2c11.1-37,22.4-74,33.6-111C207.8,75.5,208.1,72.7,208.7,70z"/>
	
		<text transform="matrix(1.2348 0 0 1 71.9354 83.1224)" display="inline" fill="#FFFFFF" font-family="'MyriadPro-BoldIt'" font-size="63.1644">A</text>
	
		<text transform="matrix(1.2348 0 0 1 94.1557 132.1955)" display="inline" fill="#FFFFFF" font-family="'MyriadPro-BoldIt'" font-size="63.1644">B</text>
	
		<text transform="matrix(1.2348 0 0 1 107.4167 175.8392)" display="inline" fill="#FFFFFF" font-family="'MyriadPro-BoldIt'" font-size="63.1644">C</text>
</g>
<g id="Tag_w_x2F__Plus" display="none">
	<path display="inline" d="M58.8,5c9.3,0,18.6,0,28,0c15.2,0,28.2,5.4,38.9,16.1c35.4,35.3,70.7,70.7,106.1,106
		c10,10,10,21.3,0,31.3c-24.1,24.1-48.2,48.3-72.3,72.5c-5.7,5.7-12.3,8.7-20.3,6.3c-3.5-1.1-7-3.2-9.6-5.8
		C93.2,195.3,57.1,159.1,21,122.8c-9.8-9.8-14.6-22-14.7-35.8c-0.2-20.1-0.1-40.2,0-60.3C6.2,13.1,14.5,5,28.1,5
		C38.4,5,48.6,5,58.8,5z M54.8,73.8c10.8,0.4,19.8-8.1,20.3-19.2c0.4-10.7-8.3-19.8-19.3-20.2c-10.5-0.4-19.5,8.2-20.1,19
		C35.2,64.1,43.9,73.4,54.8,73.8z"/>
	<g display="inline">
		<g>
			<g>
				<g>
					<path fill="#FFFFFF" d="M76.4,129.1l0,40.3l38.6,0l0,17.4l-38.6,0l0,40.6l-18.1,0l0-40.6l-38.6,0l0-17.4l38.6,0l0-40.3
						L76.4,129.1z"/>
					<path fill="none" stroke="#FFFFFF" stroke-width="4" stroke-miterlimit="10" d="M76.4,129.1l0,40.3l38.6,0l0,17.4l-38.6,0
						l0,40.6l-18.1,0l0-40.6l-38.6,0l0-17.4l38.6,0l0-40.3L76.4,129.1z"/>
				</g>
			</g>
		</g>
	</g>
	<g display="inline">
		<g>
			<g>
				<g>
					<path fill="#FFFFFF" d="M76.4,129.1l0,40.3l38.6,0l0,17.4l-38.6,0l0,40.6l-18.1,0l0-40.6l-38.6,0l0-17.4l38.6,0l0-40.3
						L76.4,129.1z"/>
					<path fill="none" stroke="#000000" stroke-width="2" stroke-miterlimit="10" d="M76.4,129.1l0,40.3l38.6,0l0,17.4l-38.6,0
						l0,40.6l-18.1,0l0-40.6l-38.6,0l0-17.4l38.6,0l0-40.3L76.4,129.1z"/>
				</g>
			</g>
		</g>
	</g>
</g>
<g id="Tag_w_x2F__Gear">
	<path d="M58.8,5c9.3,0,18.6,0,28,0c15.2,0,28.2,5.4,38.9,16.1c35.4,35.3,70.7,70.7,106.1,106c10,10,10,21.3,0,31.3
		c-24.1,24.1-48.2,48.3-72.3,72.5c-5.7,5.7-12.3,8.7-20.3,6.3c-3.5-1.1-7-3.2-9.6-5.8C93.2,195.3,57.1,159.1,21,122.8
		c-9.8-9.8-14.6-22-14.7-35.8c-0.2-20.1-0.1-40.2,0-60.3C6.2,13.1,14.5,5,28.1,5C38.4,5,48.6,5,58.8,5z M54.8,73.8
		c10.8,0.4,19.8-8.1,20.3-19.2c0.4-10.7-8.3-19.8-19.3-20.2c-10.5-0.4-19.5,8.2-20.1,19C35.2,64.1,43.9,73.4,54.8,73.8z"/>
	<g>
		<path d="M70.5,233.6c-3.9,0-7.9-0.3-11.9-1.1c-2.5-0.5-3.8-1.9-4.1-4.4c-0.4-2.9-0.8-5.7-1.2-8.6c-0.2-1.1-2.1-1.9-3-1.2
			c-2.2,1.7-4.4,3.4-6.6,5.1c-2.4,1.8-4,1.8-6.5,0.1c-6.5-4.5-12-10.1-16.5-16.6c-1.5-2.2-1.5-4,0.2-6.2c1.7-2.2,3.3-4.3,5-6.5
			c0.9-1.2,0.2-3.1-1.3-3.3c-2.9-0.4-5.7-0.7-8.6-1.2c-2.4-0.3-3.7-1.7-4.1-4.1c-1.3-6.9-1.3-13.9-0.5-20.9c0.1-1.2,0.4-2.3,0.7-3.5
			c0.5-2,2-3.3,4-3.5c3-0.4,5.9-0.8,8.9-1.2c0.3-0.1,0.7-0.4,0.9-0.7c0.8-1.1,0.5-2-0.3-3c-1.7-1.9-3.1-4-4.7-6
			c-1.6-2.2-1.7-3.9-0.1-6.1c4.6-6.6,10.2-12.2,16.8-16.8c2.1-1.4,3.9-1.4,5.9,0.1c2.3,1.7,4.6,3.5,6.8,5.2c1,0.8,2.9,0.1,3.1-1.2
			c0.4-2.8,0.8-5.7,1.2-8.5c0.3-2.5,1.6-3.9,4-4.3c2.9-0.4,5.8-0.9,8.7-1c5-0.2,10.1,0,15,1c2.8,0.6,4,1.8,4.4,4.6
			c0.4,2.7,0.7,5.5,1.1,8.2c0.2,1.4,2,2.1,3.1,1.3c2.1-1.6,4.2-3.2,6.3-4.9c2.6-2,4.1-2,6.8-0.2c6.5,4.6,12,10.1,16.5,16.7
			c1.4,2,1.3,3.9-0.2,5.9c-1.7,2.2-3.4,4.4-5.1,6.6c-0.9,1.2-0.2,3,1.3,3.3c2.8,0.4,5.6,0.7,8.4,1.1c2.4,0.3,3.8,1.6,4.2,4
			c1.3,6.4,1.3,12.8,0.7,19.2c-0.1,1.4-0.3,2.8-0.6,4.2c-0.6,3.2-1.8,4.3-5,4.7c-2.6,0.3-5.3,0.7-7.9,1c-1.2,0.2-2,2.1-1.3,3.1
			c1.7,2.2,3.4,4.4,5.1,6.6c1.8,2.3,1.8,4,0.1,6.4c-4.5,6.5-10.1,12-16.6,16.5c-2.3,1.6-4,1.5-6.2-0.2c-2.2-1.7-4.5-3.4-6.7-5.1
			c-0.9-0.7-1.6,0-2.3,0.2c-0.6,0.2-0.7,0.6-0.8,1.2c-0.4,2.9-0.7,5.8-1.2,8.7c-0.3,2.3-1.7,3.6-4,4.1
			C78.7,233.3,74.7,233.6,70.5,233.6z M100.8,214.8c3.9-3,7.2-6.4,10.3-10.2c0.4-0.5,0.2-0.7-0.1-1.1c-1.7-2.2-3.3-4.4-5-6.5
			c-1.2-1.6-1.5-3.2-0.6-5c0.9-2,1.8-4.1,2.6-6.2c0.8-2,2.2-3,4.3-3.2c2.6-0.3,5.2-0.7,7.8-1c0.6-0.1,0.8-0.3,0.9-0.9
			c0.5-4.6,0.5-9.1,0-13.7c-0.1-0.5-0.3-0.7-0.8-0.8c-2.8-0.3-5.5-0.7-8.3-1c-1.9-0.2-3.2-1.2-4-3.1c-0.8-2.1-1.7-4.2-2.6-6.2
			c-0.8-1.9-0.6-3.5,0.7-5.1c0.8-1,1.6-2,2.3-3c1-1.3,2.1-2.7,3.1-4c-3.2-4-6.7-7.6-10.7-10.7c-0.1,0.1-0.3,0.2-0.4,0.3
			c-2.3,1.8-4.6,3.6-7,5.3c-1.3,1-2.8,1.3-4.4,0.6c-2.3-0.9-4.5-1.9-6.8-2.8c-1.6-0.7-2.6-1.8-2.9-3.6c-0.2-1.1-0.3-2.3-0.5-3.4
			c-0.3-1.9-0.5-3.8-0.8-5.9c-1.9-0.1-3.7-0.3-5.6-0.3c-2.9,0-5.7,0.1-8.6,0.2c-0.5,0-1,0.2-1,0.9c-0.3,2.4-0.7,4.8-0.9,7.2
			c-0.2,2.7-1.4,4.4-4.1,5.3c-1.9,0.6-3.8,1.5-5.6,2.3c-1.6,0.7-3.1,0.5-4.5-0.5c-0.3-0.2-0.6-0.5-1-0.7c-2.2-1.7-4.3-3.3-6.5-5
			c-4,3.2-7.6,6.7-10.7,10.7c0.2,0.3,0.5,0.6,0.7,0.9c1.7,2.2,3.4,4.4,5.1,6.6c0.9,1.2,1.2,2.5,0.6,3.9c-1,2.5-2.1,5-3.1,7.4
			c-0.6,1.4-1.6,2.2-3.1,2.4c-2.9,0.4-5.8,0.8-8.7,1.2c-0.6,0.1-0.9,0.3-0.9,0.9c0,1-0.1,1.9-0.2,2.9c-0.3,3.5-0.2,7,0.1,10.5
			c0.1,0.7,0.2,1.1,1.1,1.1c2.6,0.3,5.2,0.7,7.7,1c2.1,0.3,3.5,1.3,4.3,3.3c0.8,2.1,1.6,4.1,2.5,6.2c0.8,1.7,0.6,3.3-0.5,4.7
			c-0.6,0.8-1.2,1.5-1.7,2.3c-1.3,1.7-2.6,3.4-3.9,5.1c3.2,4,6.7,7.5,10.7,10.7c0.2-0.2,0.4-0.3,0.6-0.4c2.2-1.7,4.5-3.4,6.7-5.1
			c1.5-1.1,3-1.4,4.8-0.6c2.1,0.9,4.2,1.8,6.3,2.6c1.7,0.7,2.8,1.9,3.1,3.7c0.4,2.8,0.7,5.6,1.1,8.3c0.1,0.6,0.3,0.9,1,0.9
			c4.5,0.4,9,0.4,13.4,0c0.6-0.1,0.9-0.2,0.9-0.9c0.3-2.6,0.7-5.3,1-7.9c0.3-2.1,1.2-3.5,3.3-4.3c1.9-0.7,3.8-1.4,5.6-2.3
			c2.2-1.1,4.1-0.8,6,0.8C96.3,211.5,98.5,213.1,100.8,214.8z"/>
		<path fill="#FFFFFF" d="M100.8,214.8c-2.3-1.7-4.5-3.4-6.6-5.1c-1.9-1.5-3.8-1.9-6-0.8c-1.8,0.9-3.7,1.6-5.6,2.3
			c-2,0.8-3,2.2-3.3,4.3c-0.3,2.6-0.7,5.3-1,7.9c-0.1,0.7-0.4,0.8-0.9,0.9c-4.5,0.4-9,0.4-13.4,0c-0.6-0.1-0.9-0.3-1-0.9
			c-0.3-2.8-0.7-5.6-1.1-8.3c-0.3-1.9-1.3-3.1-3.1-3.7c-2.1-0.8-4.2-1.7-6.3-2.6c-1.7-0.8-3.3-0.5-4.8,0.6c-2.2,1.7-4.5,3.4-6.7,5.1
			c-0.2,0.1-0.4,0.3-0.6,0.4c-4-3.1-7.5-6.6-10.7-10.7c1.3-1.7,2.6-3.4,3.9-5.1c0.6-0.8,1.2-1.5,1.7-2.3c1.1-1.5,1.2-3,0.5-4.7
			c-0.9-2-1.7-4.1-2.5-6.2c-0.8-2-2.2-3-4.3-3.3c-2.6-0.3-5.2-0.7-7.7-1c-0.8-0.1-1-0.5-1.1-1.1c-0.4-3.5-0.4-7-0.1-10.5
			c0.1-1,0.2-1.9,0.2-2.9c0-0.6,0.3-0.8,0.9-0.9c2.9-0.4,5.8-0.7,8.7-1.2c1.5-0.2,2.5-1,3.1-2.4c1-2.5,2.1-4.9,3.1-7.4
			c0.6-1.4,0.3-2.8-0.6-3.9c-1.7-2.2-3.4-4.4-5.1-6.6c-0.2-0.3-0.4-0.6-0.7-0.9c3.1-4,6.7-7.5,10.7-10.7c2.2,1.7,4.3,3.3,6.5,5
			c0.3,0.2,0.6,0.5,1,0.7c1.4,1,2.9,1.2,4.5,0.5c1.9-0.8,3.7-1.7,5.6-2.3c2.7-0.8,3.9-2.6,4.1-5.3c0.2-2.4,0.6-4.8,0.9-7.2
			c0.1-0.7,0.5-0.9,1-0.9c2.9-0.1,5.7-0.2,8.6-0.2c1.8,0,3.7,0.2,5.6,0.3c0.3,2,0.5,4,0.8,5.9c0.2,1.1,0.3,2.3,0.5,3.4
			c0.2,1.8,1.2,2.9,2.9,3.6c2.3,0.9,4.5,1.9,6.8,2.8c1.6,0.7,3.1,0.4,4.4-0.6c2.3-1.8,4.6-3.5,7-5.3c0.1-0.1,0.2-0.2,0.4-0.3
			c4,3.1,7.5,6.6,10.7,10.7c-1,1.3-2.1,2.7-3.1,4c-0.8,1-1.5,2-2.3,3c-1.3,1.6-1.5,3.2-0.7,5.1c0.9,2.1,1.8,4.1,2.6,6.2
			c0.7,1.8,2,2.8,4,3.1c2.8,0.4,5.5,0.7,8.3,1c0.5,0.1,0.7,0.3,0.8,0.8c0.5,4.6,0.5,9.1,0,13.7c-0.1,0.5-0.3,0.8-0.9,0.9
			c-2.6,0.3-5.2,0.7-7.8,1c-2.1,0.2-3.6,1.2-4.3,3.2c-0.8,2.1-1.6,4.1-2.6,6.2c-0.8,1.8-0.6,3.5,0.6,5c1.7,2.2,3.4,4.4,5,6.5
			c0.3,0.4,0.4,0.6,0.1,1.1C108,208.4,104.7,211.8,100.8,214.8z M42.1,173.2c-0.4,14.8,11,28.3,27,29.2
			c15.7,0.9,29.1-11.2,29.9-26.9c0.9-15.6-11.2-29.4-27.5-30C56.4,144.9,42.7,156.8,42.1,173.2z"/>
		<path d="M42.1,173.2c0.6-16.4,14.3-28.2,29.4-27.7c16.3,0.6,28.4,14.4,27.5,30c-0.9,15.7-14.2,27.8-29.9,26.9
			C53.1,201.5,41.7,188,42.1,173.2z M70.6,193.5c10.7,0.1,19.5-8.6,19.6-19.5c0-11-8.8-19.6-19.5-19.6c-10.6,0-19.5,8.7-19.5,19.3
			C51,184.7,59.7,193.4,70.6,193.5z"/>
		<path fill="#FFFFFF" d="M70.6,193.5c-10.9-0.1-19.6-8.8-19.5-19.8c0.1-10.6,8.9-19.3,19.5-19.3c10.7,0,19.5,8.6,19.5,19.6
			C90.1,184.9,81.3,193.6,70.6,193.5z"/>
	</g>
</g>
</svg>
