<?xml version="1.0" encoding="utf-8"?>
<!-- Generator: Adobe Illustrator 21.0.2, SVG Export Plug-In . SVG Version: 6.00 Build 0)  -->
<svg version="1.1" id="Layer_1" xmlns="http://www.w3.org/2000/svg" xmlns:xlink="http://www.w3.org/1999/xlink" x="0px" y="0px"
	 viewBox="0 0 99.9 99.1" style="enable-background:new 0 0 99.9 99.1;" xml:space="preserve">
<path d="M99.9,68v21.8l0,0v3.1c0,3.4-2.8,6.2-6.2,6.2H6.2c-3.4,0-6.2-2.8-6.2-6.2v-25c0-3.4,2.8-6.2,6.2-6.2h6
	c0.2,0,0.4,0.1,0.6,0.2l5.9,4.7c0.5,0.5,0.1,1.3-0.6,1.3H8.6c-1.3,0-2.3,1.1-2.3,2.3v20.4c0,1.3,1.1,2.3,2.3,2.3h82.8
	c1.3,0,2.3-1.1,2.3-2.3V70.3c0-1.3-1.1-2.3-2.3-2.3h-9.5c-0.7,0-1-0.8-0.6-1.3l5.9-4.7c0.1-0.1,0.3-0.2,0.6-0.2h6
	C97.1,61.7,99.9,64.5,99.9,68z M49.9,85.5c0.8,0,1.5-0.3,2.1-0.9l24-24c0.6-0.6,0.9-1.3,0.9-2.1c0-1.6-1.4-3-3-3h-12v-12
	c0-15.4-2.7-34.5-18.9-41C38,0.5,32.6,0,27.4,0C20.8,0,12.3,3.3,6.3,6C5.2,6.5,3.7,7,2.7,7.7C2.2,8,1.9,8.4,1.9,9
	c0,0.9,0.8,1.5,1.6,1.5s1.6-0.2,2.3-0.2c1.9-0.1,3.8-0.2,5.8-0.2c22.4,0,26.2,13.3,26.2,33.5v12h-12c-1.6,0-3,1.4-3,3
	c0,0.8,0.3,1.5,0.9,2.1l24,24C48.4,85.1,49.1,85.5,49.9,85.5z"/>
</svg>
