<svg id="Layer_1" data-name="Layer 1" xmlns="http://www.w3.org/2000/svg" viewBox="0 0 86 100"><defs><style>.cls-1{fill:none;}</style></defs><title>nested-list</title><path class="cls-1" d="M94.29,36.4L76.92,19.54c-0.39-.39-1.92-0.9-1.92-1.23V38H95.33C95,38,94.68,36.79,94.29,36.4Z" transform="translate(-17 -10)"/><path class="cls-1" d="M67,41.19V17H24v86H96V45H72.45C69.48,45,67,44.17,67,41.19ZM79.84,66.61A8,8,0,0,1,64.26,67H49V82H76.26A8,8,0,0,1,84,76a8.08,8.08,0,0,1,7.06,11.93,6.83,6.83,0,0,1-3.19,3.16A8.08,8.08,0,0,1,76.26,86H45.72A0.72,0.72,0,0,1,45,85.28V67H37l-3.34,0A0.66,0.66,0,0,1,33,66.31V56.74h0a8,8,0,1,1,4,0h0V63H64.26A8,8,0,0,1,79.84,66.61Z" transform="translate(-17 -10)"/><path d="M99.17,32L81.66,14.15C79.58,12.08,75.42,10,72.45,10H22.2c-3,0-5.2,3.09-5.2,6.06v89.74c0,3,2.22,4.19,5.2,4.19H97.58c3,0,5.42-1.22,5.42-4.19V41.19A15.07,15.07,0,0,0,99.17,32ZM75,18.31c0,0.34,1.53.84,1.92,1.23L94.29,36.4c0.39,0.39.71,1.6,1,1.6H75V18.31ZM96,103H24V17H67V41.19c0,3,2.48,3.81,5.45,3.81H96v58Z" transform="translate(-17 -10)"/><path d="M84,76a8,8,0,0,0-7.74,6H49V67H64.26a8,8,0,1,0,0-4H37V56.74h0a8,8,0,1,0-4,0h0v9.57a0.66,0.66,0,0,0,.66.66L37,67h8V85.28a0.72,0.72,0,0,0,.72.72H76.26a8.08,8.08,0,0,0,11.61,5.09,6.83,6.83,0,0,0,3.19-3.16A8.08,8.08,0,0,0,84,76Z" transform="translate(-17 -10)"/></svg>