<?xml version="1.0" encoding="utf-8"?>
<!-- Generator: Adobe Illustrator 21.0.2, SVG Export Plug-In . SVG Version: 6.00 Build 0)  -->
<svg version="1.1"
	 id="Layer_1" xmlns:cc="http://creativecommons.org/ns#" xmlns:dc="http://purl.org/dc/elements/1.1/" xmlns:inkscape="http://www.inkscape.org/namespaces/inkscape" xmlns:rdf="http://www.w3.org/1999/02/22-rdf-syntax-ns#" xmlns:sodipodi="http://sodipodi.sourceforge.net/DTD/sodipodi-0.dtd" xmlns:svg="http://www.w3.org/2000/svg"
	 xmlns="http://www.w3.org/2000/svg" xmlns:xlink="http://www.w3.org/1999/xlink" x="0px" y="0px" viewBox="0 0 70 88"
	 style="enable-background:new 0 0 70 88;" xml:space="preserve">
<g transform="translate(0,-952.36218)">
	<path d="M5.2,952.4c-2.9,0-5.2,2.4-5.2,5.2v61.5c0,2.9,2.3,5.2,5.2,5.2h25.2c1.9,9.1,9.9,16,19.6,16c11,0,20-9,20-20
		c0-10.3-7.9-18.9-18-19.9v-31.5c0-0.5-0.2-1-0.6-1.4L37,953c-0.4-0.4-0.9-0.6-1.4-0.6H5.2z M5.2,956.4H32v14c0,1.1,0.9,2,2,2h14
		v28.1c-10.1,1-18,9.6-18,19.9H5.2c-0.7,0-1.2-0.5-1.2-1.2v-61.5C4,956.8,4.5,956.4,5.2,956.4z M36,957.6l10.6,10.8H36V957.6z
		 M50,1004.4c8.9,0,16,7.1,16,16c0,8.9-7.1,16-16,16s-16-7.1-16-16C34,1011.5,41.1,1004.4,50,1004.4z M49.8,1011.3
		c-1,0.1-1.8,1-1.8,2v5h-5c-0.1,0-0.1,0-0.2,0c-1.1,0.1-2,1-1.9,2.1c0.1,1.1,1,2,2.1,1.9c0,0,0,0,0,0h5v5c0,1.1,0.9,2,2,2
		c1.1,0,2-0.9,2-2c0,0,0,0,0-0.1v-5h5c1.1,0,2-0.9,2-2c0-1.1-0.9-2-2-2c0,0,0,0-0.1,0h-5v-5c0-1.1-0.9-2-2-2
		C50,1011.3,49.9,1011.3,49.8,1011.3z"/>
</g>
</svg>
