<?xml version="1.0" encoding="utf-8"?>
<!-- Generator: Adobe Illustrator 19.2.1, SVG Export Plug-In . SVG Version: 6.00 Build 0)  -->
<svg version="1.1" id="Layer_1" xmlns="http://www.w3.org/2000/svg" xmlns:xlink="http://www.w3.org/1999/xlink" x="0px" y="0px"
	 viewBox="0 0 120 120" style="enable-background:new 0 0 120 120;" xml:space="preserve">
<path d="M98.6,116.1L86.8,76.3C86.5,65.7,80,56.5,70.8,52.6V14.7c0-5.9-4.8-10.8-10.8-10.8c-5.9,0-10.8,4.8-10.8,10.8v37.9
	C40,56.7,33.5,65.7,33.2,76.3l-11.8,39.9H98.6L98.6,116.1z M80.6,107.7l-4.8-18c-0.4-1.5-2-2.4-3.4-2c-1.5,0.4-2.4,2-2,3.4l4.5,16.6
	H63.1V90.4c0-1.5-1.3-2.8-2.8-2.8c-1.5,0-2.8,1.3-2.8,2.8v17.3H47l4.5-16.6c0.4-1.5-0.4-3.1-2-3.4c-1.5-0.4-3.1,0.4-3.4,2l-4.8,18
	h-8.7l7.9-26.3l0,0h38.7l0,0l7.9,26.5L80.6,107.7L80.6,107.7L80.6,107.7z M57.6,14.7c0-1.3,1-2.4,2.4-2.4c1.3,0,2.4,1,2.4,2.4v35.6
	c-0.8,0-1.5-0.1-2.4-0.1s-1.5,0-2.4,0.1V14.7z M60,58.8c8.6,0,15.9,6.1,17.8,14.1H42.1C44.1,64.7,51.4,58.8,60,58.8z"/>
</svg>
