<?xml version="1.0" encoding="utf-8"?>
<!-- Generator: Adobe Illustrator 22.0.1, SVG Export Plug-In . SVG Version: 6.00 Build 0)  -->
<svg version="1.1" id="Layer_1" xmlns="http://www.w3.org/2000/svg" xmlns:xlink="http://www.w3.org/1999/xlink" x="0px" y="0px"
	 viewBox="0 0 90 90.2" style="enable-background:new 0 0 90 90.2;" xml:space="preserve">
<path d="M59.6,25.9h-6.8l-2.4-2.7h9.2L59.6,25.9L59.6,25.9z M74.8,31H59.4v2.7h15.5L74.8,31L74.8,31z M74.8,38.8H59.4v2.7h15.5
	L74.8,38.8L74.8,38.8z M74.8,46.6H59.4v2.7h15.5L74.8,46.6L74.8,46.6z M30.9,34.2H15.1v2.7h15.7L30.9,34.2L30.9,34.2z M46.1,42h-31
	v2.7h31L46.1,42L46.1,42z M46.1,49.8h-31v2.7h31L46.1,49.8L46.1,49.8z M42.3,57.6H15.1v2.7h23.3L42.3,57.6z M44.2,23.9v10.2h9.6
	v-0.3L44.2,23.9z M53.8,49.7V36.9H41.4V23.4H7.6v54.4h38.3l0,2.7h-41V20.7h40.1l11.7,12v14.7L53.8,49.7z M33.1,18v-8h40.7l11.3,11.6
	V70h-18l-3.9-3h18.9V26h-12V13h-34v5H33.1z M73.1,12.8v10.2h9.6v-0.3L73.1,12.8z M54.7,52.4l-12.4,8.5l12.4,8.5v-5.7h9.7v-6.1h-9.7
	V52.4 M58.3,67v5.7h-9.7v6.1h9.7v5.2l12.4-8.5L58.3,67"/>
</svg>
