<svg id="Layer_1" data-name="Layer 1" xmlns="http://www.w3.org/2000/svg" viewBox="0 0 120 120"><title>icon</title><path d="M99.17,33L81.66,15.15C79.58,13.08,75.42,11,72.45,11H22.2c-3,0-5.2,3.09-5.2,6.06v89.74c0,3,2.22,4.19,5.2,4.19H97.58c3,0,5.42-1.22,5.42-4.19V42.19A15.07,15.07,0,0,0,99.17,33ZM75,19.31c0,0.34,1.53.84,1.92,1.23L94.29,37.4c0.39,0.39.71,1.6,1,1.6H75V19.31ZM96,104H24V18H67V42.19c0,3,2.48,3.81,5.45,3.81H96v58Z"/><path d="M69.11,70.59l-12,10.76L47.8,70.77a1,1,0,0,0-1.39-.09L34,81.34V99H86V68.24c0-.9-0.75-1.33-1.37-0.68l-7.54,8.14-6.8-5.16A0.88,0.88,0,0,0,69.11,70.59Z"/><rect x="34" y="31" width="22" height="3" rx="1" ry="1"/><rect x="34" y="38" width="22" height="3" rx="1" ry="1"/><rect x="34" y="45" width="22" height="3" rx="1" ry="1"/><rect x="34" y="52" width="52" height="3" rx="1" ry="1"/><rect x="34" y="59" width="52" height="3" rx="1" ry="1"/></svg>