<?xml version="1.0" encoding="utf-8"?>
<!-- Generator: Adobe Illustrator 20.0.0, SVG Export Plug-In . SVG Version: 6.00 Build 0)  -->
<svg version="1.1" id="Layer_1" xmlns="http://www.w3.org/2000/svg" xmlns:xlink="http://www.w3.org/1999/xlink" x="0px" y="0px"
	 viewBox="0 0 91.2 92.4" style="enable-background:new 0 0 91.2 92.4;" xml:space="preserve">
<title>crosswalk</title>
<path d="M46.4,59l-9.6,13.7c-1.2,1.7-3.5,2.2-5.3,1c-1.7-1.2-2.1-3.4-1-5.2L39,54.8l0.1-3.2c0-1.4,0.1-2.7,0.2-4.1
	c0-0.1,0-0.2,0-0.2l6.8,11L46.4,59z M53.6,36.2l2.8,4.2c1,1.5,3.1,2,4.6,1s2-3.1,1-4.6L55,26.2C54.3,29.5,53.8,32.9,53.6,36.2
	L53.6,36.2z M63.7,69.2l-5.6-16.3c-0.1-0.2-0.1-0.4-0.2-0.5l-0.1-0.3L50,38.7c0-0.4,0-0.8,0-1.2c0-0.8,0.1-1.7,0.2-2.5
	c0.2-1.7,0.4-3.4,0.6-5.1s0.6-3.4,0.9-5.1c0.2-0.8,0.4-1.6,0.6-2.4l0.2-0.6l0.1-0.5c0.1-0.2,0.3-0.7,0.4-1.2l0-0.1l0,0
	c1-2.7-0.4-5.6-3-6.6c-2.3-0.8-4.8,0-6.1,2.1l-8.5,9.2c-0.3,0.3-0.5,0.7-0.7,1.1l-4,11.2c-0.6,1.7,0.3,3.6,2,4.3
	c1.7,0.6,3.6-0.3,4.3-2l3.4-9.6c-0.2,1.4-0.4,2.8-0.5,4.3c-0.1,1-0.2,2-0.2,3c0,1-0.1,2,0,3.1l0,0l0,0.3c0,0.8,0.3,1.6,0.8,2.3
	l9.3,13.9L56.1,72c0.8,2.1,3.2,3.1,5.3,2.2C63.4,73.5,64.4,71.2,63.7,69.2L63.7,69.2z M48,0.4c-3.1,1.1-4.6,4.5-3.5,7.6
	s4.5,4.6,7.6,3.5s4.6-4.5,3.5-7.6c0,0,0,0,0,0C54.5,0.8,51.1-0.8,48,0.4C48,0.4,48,0.4,48,0.4z M9.5,77.2H0v15.3h9.5V77.2z
	 M29.9,77.2h-9.5v15.3h9.5L29.9,77.2z M50.3,77.2h-9.5v15.3h9.5L50.3,77.2z M70.7,77.2h-9.5v15.3h9.5L70.7,77.2z M91.1,77.2h-9.5
	v15.3h9.5L91.1,77.2z"/>
</svg>
