<svg id="Layer_1" data-name="Layer 1" xmlns="http://www.w3.org/2000/svg" viewBox="0 0 79.739 90.001"><title>default-namespace-icon</title><path d="M39.87,10.528a23.369,23.369,0,1,0,16.521,6.845A23.211,23.211,0,0,0,39.87,10.528Zm15.809,12.8a2.915,2.915,0,0,1,.327,1.8,6.98,6.98,0,0,0,.127,2.031c0.216,0.632.853,0.916,1.112,1.544,0.206,0.5.238,1.147,0.393,1.63a3.343,3.343,0,0,0,1.42,1.63,3.277,3.277,0,0,0,1.509.981c0.558,0,.764-1.071.764-1.071l0.006,0c0.063,0.667.1,1.34,0.1,2.022A21.568,21.568,0,1,1,24.683,18.6a1.518,1.518,0,0,1,.208,1.062c-0.108.23-.633,0.407-0.77,0.634a2.129,2.129,0,0,0-.15.672c-0.112.528-.156,1.141-0.245,1.685a5.419,5.419,0,0,1-.771,1.381c-0.125.237-.307,0.42-0.415,0.662a2.024,2.024,0,0,0-.128.732,4.136,4.136,0,0,0-.03,1.611,11.354,11.354,0,0,1,.573,1.649,7.959,7.959,0,0,0,.267,1.533,3.518,3.518,0,0,0,.827,1.358c0.214,0.182.464,0.264,0.673,0.457a1.529,1.529,0,0,0,.313.25c0.1,0.046.232,0.011,0.317,0.052,0.535,0.255.217,1.041,0.347,1.483a3.2,3.2,0,0,0,1.132,1.172,2.644,2.644,0,0,0,1.08.292,1.8,1.8,0,0,0,1.558.377,0.729,0.729,0,0,1,1.074.147,1.416,1.416,0,0,0,1.163.6,2.038,2.038,0,0,1,1.417.805,5.548,5.548,0,0,0,1.212.945,3.006,3.006,0,0,0,.883.294,4.678,4.678,0,0,1,.472.341,0.734,0.734,0,0,0,.686.043A2.279,2.279,0,0,1,36.4,38.5c0.215-.085.157,0.089,0.284,0.091a1.265,1.265,0,0,0,.5-0.145,1.8,1.8,0,0,1,.294.377c0.044,0.172.059,0.356,0.1,0.527a1.04,1.04,0,0,1,.1.429c-0.033.306-.131,0.225-0.322,0.373a3.923,3.923,0,0,0-.5.977,1.314,1.314,0,0,0-.356.8,1.579,1.579,0,0,0,0,.49,3.517,3.517,0,0,0,.3.371,3.539,3.539,0,0,1,.1.953,1.282,1.282,0,0,0,.478.826,10.905,10.905,0,0,0,.954.6,1.568,1.568,0,0,1,.618.8,1.036,1.036,0,0,0,.771.761c0.79,0.295,1.937.14,2.654,0.574a0.991,0.991,0,0,1,.6,1.023,5.748,5.748,0,0,1-.179,1.051c-0.1.748-.661,1.548-0.257,2.277a3.242,3.242,0,0,1,.654,1.224s-0.018,1.217.678,1.366,1.241-1.126,1.241-1.126l0.066-.065a8.194,8.194,0,0,1,1.549-1.069A7.224,7.224,0,0,0,47.4,51.4a0.638,0.638,0,0,0,.423-0.668c0-.462.1-0.478,0.494-0.6a0.746,0.746,0,0,0,.646-0.494,4.289,4.289,0,0,1,.178-0.96c0.249-.434.447-0.249,0.833-0.132a0.962,0.962,0,0,0,.972-0.628,1.58,1.58,0,0,1,.223-0.89A16.421,16.421,0,0,1,52.825,45.9a2.649,2.649,0,0,0,.628-0.735c0.069-.145.062-0.341,0.133-0.489s0.243-.284.3-0.438c0.208-.563-0.148-1.535-0.015-2.1a5.253,5.253,0,0,1,.88-1.06c0.177-.272.194-0.583,0.371-0.854,0.334-.512.745-1.311-0.039-1.671a4.335,4.335,0,0,0-2.12-.348,6.831,6.831,0,0,1-.93.025c-0.318-.015-0.594-0.14-0.918-0.158a2.211,2.211,0,0,1-.571.09,0.618,0.618,0,0,1-.2-0.484,0.854,0.854,0,0,0-.854-0.366,0.841,0.841,0,0,1-.516-0.286c-0.242-.348.027-0.431-0.378-0.509-0.138-.026-0.305.04-0.438,0a2.276,2.276,0,0,0-.785-0.334,1.725,1.725,0,0,0-.532.1,3.769,3.769,0,0,1-.462.356,1.382,1.382,0,0,1-.828-0.72,1.694,1.694,0,0,0-.793-0.5c-0.344-.063-0.723.09-1.064,0.041a2.649,2.649,0,0,0-.966.125,5.141,5.141,0,0,1-.927.154A2.305,2.305,0,0,1,40.68,35.5a1.523,1.523,0,0,0-1.077.092,1.762,1.762,0,0,0-.649.063,2.124,2.124,0,0,0-.293.459c-0.207.224-.356-0.045-0.461,0.28a2.535,2.535,0,0,1-.843,1.1,0.717,0.717,0,0,0-.064.072,5.266,5.266,0,0,1-1.111.361,1.921,1.921,0,0,1-1.058-.257c-0.659-.438-0.216-1.463-0.686-2a1.978,1.978,0,0,0-1.165-.342c-0.352.092-1,.875-0.979,0,0-.169.164-0.394,0.2-0.625,0.03-.206-0.031-0.425,0-0.629,0.072-.491.447-0.883-0.086-1.073a1.085,1.085,0,0,0-1.181.437c-0.226.464,0.2,0.874-.4,1.073a2.386,2.386,0,0,1-2.122-1.1c0.006-.556.135-1.533,0.157-1.695a3.377,3.377,0,0,1,.03-1.019,1.769,1.769,0,0,1,.984-1.031c0.531-.1,1,0.436,1.56.271,0.675-.2.056-0.413,0.448-0.769a1.076,1.076,0,0,1,.957.2c0.548,0.169,1.58,1.319,2.153.883,0.338-.256-0.327-1.086-0.314-1.482,0.028-.853.4-0.522,0.88-0.99a2.9,2.9,0,0,0,.383-1.158c0.121-.454.234-0.96,0.357-1.456a1.622,1.622,0,0,1,.765-0.845,1.506,1.506,0,0,0,.483-0.536c0.054-.206-0.1-0.423-0.068-0.638a0.986,0.986,0,0,1,.508-0.58,2.87,2.87,0,0,1,.9-0.488,0.688,0.688,0,0,0-.176.922c0.334,0.252.271-.265,0.444-0.555a2.389,2.389,0,0,1,.421-0.59,1.516,1.516,0,0,1,.677-0.219c0.219-.053.508-0.258,0.274-0.487s-0.521.1-.739,0.194a1.033,1.033,0,0,1-.7.1c-0.348-.085-0.1-0.285-0.309-0.5a0.872,0.872,0,0,1-.3-0.25,0.528,0.528,0,0,1,.019-0.427,1.454,1.454,0,0,1,.932-0.108,0.508,0.508,0,0,0,.607-0.367c0.1-.3.411-0.456,0.37,0a1.243,1.243,0,0,0,.092.81,0.734,0.734,0,0,0,.694.219c0.247,0,.5.006,0.741,0,0.309,0,.514-0.091.369-0.466-0.226-.582-0.974-0.255-1.39-0.493-0.472-.269-0.2-0.9-0.606-1.213-0.449-.347-1.086-0.217-1.519-0.547a0.715,0.715,0,0,0-.675-0.237c-0.268.047-.532,0.19-0.81,0.219-0.359.037-.731-0.038-1.089,0a1.717,1.717,0,0,0-.976.275c-0.181.274,0.133,0.455-.286,0.579a0.73,0.73,0,0,0-.562.465,0.971,0.971,0,0,0,.215.741c0.15,0.214.485,0.5-.011,0.4a0.5,0.5,0,0,1-.5-0.218,3.319,3.319,0,0,1-.1-0.7c-0.127-.527-1.056-0.1-1.45-0.279-0.177-.081-0.327-0.317-0.518-0.414a1.3,1.3,0,0,0-.658-0.168,0.335,0.335,0,0,1,.093-0.24,0.994,0.994,0,0,0,.289-0.261c0.04-.1-0.008-0.234.034-0.347a1.457,1.457,0,0,1,.645-0.561,6.846,6.846,0,0,1,.626-0.366c0.126-.068.321-0.095,0.429-0.165a3.279,3.279,0,0,0,.269-0.316,1.227,1.227,0,0,1,1.41.043,5.478,5.478,0,0,0,.677.417,3.463,3.463,0,0,0,.761.1,0.822,0.822,0,0,0,.729-1.023,1.656,1.656,0,0,0-1.054-1.1,3.528,3.528,0,0,0-1.527-.461,1.33,1.33,0,0,0-1.389.565,1.084,1.084,0,0,1-.1.627,0.983,0.983,0,0,1-.7-0.193,1.3,1.3,0,0,0-.688-0.323c-0.278-.016-0.574-0.031-0.86-0.019a1.166,1.166,0,0,0-.746.242,2.868,2.868,0,0,1-.529.587,4.172,4.172,0,0,1-1.438.02,1.555,1.555,0,0,0-.034-0.237,21.343,21.343,0,0,1,18.549-2.247,6.573,6.573,0,0,1-.855.031C45.389,13.5,44.9,13.19,44.33,13.138a1.975,1.975,0,0,0-1.275.4,3.933,3.933,0,0,1-3.151-.551c-0.769-.4-2.38-0.644-2.764.44l-0.856.478a0.6,0.6,0,0,0,.244,1c1.129,0.293,2.006-.409,2.674.824,0.32,0.591,2.1,1.911,2.8,1.212,0.34-.338-0.055-0.818-0.106-1.215a1.565,1.565,0,0,1,.573-1.3c0.794-.729,2.053-0.46,3.054-0.412,1.063,0.051,1.761.759,2.795,0.806a1.66,1.66,0,0,1,.791.1c0.236,0.25-.019.353-0.17,0.615-0.378.66,0.039,0.6,0.637,0.672,0.642,0.082.7,0.051,0.866,0.673,0.113,0.419-.023.334,0.411,0.444a3.265,3.265,0,0,1,.779.18,4.67,4.67,0,0,1,.924.821c0.171,0.164.146-.019,0.237,0.282a3.631,3.631,0,0,1,0,.59,1.75,1.75,0,0,0,1.635,1.429c0.993-.218-0.231-1.3-0.38-1.775a4.152,4.152,0,0,0-.052-0.532,3,3,0,0,0-.437-0.247,0.6,0.6,0,0,1,.021-0.824A21.707,21.707,0,0,1,57.35,21.3a4.919,4.919,0,0,0-.507-0.243,3.129,3.129,0,0,1-.949-0.506,1.328,1.328,0,0,0-.589-0.627,7.86,7.86,0,0,1-.326,1.89C54.841,22.59,55.31,22.834,55.679,23.326Zm-23.228.017a0.7,0.7,0,0,1,.234.394c-0.2.485-.58-0.068-0.582-0.35a7.713,7.713,0,0,0,.145-0.9V22.436a0.276,0.276,0,0,1,.384-0.039c0.273,0.223-.041.246-0.1,0.425A0.627,0.627,0,0,0,32.451,23.343ZM31.82,21.772l-0.541.289c-0.235.021-.617,0.09-0.558-0.232,0.247-.119.49-0.244,0.74-0.354,0.158-.069.417-0.343,0.562-0.379a1.926,1.926,0,0,1,.857.384,1.379,1.379,0,0,1-.009.479A1.357,1.357,0,0,1,31.82,21.772Zm1.634,1.673a0.609,0.609,0,0,1-.189-0.534L33.129,22.1c0.641-.246.586,0.373,1.189,0.337a0.763,0.763,0,0,1-.368.328,1.361,1.361,0,0,0-.252.338C33.6,23.259,33.812,23.573,33.454,23.445Z"/><path d="M76.055,0H3.685A3.689,3.689,0,0,0,0,3.685V86.316A3.689,3.689,0,0,0,3.685,90H76.054a3.689,3.689,0,0,0,3.685-3.685V3.685A3.688,3.688,0,0,0,76.055,0ZM31.385,76.119a20.27,20.27,0,0,1-.221,3.609,4.9,4.9,0,0,1-.932,2.088,4.733,4.733,0,0,1-1.811,1.374,6.7,6.7,0,0,1-2.764.492,7.152,7.152,0,0,1-3.1-.541,4.8,4.8,0,0,1-2.657-3.3,18.392,18.392,0,0,1-.266-3.612V68.106h4.395v8.233a14.645,14.645,0,0,0,.078,2.078,1.262,1.262,0,0,0,.434.763,1.611,1.611,0,0,0,1.04.281,1.553,1.553,0,0,0,.974-0.237,0.949,0.949,0,0,0,.337-0.6,15.922,15.922,0,0,0,.1-2.134V68.1h4.4v8.014Zm11.734,7.5-2.06-3.342a17.593,17.593,0,0,0-1.259-1.9,1.194,1.194,0,0,0-.448-0.349,2.449,2.449,0,0,0-.723-0.1v5.692H34.35V68.4h6.29a9.04,9.04,0,0,1,3.214.425A3.733,3.733,0,0,1,45.7,70.47a4.988,4.988,0,0,1,.653,2.545,4.619,4.619,0,0,1-1.009,3.037,4.058,4.058,0,0,1-1.423,1.082c0.1,0.1.2,0.207,0.29,0.313a16.031,16.031,0,0,1,1.526,2.337l2.2,3.835H43.119Zm16.984,0H49.273V68.4h4.311V79.722H60.1v3.9h0ZM5.134,62.654l0-57.521H74.6l0.012,57.521H5.134Z"/><path d="M41.54,72.318c-0.077-.011-0.408-0.036-1.72-0.036H38.63v1.894h1.088a8.171,8.171,0,0,0,2-.119,0.592,0.592,0,0,0,.315-0.257,1.143,1.143,0,0,0,.138-0.608,0.989,0.989,0,0,0-.167-0.623A0.715,0.715,0,0,0,41.54,72.318Z"/></svg>