<?xml version="1.0" encoding="utf-8"?>
<!-- Generator: Adobe Illustrator 22.0.1, SVG Export Plug-In . SVG Version: 6.00 Build 0)  -->
<svg version="1.1" id="Layer_1" xmlns="http://www.w3.org/2000/svg" xmlns:xlink="http://www.w3.org/1999/xlink" x="0px" y="0px"
	 viewBox="0 0 248 277" style="enable-background:new 0 0 248 277;" xml:space="preserve">
<g>
	<path d="M24,56v37c1,10,12,17,26,22V69C39,66,30,62,24,56z M209,271l-40-41l-41,41l-32-31l41-41l-41-41l32-31l41,40l40-40l32,31
		l-41,41l41,41L209,271z M63,118c15,3,30,4,39,4c4,0,10,0,17-1l9-8l6,6c22-3,45-11,46-26V56c-16,13-45,21-78,21c-14,0-27-1-39-4V118
		z M24,172v35c1,11,12,18,26,23v-46C40,181,31,177,24,172z M63,233c8,2,15,3,22,4l38-38l-8-8c-2,0-3,0-5,0l0,0h-1l0,0h-1l0,0h-1h-1
		l0,0h-1l0,0h-1h-1l0,0h-1l0,0l0,0c-10,0-24-1-39-4V233z M24,113v36c1,11,12,18,26,23v-46C40,123,31,119,24,113z M63,175
		c15,4,30,5,39,5h2l-22-22l25-25c-2,0-3,0-5,0c-10,0-24-1-39-4V175z M180,142v-29c-9,8-23,13-36,16l25,24L180,142z M102,7
		C59,7,24,20,24,36s35,29,78,29s78-13,78-29S145,7,102,7z"/>
</g>
</svg>
