<svg id="Layer_1" data-name="Layer 1" xmlns="http://www.w3.org/2000/svg" viewBox="0 0 120 120"><title>icon</title><path d="M88.49,94.38a15,15,0,0,0-2.9-29.62A12.38,12.38,0,0,0,86,61.65l0.3-21.73a12.34,12.34,0,0,0-.44-3.43,15.07,15.07,0,1,0-14.44-8.61,12.33,12.33,0,0,0-3.23,1.25l-19,10.6a12.43,12.43,0,0,0-2.14,1.52,15.06,15.06,0,1,0-.25,18A12.42,12.42,0,0,0,49,60.81L67.63,71.93a12.32,12.32,0,0,0,3.56,1.43A15,15,0,0,0,88.49,94.38ZM41.78,41.8A11.65,11.65,0,0,0,26.28,54a11.89,11.89,0,0,0,.93,3.51,0.49,0.49,0,0,1-.81.52,11.6,11.6,0,0,1-3.15-8.11A11.44,11.44,0,0,1,29.7,39.62,11.7,11.7,0,0,1,42.25,41,0.49,0.49,0,0,1,41.78,41.8ZM79.82,11a11.7,11.7,0,0,1,12.55,1.34,0.49,0.49,0,0,1-.47.84A11.65,11.65,0,0,0,76.4,25.37a11.89,11.89,0,0,0,.93,3.51,0.49,0.49,0,0,1-.81.52,11.6,11.6,0,0,1-3.15-8.11A11.44,11.44,0,0,1,79.82,11ZM71.18,66L52.52,54.86A5.17,5.17,0,0,1,50,50.47c0-.11,0-0.22,0-0.33a5.17,5.17,0,0,1,2.67-4.36l19-10.6a5.24,5.24,0,0,1,7.79,4.64L79.1,61.55A5.24,5.24,0,0,1,71.18,66Zm5,17.71a11.89,11.89,0,0,0,.93,3.51,0.49,0.49,0,0,1-.81.52,11.6,11.6,0,0,1-3.15-8.11,11.44,11.44,0,0,1,6.45-10.28,11.7,11.7,0,0,1,12.55,1.34,0.49,0.49,0,0,1-.47.84A11.65,11.65,0,0,0,76.13,83.69Z"/><path d="M28,108.83v-0.06a3.75,3.75,0,0,0,2.39-3.25,3.33,3.33,0,0,0-1.18-2.76,6.69,6.69,0,0,0-4.25-1,25.91,25.91,0,0,0-4,.27v13h3v-5h0.86c1.21,0,1.78.38,2.13,2s0.7,3,.92,3H31c-0.25,0-.73-2.22-1.14-3.71A3.19,3.19,0,0,0,28,108.83ZM25.13,108H24v-4a5.41,5.41,0,0,1,1.33-.1,2,2,0,0,1,2.18,2A2.13,2.13,0,0,1,25.13,108Z"/><path d="M42,103.13c-1.27-1-2.7-1.41-5.21-1.41A23,23,0,0,0,33,102v13a15.49,15.49,0,0,0,3.19.2,9.18,9.18,0,0,0,6-1.7,6.67,6.67,0,0,0,2.14-5.34A5.87,5.87,0,0,0,42,103.13Zm-5.21,9.69a2.48,2.48,0,0,1-.84-0.06v-8.63a2.94,2.94,0,0,1,1.15-.12,3.78,3.78,0,0,1,4.15,4.19C41.3,111.36,39.54,112.84,36.84,112.83Z"/><polygon points="46 115 49 115 49 110 54 110 54 107 49 107 49 104 54 104 54 102 46 102 46 115"/><polygon points="55.58 116 57.55 116 61.74 102 59.77 102 55.58 116"/><path d="M73.23,102H69.83l-1.12,2.11c-0.33.76-.59,1.89-0.9,1.89h0c-0.31,0-.61-1.09-1-1.89L65.62,102H62.19l3.68,6.42L62.06,115h3.41l1.1-2.51a15.41,15.41,0,0,0,1-2.49h0a18.06,18.06,0,0,0,1.17,2.49L70,115h3.45l-3.92-6.66Z"/><path d="M84.69,102l-1.41,4.32A40,40,0,0,0,82,111H82a33.26,33.26,0,0,0-1.12-4.66L79.56,102h-4l-0.84,13H77.5l0.24-4.77c0.1-1.64.16-4.23,0.23-5.23h0c0.31,1,.76,3.47,1.19,5l1.41,5h2.33l1.61-5c0.51-1.55,1.06-4,1.47-5h0.06c0,1,.06,3.6.12,5.19l0.2,4.81h2.92l-0.72-13h-3.9Z"/><polygon points="95 102 92 102 92 115 100 115 100 113 95 113 95 102"/></svg>