<svg id="Layer_1" data-name="Layer 1" xmlns="http://www.w3.org/2000/svg" viewBox="0 0 79 64.003"><title>find</title><path d="M74.542,1.666H8.122A6.308,6.308,0,0,0,1.833,7.957V59.378a6.309,6.309,0,0,0,6.289,6.291h66.42a6.31,6.31,0,0,0,6.291-6.291V7.957A6.31,6.31,0,0,0,74.542,1.666ZM29.831,4.928A2.668,2.668,0,1,1,27.163,7.6,2.667,2.667,0,0,1,29.831,4.928Zm-8.993,0A2.668,2.668,0,1,1,18.168,7.6,2.667,2.667,0,0,1,20.838,4.928Zm-8.992,0A2.668,2.668,0,1,1,9.178,7.6,2.664,2.664,0,0,1,11.846,4.928Zm64.987,54.45a2.323,2.323,0,0,1-2.291,2.291H8.122a2.321,2.321,0,0,1-2.289-2.291V13.526h71V59.378ZM14.891,47.786l4.359-4.359a8.8,8.8,0,1,0-2.135-2.133l-4.359,4.357Zm9.4-17.3a5.761,5.761,0,1,1-5.76,5.762A5.765,5.765,0,0,1,24.293,30.487Zm46.231,13.12H36.692v1.422H70.525V43.607Z" transform="translate(-1.833 -1.666)"/></svg>