<svg id="Layer_1" data-name="Layer 1" xmlns="http://www.w3.org/2000/svg" viewBox="0 0 120 120"><title>icon</title><path d="M85.59,64.76A12.38,12.38,0,0,0,86,61.65l0.3-21.73a12.34,12.34,0,0,0-.44-3.43,15.07,15.07,0,1,0-14.44-8.61,12.33,12.33,0,0,0-3.23,1.25l-19,10.6a12.43,12.43,0,0,0-2.14,1.52,15.06,15.06,0,1,0-.25,18A12.42,12.42,0,0,0,49,60.81L67.63,71.93a12.32,12.32,0,0,0,3.56,1.43A15,15,0,1,0,85.59,64.76Zm-43.81-23A11.65,11.65,0,0,0,26.28,54a11.89,11.89,0,0,0,.93,3.51,0.49,0.49,0,0,1-.81.52,11.6,11.6,0,0,1-3.15-8.11A11.44,11.44,0,0,1,29.7,39.62,11.7,11.7,0,0,1,42.25,41,0.49,0.49,0,0,1,41.78,41.8ZM79.82,11a11.7,11.7,0,0,1,12.55,1.34,0.49,0.49,0,0,1-.47.84A11.65,11.65,0,0,0,76.4,25.37a11.89,11.89,0,0,0,.93,3.51,0.49,0.49,0,0,1-.81.52,11.6,11.6,0,0,1-3.15-8.11A11.44,11.44,0,0,1,79.82,11ZM71.18,66L52.52,54.86A5.17,5.17,0,0,1,50,50.47c0-.11,0-0.22,0-0.33a5.17,5.17,0,0,1,2.67-4.36l19-10.6a5.24,5.24,0,0,1,7.79,4.64L79.1,61.55A5.24,5.24,0,0,1,71.18,66Zm20.45,5.53a11.65,11.65,0,0,0-15.5,12.18,11.89,11.89,0,0,0,.93,3.51,0.49,0.49,0,0,1-.81.52,11.6,11.6,0,0,1-3.15-8.11,11.44,11.44,0,0,1,6.45-10.28,11.7,11.7,0,0,1,12.55,1.34A0.49,0.49,0,0,1,91.63,71.51Z"/><path d="M30,105.66a49.42,49.42,0,0,0,.5,5.34H30.44c-0.59-1-1.37-3-2.15-4.34L25.54,102H22v13h3v-4c0-2.15-.14-4-0.22-5.76v0a48.85,48.85,0,0,0,2.27,4.65L29.85,115H33V102H30v3.66Z"/><rect x="35" y="109" width="5" height="2"/><polygon points="40 104 43 104 43 115 46 115 46 104 50 104 50 102 40 102 40 104"/><path d="M59,108.83v-0.06a3.56,3.56,0,0,0,2.15-3.25,3.41,3.41,0,0,0-1.3-2.76,6.13,6.13,0,0,0-4.07-1A16,16,0,0,0,52,102v13h2v-5h1.38c1.21,0,1.78.38,2.13,2s0.71,3,.92,3h3.05c-0.25,0-.49-2.22-0.9-3.71C60.25,110.08,60,109.2,59,108.83ZM55.65,108H54v-4c1,0,.87-0.1,1.59-0.1a2.07,2.07,0,0,1,2.31,2A2,2,0,0,1,55.65,108Z"/><rect x="63" y="102" width="3" height="13"/><path d="M72.89,101.72A23.08,23.08,0,0,0,69,102v13h3v-4.7a3.22,3.22,0,0,0,.85.06,5.9,5.9,0,0,0,4.2-1.39,4.19,4.19,0,0,0,1.17-3.13,3.82,3.82,0,0,0-1.36-3.05A6.17,6.17,0,0,0,72.89,101.72Zm-0.06,6.34A2.05,2.05,0,0,1,72,108v-3.9a2.56,2.56,0,0,1,1.07-.12c1.49,0,2.33.72,2.33,1.94S74.42,108.07,72.83,108.07Z"/><polygon points="83 102 80 102 80 115 88 115 88 113 83 113 83 102"/><polygon points="93 109 98 109 98 107 93 107 93 104 98 104 98 102 90 102 90 115 99 115 99 113 93 113 93 109"/></svg>