<svg id="Layer_1" data-name="Layer 1" xmlns="http://www.w3.org/2000/svg" viewBox="0 0 120 120"><title>icon</title><path d="M85.59,64.76A12.38,12.38,0,0,0,86,61.65l0.3-21.73a12.34,12.34,0,0,0-.44-3.43,15.07,15.07,0,1,0-14.44-8.61,12.33,12.33,0,0,0-3.23,1.25l-19,10.6a12.43,12.43,0,0,0-2.14,1.52,15.06,15.06,0,1,0-.25,18A12.42,12.42,0,0,0,49,60.81L67.63,71.93a12.32,12.32,0,0,0,3.56,1.43A15,15,0,1,0,85.59,64.76Zm-43.81-23A11.65,11.65,0,0,0,26.28,54a11.89,11.89,0,0,0,.93,3.51,0.49,0.49,0,0,1-.81.52,11.6,11.6,0,0,1-3.15-8.11A11.44,11.44,0,0,1,29.7,39.62,11.7,11.7,0,0,1,42.25,41,0.49,0.49,0,0,1,41.78,41.8ZM79.82,11a11.7,11.7,0,0,1,12.55,1.34,0.49,0.49,0,0,1-.47.84A11.65,11.65,0,0,0,76.4,25.37a11.89,11.89,0,0,0,.93,3.51,0.49,0.49,0,0,1-.81.52,11.6,11.6,0,0,1-3.15-8.11A11.44,11.44,0,0,1,79.82,11ZM71.18,66L52.52,54.86A5.17,5.17,0,0,1,50,50.47c0-.11,0-0.22,0-0.33a5.17,5.17,0,0,1,2.67-4.36l19-10.6a5.24,5.24,0,0,1,7.79,4.64L79.1,61.55A5.24,5.24,0,0,1,71.18,66Zm20.45,5.53a11.65,11.65,0,0,0-15.5,12.18,11.89,11.89,0,0,0,.93,3.51,0.49,0.49,0,0,1-.81.52,11.6,11.6,0,0,1-3.15-8.11,11.44,11.44,0,0,1,6.45-10.28,11.7,11.7,0,0,1,12.55,1.34A0.49,0.49,0,0,1,91.63,71.51Z"/><polygon points="27 104 30 104 30 115 33 115 33 104 37 104 37 102 27 102 27 104"/><path d="M46,109.42c0,2.33-.45,3.43-2,3.43s-2-1.16-2-3.43V102H39v7.18c0,4.21,1.56,6,4.89,6s5.11-1.94,5.11-6V102H46v7.42Z"/><path d="M59,108.83v-0.06a3.73,3.73,0,0,0,2.36-3.25,3.34,3.34,0,0,0-1.2-2.76,6.62,6.62,0,0,0-4.23-1A26,26,0,0,0,52,102v13h3v-5h0.8c1.21,0,1.78.38,2.13,2s0.71,3,.92,3h3.05c-0.25,0-.7-2.22-1.11-3.71A3.16,3.16,0,0,0,59,108.83ZM56.07,108H55v-4a5.07,5.07,0,0,1,1.3-.1,1.94,1.94,0,0,1,2.17,2A2.14,2.14,0,0,1,56.07,108Z"/><polygon points="63 104 66 104 66 115 69 115 69 104 73 104 73 102 63 102 63 104"/><polygon points="77 102 74 102 74 115 83 115 83 113 77 113 77 102"/><polygon points="87 109 92 109 92 107 87 107 87 104 92 104 92 102 84 102 84 115 93 115 93 113 87 113 87 109"/></svg>