<?xml version="1.0" encoding="utf-8"?>
<!-- Generator: Adobe Illustrator 22.0.1, SVG Export Plug-In . SVG Version: 6.00 Build 0)  -->
<svg version="1.1" id="Layer_1" xmlns="http://www.w3.org/2000/svg" xmlns:xlink="http://www.w3.org/1999/xlink" x="0px" y="0px"
	 viewBox="0 0 120 120" style="enable-background:new 0 0 120 120;" xml:space="preserve">
<style type="text/css">
	.st0{stroke:#000000;stroke-width:2;stroke-miterlimit:10;}
	.st1{fill:none;stroke:#000000;stroke-width:2;stroke-miterlimit:10;}
</style>
<path d="M85.6,64.8c0.3-1,0.4-2.1,0.4-3.1L86.3,40c0-1.2-0.1-2.3-0.4-3.4c8.3-0.4,14.7-7.6,14.2-15.9S92.5,5.9,84.2,6.4
	C75.9,6.8,69.5,13.9,70,22.3c0.1,1.9,0.6,3.9,1.4,5.6c-1.1,0.3-2.2,0.7-3.2,1.3l-19,10.6c-0.8,0.4-1.5,0.9-2.1,1.5
	c-4.9-6.7-14.3-8.2-21-3.4s-8.2,14.3-3.4,21s14.3,8.2,21,3.4c1.2-0.9,2.2-1.9,3.1-3c0.7,0.6,1.4,1.1,2.2,1.6L67.6,72
	c1.1,0.7,2.3,1.1,3.6,1.4c-3.5,7.5-0.3,16.4,7.2,20s16.4,0.3,20-7.2c3.5-7.5,0.3-16.4-7.2-20C89.4,65.3,87.5,64.9,85.6,64.8z
	 M41.8,41.8c-6.1-2.2-12.7,1-14.9,7.1c-0.6,1.7-0.8,3.4-0.6,5.2c0.1,1.2,0.4,2.4,0.9,3.5c0.1,0.3,0,0.5-0.3,0.6
	c-0.2,0.1-0.4,0-0.5-0.1c-2.1-2.2-3.2-5.1-3.1-8.1c0-4.4,2.5-8.4,6.4-10.3c4.1-2,9-1.5,12.5,1.4c0.2,0.2,0.2,0.5-0.1,0.7
	C42.1,41.8,41.9,41.8,41.8,41.8L41.8,41.8z M79.8,11c4.1-2,9-1.5,12.6,1.3c0.2,0.2,0.2,0.5,0.1,0.7s-0.3,0.2-0.5,0.1
	c-6.1-2.2-12.7,1-14.9,7.1c-0.6,1.6-0.8,3.4-0.6,5.1c0.1,1.2,0.4,2.4,0.9,3.5c0.1,0.3,0,0.5-0.3,0.6c-0.2,0.1-0.4,0-0.5-0.1
	c-2.1-2.2-3.2-5.1-3.2-8.1C73.4,16.9,75.9,12.9,79.8,11z M71.2,66L52.5,54.9c-1.5-1-2.5-2.6-2.5-4.4c0-0.1,0-0.2,0-0.3
	c0.1-1.8,1.1-3.5,2.7-4.4l19-10.6c2.5-1.4,5.7-0.5,7.1,2c0.4,0.8,0.7,1.7,0.7,2.6l-0.4,21.7c0,2.9-2.4,5.2-5.3,5.2
	C72.9,66.7,72,66.5,71.2,66z M91.6,71.5c-6.1-2.2-12.7,1-14.9,7.1c-0.6,1.6-0.8,3.4-0.6,5.1c0.1,1.2,0.4,2.4,0.9,3.5
	c0.1,0.3,0,0.5-0.3,0.6c-0.2,0.1-0.4,0-0.5-0.1c-2.1-2.2-3.2-5.1-3.2-8.1c0-4.4,2.5-8.4,6.4-10.3c4.1-2,9-1.5,12.6,1.3
	c0.2,0.2,0.2,0.5,0,0.7C92,71.5,91.8,71.6,91.6,71.5L91.6,71.5z"/>
<polygon points="37.5,103.3 40.5,103.3 40.5,114.3 43.5,114.3 43.5,103.3 47.5,103.3 47.5,101.3 37.5,101.3 "/>
<path d="M57.3,108.1L57.3,108.1c1.4-0.6,2.3-1.9,2.4-3.3c0.1-1.1-0.4-2.1-1.2-2.8c-1.3-0.8-2.7-1.2-4.2-1c-1.3,0-2.6,0.1-3.9,0.2v13
	h3v-5h0.8c1.2,0,1.8,0.4,2.1,2s0.7,3,0.9,3h3c-0.3,0-0.7-2.2-1.1-3.7C59,109.4,58.3,108.6,57.3,108.1z M54.3,107.3h-1.1v-4
	c0.4-0.1,0.9-0.1,1.3-0.1c1.1-0.1,2,0.6,2.2,1.7c0,0.1,0,0.2,0,0.3c0,1.2-1,2.1-2.2,2.1H54.3z"/>
<rect x="65" y="101.3" width="3" height="13"/>
<path d="M78.7,103.3c0.8,0,2.8,0.7,3.4,1l0.6-2.3c-0.9-0.4-3.2-1.1-4.2-1.1c-3.6,0-6.5,2.4-6.5,6.9c0,3.7,2.1,6.5,6.2,6.5
	c1,0,2.1-0.2,3.1-0.6l-0.4-2.3c-0.7,0.3-1.5,0.4-2.2,0.4c-2.4,0-3.8-1.6-3.8-4.2C74.9,104.7,76.6,103.3,78.7,103.3z"/>
<path class="st0" d="M83.4,108.4c-0.6,0-2.2,0-4.8,0"/>
<path class="st1" d="M78.7,113.1c0.1,0,1.9,0.3,3-1.1c0.9-1.1,0.7-2.4,0.7-2.6"/>
</svg>
