<svg id="Layer_1" data-name="Layer 1" xmlns="http://www.w3.org/2000/svg" viewBox="0 0 120 120"><title>icon</title><path d="M35.59,50.34c7.76-1,12,1.32,14.1,3,0.61,0.49,1.73.21,1.78-.44,0.41-4.52.54-14.78-6.12-20.7a13.48,13.48,0,0,0-1.18-1c-6-4.37-16.86-5.19-25.08-1.75-9,3.78-12.09,11.44-5.74,17C18.52,51,27.69,52.33,35.59,50.34Z"/><path d="M101.56,51a24.24,24.24,0,0,0-15.92-3.87v0l-0.27.06a18.14,18.14,0,0,0-2.28.45A17,17,0,0,1,70.5,44.91c-0.59-.42-1.53-0.2-1.51.35,0.16,4.17,1.5,16.21,10.46,24.23,0.49,0.45,1,.88,1.56,1.31,8.9,6.82,21.31,6.72,26.67.11C112.52,65,109.43,56.16,101.56,51Z"/><path d="M65.44,56.41c-6.78-.17-25.5.12-37,7.93C17.83,71.52,15.05,84.5,24,92.94c9.53,9,26.58,7.68,36.19-2.19C65.75,85,67.13,78,65,72h0l-0.12-.23a16.42,16.42,0,0,0-1.15-2.44c-2.46-6.35.4-10,2.48-11.64C66.82,57.24,66.32,56.43,65.44,56.41Z"/><path d="M56.16,41.74C62,42,76.22,42.22,83.18,38a10.33,10.33,0,0,0,1.1-.74c4.7-3.64,3-9.45-3.3-13.13C74.92,20.6,66.16,20,60.85,22.79c-4.37,2.34-5.33,6.42-2.63,10.16,1.72,4-.77,6.5-2.72,7.72C54.93,41,55.34,41.7,56.16,41.74Z"/></svg>