<?xml version="1.0" encoding="utf-8"?>
<!-- Generator: Adobe Illustrator 19.2.1, SVG Export Plug-In . SVG Version: 6.00 Build 0)  -->
<svg version="1.1" id="Layer_1" xmlns="http://www.w3.org/2000/svg" xmlns:xlink="http://www.w3.org/1999/xlink" x="0px" y="0px"
	 viewBox="0 0 120 120" style="enable-background:new 0 0 120 120;" xml:space="preserve">
<style type="text/css">
	.st0{fill:#FFFFFF;}
</style>
<title>icon</title>
<path class="st0" d="M35.6,50.3c7.8-1,12,1.3,14.1,3c0.6,0.5,1.7,0.2,1.8-0.4c0.4-4.5,0.5-14.8-6.1-20.7c-0.4-0.4-0.8-0.7-1.2-1
	c-6-4.4-16.9-5.2-25.1-1.8c-9,3.8-12.1,11.4-5.7,17C18.5,51,27.7,52.3,35.6,50.3z"/>
<path class="st0" d="M101.6,51c-4.7-3.1-10.3-4.5-15.9-3.9l0,0l-0.3,0.1c-0.8,0.1-1.5,0.3-2.3,0.5c-4.4,0.8-8.9-0.2-12.6-2.7
	c-0.6-0.4-1.5-0.2-1.5,0.3c0.2,4.2,1.5,16.2,10.5,24.2c0.5,0.4,1,0.9,1.6,1.3c8.9,6.8,21.3,6.7,26.7,0.1
	C112.5,65,109.4,56.2,101.6,51z"/>
<path class="st0" d="M65.4,56.4c-6.8-0.2-25.5,0.1-37,7.9C17.8,71.5,15.1,84.5,24,92.9c9.5,9,26.6,7.7,36.2-2.2
	C65.8,85,67.1,78,65,72l0,0l-0.1-0.2c-0.3-0.8-0.7-1.7-1.2-2.4c-2.5-6.3,0.4-10,2.5-11.6C66.8,57.2,66.3,56.4,65.4,56.4z"/>
<path class="st0" d="M56.2,41.7c5.8,0.3,20.1,0.5,27-3.7c0.4-0.2,0.7-0.5,1.1-0.7c4.7-3.6,3-9.5-3.3-13.1
	c-6.1-3.5-14.8-4.1-20.1-1.3c-4.4,2.3-5.3,6.4-2.6,10.2c1.7,4-0.8,6.5-2.7,7.7C54.9,41,55.3,41.7,56.2,41.7z"/>
</svg>
