<svg xmlns="http://www.w3.org/2000/svg" xmlns:xlink="http://www.w3.org/1999/xlink" version="1.1" x="0px" y="0px" viewBox="0 0 100 100" xml:space="preserve"><path d="M58.8,19.4c-6,6-6,15.8,0,21.8s15.8,6,21.8,0s6-15.8,0-21.8S64.8,13.4,58.8,19.4z M76.6,37.3  c-3.8,3.8-10,3.8-13.8,0s-3.8-10,0-13.8s10-3.8,13.8,0C80.4,27.2,80.4,33.4,76.6,37.3z"></path><path d="M22.8,81.2l43.4-43.4c0.7-0.7,0.7-1.9,0-2.7l-1.3-1.3c-0.7-0.7-1.9-0.7-2.7,0L18.8,77.2  c-0.7,0.7-0.7,1.9,0,2.7l1.3,1.3C20.8,82,22,82,22.8,81.2z"></path><rect x="27.1" y="76.7" transform="matrix(-0.7071 0.7071 -0.7071 -0.7071 106.6636 118.2253)" width="3.4" height="9"></rect><rect x="31.5" y="72.5" transform="matrix(-0.7071 0.7071 -0.7071 -0.7071 111.0198 107.915)" width="3.4" height="9"></rect><rect x="24.2" y="73" transform="matrix(-0.7071 0.7071 -0.7071 -0.7071 108.052 106.8365)" width="15.4" height="5.6"></rect><rect x="35.6" y="68.2" transform="matrix(-0.7071 0.7071 -0.7071 -0.7071 115.1343 97.7046)" width="3.4" height="9"></rect></svg>
