<svg id="Layer_1" data-name="Layer 1" xmlns="http://www.w3.org/2000/svg" viewBox="0 0 120 120"><defs><style>.cls-1{fill:#231f20;}</style></defs><title>icon</title><path class="cls-1" d="M69.55,83.87c-0.35.09-.66,0.15-0.91,0.19l-0.88.13a6.16,6.16,0,0,1-.86.06,1.84,1.84,0,0,1-1.57-.7A2.54,2.54,0,0,1,64.73,82V51.87H62.65V82a4.47,4.47,0,0,0,1.07,3,3.88,3.88,0,0,0,3.12,1.32,10.53,10.53,0,0,0,1.24-.07l1-.14c0.32,0,.69-0.12,1.1-0.21l0.71-.16L70,83.76Z"/><path class="cls-1" d="M78.52,63.13A11.79,11.79,0,0,0,75.67,66V61.41H73.59V86h2.08V70.71a12.4,12.4,0,0,1,1.18-2.8,8.71,8.71,0,0,1,4.36-3.78,9.66,9.66,0,0,1,3.15-.66l0.55,0v-2H84.33A10,10,0,0,0,78.52,63.13Z"/><path d="M108.25,39L91,57.4l21.66-9.88A17.22,17.22,0,0,0,108.25,39Z"/><path d="M95.47,33.5a17.65,17.65,0,0,0-6.74,1.33L86.42,54.09,98,33.68A17.86,17.86,0,0,0,95.47,33.5Z"/><path d="M112.85,48.58L92.33,59.94l19.25-2.26A17.08,17.08,0,0,0,112.85,48.58Z"/><path d="M105.28,65.2a17.49,17.49,0,0,0,5.54-6l-18,3.54Z"/><path d="M99,33.86L89,55.39l18.63-17A17.55,17.55,0,0,0,99,33.86Z"/><path d="M96.93,68.11a17.59,17.59,0,0,0,5.5-1.36L92.33,65.56Z"/><path d="M79.48,43.71A17.07,17.07,0,0,0,78,49.28l2.72,4.81Z"/><path d="M87.21,35.54A17.55,17.55,0,0,0,81,41l2.54,12.65Z"/><path class="cls-1" d="M28.28,70.1a13.63,13.63,0,0,0-4.11-1.35,27.34,27.34,0,0,0-4.47-.37,22,22,0,0,1-3.65-.31A9.72,9.72,0,0,1,12.88,67a6.25,6.25,0,0,1-2.22-2.11,6.37,6.37,0,0,1-.85-3.46,6,6,0,0,1,.87-3.16,6.53,6.53,0,0,1,2.17-2.1A10.06,10.06,0,0,1,15.94,55a17.91,17.91,0,0,1,6.13-.2,11.79,11.79,0,0,1,2.42.6,8.73,8.73,0,0,1,2.14,1.14,7.3,7.3,0,0,1,1.7,1.76l0.27,0.39,2-.82-0.42-.59a12.94,12.94,0,0,0-1.77-2,9,9,0,0,0-2.27-1.5,12.4,12.4,0,0,0-2.88-.9,19.67,19.67,0,0,0-3.66-.3,19.19,19.19,0,0,0-4,.44,12.81,12.81,0,0,0-3.81,1.47A8.62,8.62,0,0,0,8.85,57.2a7.58,7.58,0,0,0-1.12,4.2,8.5,8.5,0,0,0,1,4.36,8.06,8.06,0,0,0,2.73,2.8A11.52,11.52,0,0,0,15.34,70a22.58,22.58,0,0,0,4.37.42,27.79,27.79,0,0,1,3.74.27,11.48,11.48,0,0,1,3.48,1,7,7,0,0,1,2.54,2.07,5.52,5.52,0,0,1,1,3.39,5.4,5.4,0,0,1-.92,3.2,7.47,7.47,0,0,1-2.44,2.18,11.71,11.71,0,0,1-3.4,1.25,18.43,18.43,0,0,1-3.72.4A16.18,16.18,0,0,1,14,83.08a14.2,14.2,0,0,1-5-3.35l-0.38-.39L7,80.69l0.44,0.44a19.68,19.68,0,0,0,5.21,3.62,16.42,16.42,0,0,0,7.28,1.53,20.84,20.84,0,0,0,4.14-.44,13.71,13.71,0,0,0,4.06-1.51,9.66,9.66,0,0,0,3.11-2.79,7.32,7.32,0,0,0,1.25-4.34,7.72,7.72,0,0,0-1.17-4.37A8.25,8.25,0,0,0,28.28,70.1Z"/><path class="cls-1" d="M28.28,70.1a13.63,13.63,0,0,0-4.11-1.35,27.34,27.34,0,0,0-4.47-.37,22,22,0,0,1-3.65-.31A9.72,9.72,0,0,1,12.88,67a6.25,6.25,0,0,1-2.22-2.11,6.37,6.37,0,0,1-.85-3.46,6,6,0,0,1,.87-3.16,6.53,6.53,0,0,1,2.17-2.1A10.06,10.06,0,0,1,15.94,55a17.91,17.91,0,0,1,6.13-.2,11.79,11.79,0,0,1,2.42.6,8.73,8.73,0,0,1,2.14,1.14,7.3,7.3,0,0,1,1.7,1.76l0.27,0.39,2-.82-0.42-.59a12.94,12.94,0,0,0-1.77-2,9,9,0,0,0-2.27-1.5,12.4,12.4,0,0,0-2.88-.9,19.67,19.67,0,0,0-3.66-.3,19.19,19.19,0,0,0-4,.44,12.81,12.81,0,0,0-3.81,1.47A8.62,8.62,0,0,0,8.85,57.2a7.58,7.58,0,0,0-1.12,4.2,8.5,8.5,0,0,0,1,4.36,8.06,8.06,0,0,0,2.73,2.8A11.52,11.52,0,0,0,15.34,70a22.58,22.58,0,0,0,4.37.42,27.79,27.79,0,0,1,3.74.27,11.48,11.48,0,0,1,3.48,1,7,7,0,0,1,2.54,2.07,5.52,5.52,0,0,1,1,3.39,5.4,5.4,0,0,1-.92,3.2,7.47,7.47,0,0,1-2.44,2.18,11.71,11.71,0,0,1-3.4,1.25,18.43,18.43,0,0,1-3.72.4A16.18,16.18,0,0,1,14,83.08a14.2,14.2,0,0,1-5-3.35l-0.38-.39L7,80.69l0.44,0.44a19.68,19.68,0,0,0,5.21,3.62,16.42,16.42,0,0,0,7.28,1.53,20.84,20.84,0,0,0,4.14-.44,13.71,13.71,0,0,0,4.06-1.51,9.66,9.66,0,0,0,3.11-2.79,7.32,7.32,0,0,0,1.25-4.34,7.72,7.72,0,0,0-1.17-4.37A8.25,8.25,0,0,0,28.28,70.1Z"/><path d="M16,47.33V16h88V28.44a24.59,24.59,0,0,1,6,3.5V16a6,6,0,0,0-6-6H16a6,6,0,0,0-6,6V49.15a18.51,18.51,0,0,1,4.37-1.53C14.91,47.5,15.46,47.41,16,47.33Z"/><path d="M104,74.08V104H16V91.47a20.22,20.22,0,0,1-5.77-1.79L10,89.56V104a6,6,0,0,0,6,6h88a6,6,0,0,0,6-6V70.58A24.59,24.59,0,0,1,104,74.08Z"/><path class="cls-1" d="M55.54,65.14A12.66,12.66,0,0,0,51.8,62.2a10.52,10.52,0,0,0-4.92-1.15,10.79,10.79,0,0,0-4.64,1,12.11,12.11,0,0,0-3.77,2.78,13.39,13.39,0,0,0-2.53,4.06,13.11,13.11,0,0,0-.07,9.53,13.28,13.28,0,0,0,2.41,4A12.19,12.19,0,0,0,42,85.35a11.21,11.21,0,0,0,4.85,1.15h0a11.18,11.18,0,0,0,4.68-1.1,12.4,12.4,0,0,0,3.77-2.8,13.17,13.17,0,0,0,2.51-4,12.81,12.81,0,0,0,.91-4.78,13.31,13.31,0,0,0-.84-4.56A13.1,13.1,0,0,0,55.54,65.14Zm-8.66,19.3A8.58,8.58,0,0,1,43,83.58a10,10,0,0,1-3-2.35,11.21,11.21,0,0,1-2-3.42,12.72,12.72,0,0,1-.83-4,11.42,11.42,0,0,1,2.7-7.25,10.64,10.64,0,0,1,3.12-2.49A8.77,8.77,0,0,1,50.72,64a10.43,10.43,0,0,1,3.12,2.38,11.35,11.35,0,0,1,2.09,3.42,10.89,10.89,0,0,1,.76,4A11.42,11.42,0,0,1,54,81.05a10.32,10.32,0,0,1-3.12,2.46A8.57,8.57,0,0,1,46.89,84.44Z"/></svg>