<svg id="Layer_1" data-name="Layer 1" xmlns="http://www.w3.org/2000/svg" viewBox="0 0 86.169 90"><title>without-attribution</title><path d="M49.685,48.348c-2.052,0-2.988,2.6-2.988,5.024a6.1,6.1,0,0,0,1.327,4.281,2.234,2.234,0,0,0,1.638.694c2.184,0,2.959-2.721,2.959-5.051C52.62,50.914,51.7,48.348,49.685,48.348Z" transform="translate(-6.915 -5)"/><path d="M91.016,38.031H83.033V26.064c0-.033-.008-.064-.01-.1A2.1,2.1,0,0,0,83,25.691a1.923,1.923,0,0,0-.06-.2c-.017-.053-.028-.106-.049-.157a1.912,1.912,0,0,0-.113-.215c-.021-.037-.038-.078-.063-.115a1.881,1.881,0,0,0-.244-.3L63.322,5.561c-.007-.006-.016-.012-.022-.018a1.956,1.956,0,0,0-.269-.22c-.052-.034-.107-.059-.16-.087s-.11-.064-.17-.09a2.071,2.071,0,0,0-.2-.063c-.052-.016-.1-.035-.154-.046A2.065,2.065,0,0,0,61.968,5H18.883a1.914,1.914,0,0,0-1.914,1.915V38.031H8.981A2.061,2.061,0,0,0,6.921,40.1L6.915,69.473A2.074,2.074,0,0,0,9,71.543h7.971V93.085A1.914,1.914,0,0,0,18.883,95H81.117a1.915,1.915,0,0,0,1.915-1.915V71.543h7.983a2.063,2.063,0,0,0,2.069-2.07V40.1A2.073,2.073,0,0,0,91.016,38.031ZM63.883,11.537,76.494,24.148H63.883ZM20.8,8.83H60.053V26.064a1.914,1.914,0,0,0,1.915,1.914H79.2V38.031H20.8ZM76.106,58.347v5.382l-14.385.021V43.323H67.7V58.346h8.41Zm-18.337,2.87,1.108.25-1.735,5.071-.925-.293a53.273,53.273,0,0,1-6.556-2.554,2.5,2.5,0,0,0-.8-.17c-4.005-.291-8.044-3.5-8.044-10.014,0-6.083,3.687-10.334,8.962-10.334,5.136,0,8.719,4.1,8.719,9.966a10.658,10.658,0,0,1-2.729,7.612C56.446,60.916,57.131,61.072,57.769,61.217ZM29.693,55.94c-3.392-1.331-5.115-3.469-5.115-6.362,0-3.849,2.955-6.54,7.186-6.54a13.054,13.054,0,0,1,5.249,1.16l.723.368L36.362,49.55l-1.1-.6A7.98,7.98,0,0,0,31.94,48.2c-1.168,0-1.255.786-1.255,1.028,0,.4,0,.694,2.3,1.675,3.313,1.376,4.854,3.415,4.854,6.408,0,3.1-1.99,6.705-7.6,6.705a13.369,13.369,0,0,1-5.773-1.392l-.57-.354.849-5.149,1.249.721a10.332,10.332,0,0,0,4.223,1.015c1,0,1.6-.466,1.6-1.248C31.812,57.262,31.812,56.8,29.693,55.94ZM79.2,91.17H20.8V71.543H79.2Z" transform="translate(-6.915 -5)"/></svg>