<svg xmlns="http://www.w3.org/2000/svg" xmlns:xlink="http://www.w3.org/1999/xlink" version="1.1" x="0px" y="0px" viewBox="-9.5 -6 43 43" xml:space="preserve"><g><path d="M23,9h-1c-1.103,0-2,0.897-2,2v4h-0.778c-0.549-0.609-1.336-1-2.222-1h-4v-2h3c1.657,0,3-1.343,3-3V7c0-3.866-3.134-7-7-7   S5,3.134,5,7v2c0,1.657,1.343,3,3,3h3v2H7c-0.886,0-1.673,0.391-2.222,1H4v-4c0-1.103-0.897-2-2-2H1c-0.553,0-1,0.447-1,1   s0.447,1,1,1h1v4c0,1.103,0.897,2,2,2c0,1.657,1.343,3,3,3h4v1.382l-5.447,2.724c-0.494,0.247-0.694,0.848-0.447,1.342   C5.281,25.798,5.634,26,6.001,26c0.15,0,0.303-0.034,0.446-0.105L11,23.618V25c0,0.553,0.448,1,1,1s1-0.447,1-1v-1.382l4.553,2.276   C17.696,25.966,17.849,26,17.999,26c0.367,0,0.72-0.202,0.896-0.553c0.247-0.494,0.047-1.095-0.447-1.342L13,21.382V20h4   c1.657,0,3-1.343,3-3c1.103,0,2-0.897,2-2v-4h1c0.553,0,1-0.447,1-1S23.553,9,23,9z"></path><circle cx="12" cy="29" r="2"></circle><circle cx="6" cy="29" r="2"></circle><circle cx="19" cy="29" r="2"></circle></g></svg>
