<svg id="Layer_1" data-name="Layer 1" xmlns="http://www.w3.org/2000/svg" viewBox="0 0 120 120"><title>icon</title><path d="M85.59,64.76A12.38,12.38,0,0,0,86,61.65l0.3-21.73a12.34,12.34,0,0,0-.44-3.43,15.07,15.07,0,1,0-14.44-8.61,12.33,12.33,0,0,0-3.23,1.25l-19,10.6a12.43,12.43,0,0,0-2.14,1.52,15.06,15.06,0,1,0-.25,18A12.42,12.42,0,0,0,49,60.81L67.63,71.93a12.32,12.32,0,0,0,3.56,1.43A15,15,0,1,0,85.59,64.76Zm-43.81-23A11.65,11.65,0,0,0,26.28,54a11.89,11.89,0,0,0,.93,3.51,0.49,0.49,0,0,1-.81.52,11.6,11.6,0,0,1-3.15-8.11A11.44,11.44,0,0,1,29.7,39.62,11.7,11.7,0,0,1,42.25,41,0.49,0.49,0,0,1,41.78,41.8ZM79.82,11a11.7,11.7,0,0,1,12.55,1.34,0.49,0.49,0,0,1-.47.84A11.65,11.65,0,0,0,76.4,25.37a11.89,11.89,0,0,0,.93,3.51,0.49,0.49,0,0,1-.81.52,11.6,11.6,0,0,1-3.15-8.11A11.44,11.44,0,0,1,79.82,11ZM71.18,66L52.52,54.86A5.17,5.17,0,0,1,50,50.47c0-.11,0-0.22,0-0.33a5.17,5.17,0,0,1,2.67-4.36l19-10.6a5.24,5.24,0,0,1,7.79,4.64L79.1,61.55A5.24,5.24,0,0,1,71.18,66Zm20.45,5.53a11.65,11.65,0,0,0-15.5,12.18,11.89,11.89,0,0,0,.93,3.51,0.49,0.49,0,0,1-.81.52,11.6,11.6,0,0,1-3.15-8.11,11.44,11.44,0,0,1,6.45-10.28,11.7,11.7,0,0,1,12.55,1.34A0.49,0.49,0,0,1,91.63,71.51Z"/><path d="M41,110.12c0,2.06-.88,2.62-2.13,2.62a5.25,5.25,0,0,1-1.58-.23l-0.36,2.41a8.51,8.51,0,0,0,2.27.31c2.9,0,4.8-1.31,4.8-5.07V102H41v8.12Z"/><path d="M51.39,107.19c-1.7-.65-2.45-1-2.45-1.86,0-.69.63-1.27,1.92-1.27a6.27,6.27,0,0,1,2.76.63l0.67-2.41a8.08,8.08,0,0,0-3.37-.67c-3.11,0-5,1.72-5,4,0,1.92,1.43,3.13,3.62,3.9,1.59,0.57,2.21,1,2.21,1.86s-0.72,1.43-2.09,1.43a7.61,7.61,0,0,1-3.31-.82l-0.61,2.47a8.61,8.61,0,0,0,3.74.82c3.62,0,5.33-1.9,5.33-4.11C54.82,109.26,53.72,108,51.39,107.19Z"/><path d="M62.65,101.61c-3.9,0-6.42,3-6.42,6.91,0,3.76,2.29,6.71,6.21,6.71s6.48-2.62,6.48-6.95C68.92,104.64,66.71,101.61,62.65,101.61Zm-0.06,11.26c-2,0-3.21-1.82-3.21-4.41S60.56,104,62.57,104s3.19,2,3.19,4.41C65.76,110.95,64.61,112.86,62.59,112.86Z"/><path d="M79,105.66a49,49,0,0,0,.31,5.34H79.25c-0.59-1-1.37-3-2.15-4.34L74.36,102H71v13h3v-4c0-2.15-.23-4-0.31-5.76l0,0a48.49,48.49,0,0,0,2.24,4.65L78.67,115H82V102H79v3.66Z"/></svg>