<svg id="Layer_1" data-name="Layer 1" xmlns="http://www.w3.org/2000/svg" viewBox="0 0 120 120"><title>icon</title><path d="M93.57,76a14,14,0,0,0,.5-3.52l0.34-24.58a14,14,0,0,0-.5-3.88,17,17,0,1,0-16.33-9.73,14,14,0,0,0-3.65,1.41l-21.46,12a14.05,14.05,0,0,0-2.42,1.72,17,17,0,1,0-.28,20.34,14.05,14.05,0,0,0,2.38,1.79L73.26,84.1a13.93,13.93,0,0,0,4,1.61A17,17,0,1,0,93.57,76ZM44,50A13.18,13.18,0,0,0,26.48,63.79a13.45,13.45,0,0,0,1.05,4,0.55,0.55,0,0,1-.91.59A13.12,13.12,0,0,1,23,59.18a12.94,12.94,0,0,1,7.3-11.63,13.24,13.24,0,0,1,14.19,1.52A0.55,0.55,0,0,1,44,50ZM87,15.18a13.24,13.24,0,0,1,14.19,1.52,0.55,0.55,0,0,1-.53.95A13.18,13.18,0,0,0,83.17,31.43a13.45,13.45,0,0,0,1.05,4,0.55,0.55,0,0,1-.91.59,13.12,13.12,0,0,1-3.57-9.18A12.94,12.94,0,0,1,87,15.18ZM77.27,77.36L56.16,64.78a5.85,5.85,0,0,1-2.88-5c0-.12,0-0.25,0-0.37a5.85,5.85,0,0,1,3-4.93l21.46-12a5.92,5.92,0,0,1,8.81,5.25L86.23,72.36A5.92,5.92,0,0,1,77.27,77.36Zm23.14,6.26A13.18,13.18,0,0,0,82.88,97.4a13.45,13.45,0,0,0,1,4A0.55,0.55,0,0,1,83,102a13.12,13.12,0,0,1-3.57-9.18,12.94,12.94,0,0,1,7.3-11.63,13.24,13.24,0,0,1,14.19,1.52A0.55,0.55,0,0,1,100.41,83.62Z"/><path d="M104,47.23V73a23.14,23.14,0,0,1,6,4.88V42.49A22.91,22.91,0,0,1,104,47.23Z"/><path d="M25.1,95a3.06,3.06,0,0,0-1.1.1V99h0.68c1.49,0,2.49-.86,2.49-2A1.83,1.83,0,0,0,25.1,95Z"/><path d="M40.4,95.1a5.12,5.12,0,0,0-1.4.12v8.63a4.72,4.72,0,0,0,1.09.06c2.7,0,4.46-1.47,4.46-4.62A3.78,3.78,0,0,0,40.4,95.1Z"/><path d="M70.36,98.64a22.89,22.89,0,0,1-.5-8.64H16V16H72.77a23.16,23.16,0,0,1,4.7-6H16a6,6,0,0,0-6,6v88a6,6,0,0,0,6,6H77.18A22.89,22.89,0,0,1,70.36,98.64ZM27.46,106c-0.22,0-.53-1.35-0.92-3s-0.92-2-2.13-2H24v5H21V93.08a23.37,23.37,0,0,1,3.75-.27,6.37,6.37,0,0,1,4.15,1,3.43,3.43,0,0,1,1.32,2.76A3.61,3.61,0,0,1,28,99.86v0.06c1,0.37,1.27,1.2,1.6,2.42,0.41,1.49.66,3.67,0.91,3.67H27.46Zm18.13-1.46a9.64,9.64,0,0,1-6.14,1.7A30.43,30.43,0,0,1,36,106v-13a26.49,26.49,0,0,1,4.09-.27c2.51,0,4.16.45,5.43,1.41a5.85,5.85,0,0,1,2.25,5A6.69,6.69,0,0,1,45.59,104.54ZM62,95H57v3h4v3H57v5H54V93h8v2Z"/></svg>