<svg xmlns="http://www.w3.org/2000/svg" xmlns:xlink="http://www.w3.org/1999/xlink" version="1.1" x="0px" y="0px" viewBox="-25 -25 150 150" xml:space="preserve"><path d="M9.945,95h80.11c1.092,0,1.978-0.886,1.978-1.978V6.978C92.033,5.886,91.147,5,90.055,5H9.945  C8.853,5,7.967,5.886,7.967,6.978v86.044C7.967,94.114,8.853,95,9.945,95z M67.308,19.835h14.835v9.89H67.308V19.835z   M67.308,36.648h14.835v9.89H67.308V36.648z M67.308,53.461h14.835v9.89H67.308V53.461z M67.308,70.275h14.835v9.89H67.308V70.275z   M42.583,19.835h14.835v9.89H42.583V19.835z M42.583,36.648h14.835v9.89H42.583V36.648z M42.583,53.461h14.835v9.89H42.583V53.461z   M42.583,70.275h14.835v19.78H42.583V70.275z M17.857,19.835h14.835v9.89H17.857V19.835z M17.857,36.648h14.835v9.89H17.857V36.648z   M17.857,53.461h14.835v9.89H17.857V53.461z M17.857,70.275h14.835v9.89H17.857V70.275z"></path></svg>
