<?xml version="1.0" encoding="utf-8"?>
<!-- Generator: Adobe Illustrator 20.1.0, SVG Export Plug-In . SVG Version: 6.00 Build 0)  -->
<svg version="1.1" id="Layer_1" xmlns="http://www.w3.org/2000/svg" xmlns:xlink="http://www.w3.org/1999/xlink" x="0px" y="0px"
	 viewBox="0 0 168.3 223.7" style="enable-background:new 0 0 168.3 223.7;" xml:space="preserve">
<path d="M156.8,54.6l-26.6-27.5c-2.2-2.3-5-4-8.1-5c-9.1-11.7-19.7-19.2-35.7-19.2c-15.6,0-29.5,7.4-38.6,18.4H22.6
	c-10,0-18.3,8-18.3,18v160.8c0,10,8.3,18.2,18.3,18.2h121.2c10,0,18.6-8.2,18.6-18.2V67.8C162.3,62.8,160.2,58.2,156.8,54.6z
	 M143.8,209.3H22.6c-5,0-9.3-4.2-9.3-9.2V39.3c0-5,4.3-9,9.3-9H42c-3.4,7-5.6,14.3-5.6,22.4v52.6H21.6c-1.2,0-2.2,0.5-2.7,1.5
	s-0.2,2.2,0.6,3l40.1,40.5c0.6,0.6,1.4,0.9,2.2,0.9s1.6-0.3,2.2-0.9L104,110c0.9-0.9,1.1-1.9,0.6-3.1c-0.5-1.1-1.6-1.6-2.8-1.6H87.3
	c0-13,0-52.6,0-52.6c0-8.9,3.7-16.4,9.8-22.4h16.4c3.4,1,5.8,4,5.8,7.8v1.1v6.5v11.8c0,5.2,4.4,9.9,9.5,9.9h8.3h6.4h1.2
	c4.1,0,7.5,2.6,8.5,6.6v126.3C153.3,205.2,148.8,209.3,143.8,209.3z"/>
</svg>
