<?xml version="1.0" encoding="utf-8"?>
<!-- Generator: Adobe Illustrator 17.1.0, SVG Export Plug-In . SVG Version: 6.00 Build 0)  -->
<!DOCTYPE svg PUBLIC "-//W3C//DTD SVG 1.1//EN" "http://www.w3.org/Graphics/SVG/1.1/DTD/svg11.dtd">
<svg version="1.1" id="Layer_1" xmlns="http://www.w3.org/2000/svg" xmlns:xlink="http://www.w3.org/1999/xlink" x="0px" y="0px"
	 viewBox="0 0 243 243" enable-background="new 0 0 243 243" xml:space="preserve">
<path d="M208.7,70c6.3,1.5,10.9,9.3,9,16.6c-2.8,10.7-6.1,21.3-9.3,31.9c-7.6,25-15.2,50.1-22.8,75.1c-4,13-13,19.8-26.6,19.8
	c-34.7,0-69.4,0-104.1,0c-15.3,0-29.3-11.7-31.5-26.7c-0.5-3.7,0.7-7.7,0.9-11.5c0.2-3.2-0.1-6.3,0.2-9.5c0.2-1.7,0.8-3.6,1.8-4.9
	c4.7-6.1,7.8-13.1,10.1-20.3c1-3.1,1-6.4,1.6-9.6c0.4-1.8,0.7-3.8,1.7-5.2c4.8-6.6,7.5-14.1,9.6-21.8c0.5-1.8,0.5-3.8,0.2-5.6
	c-0.4-3,0.4-5.4,2.5-7.6c6.4-6.3,8.8-14.6,10.7-23c0.2-0.7,0.3-1.5,0.1-2.1c-1.4-4.3,0.8-7.3,3.2-10.6c2.6-3.7,4.3-8.1,6.5-12.1
	c1.2-2.2,2.3-4.6,4.1-6.2c1.8-1.5,4.3-2.7,6.6-3c4.2-0.5,8.5-0.2,12.7-0.2c28.6,0,57.2,0,85.8,0c13.6,0,20.7,9.6,16.8,22.6
	c-5.2,17.4-10.5,34.8-15.8,52.2c-6,19.7-11.8,39.4-18.1,59c-4.3,13.3-8.5,16.1-22.6,16.1c-32.8,0-65.6,0-98.4,0
	c-1.1,0-2.2-0.1-3.3,0.1c-3.1,0.4-4.6,2.4-3.9,5.4c0.9,3.9,3.3,6.7,7.1,7.9c2.7,0.9,5.6,1.6,8.5,1.6c36.4,0.1,72.8,0.1,109.2,0.1
	c6.2,0,10.3-2.7,12.3-9.2c11.1-37,22.4-74,33.6-111C207.8,75.5,208.1,72.7,208.7,70z"/>
<text transform="matrix(1.2348 0 0 1 71.9354 83.1224)" fill="#FFFFFF" font-family="'MyriadPro-BoldIt'" font-size="63.1644">A</text>
<text transform="matrix(1.2348 0 0 1 94.1557 132.1955)" fill="#FFFFFF" font-family="'MyriadPro-BoldIt'" font-size="63.1644">B</text>
<text transform="matrix(1.2348 0 0 1 107.4167 175.8392)" fill="#FFFFFF" font-family="'MyriadPro-BoldIt'" font-size="63.1644">C</text>
</svg>
