<svg id="Layer_1" data-name="Layer 1" xmlns="http://www.w3.org/2000/svg" viewBox="0 0 60.973 74.024"><defs><style>.cls-1{stroke:#000;stroke-miterlimit:10;stroke-width:2px;}</style></defs><title>no-instances-mode-icon</title><path class="cls-1" d="M37.84,1a0.909,0.909,0,0,0-.66.42L27.1,18.881H1.78a0.794,0.794,0,0,0-.78.78v35.4a0.794,0.794,0,0,0,.78.78H20.5a19.414,19.414,0,1,0,32.58-16.38H59.2a0.792,0.792,0,0,0,.66-1.2L38.619,1.421A0.872,0.872,0,0,0,37.84,1h0ZM37.9,3.4L57.76,37.9h-6.6a19.2,19.2,0,0,0-11.4-3.72c-0.6,0-1.2,0-1.8.06V19.661a0.794,0.794,0,0,0-.78-0.78H28.959L37.9,3.4h0ZM2.62,20.5H36.34v13.98a19.4,19.4,0,0,0-15.961,19.08v0.721H2.62V20.5h0Zm37.14,15.24a17.82,17.82,0,1,1-17.82,17.82h0A17.821,17.821,0,0,1,39.76,35.741h0Z"/></svg>