<svg id="Layer_1" data-name="Layer 1" xmlns="http://www.w3.org/2000/svg" viewBox="0 0 48 48"><defs><style>.cls-1{fill:none;}</style></defs><title>roads</title><path class="cls-1" d="M-3.125-2.875h48v48h-48Z" transform="translate(3.125 2.875)"/><path d="M35.365,9.635a5,5,0,0,0-4.78,3.55h-4.81a6.169,6.169,0,0,0-6.49,5.42v3.91a6.22,6.22,0,0,0-3.33-.86h-4.88a3.27,3.27,0,0,1-2.26-.77,3.23,3.23,0,0,1-1.05-1.93V11.9a5,5,0,1,0-3,0v7.35a6.32,6.32,0,0,0,2.11,3.93,6.19,6.19,0,0,0,4.32,1.51h4.82a3.2,3.2,0,0,1,1.92.55,3.56,3.56,0,0,1,1.36,2.61v3.5a5,5,0,0,0,1.68,9.78,4.9,4.9,0,0,0,4.9-4.9q0-.051,0-.1a5,5,0,0,0-3.58-4.9V18.905a3.24,3.24,0,0,1,1.05-1.93,3.31,3.31,0,0,1,2.34-.77H30.6a5,5,0,1,0,4.77-6.57ZM6.235,5.125a2,2,0,1,1-2,2A2,2,0,0,1,6.235,5.125Zm16.75,31a2,2,0,1,1-2-2A2,2,0,0,1,22.985,36.125ZM35.365,16.7a2,2,0,1,1,2-2A2,2,0,0,1,35.365,16.7Z" transform="translate(3.125 2.875)"/><path class="cls-1" d="M-2.875-2.625h47.75v47.75H-2.875Z" transform="translate(3.125 2.875)"/></svg>