<?xml version="1.0" encoding="utf-8"?>
<!-- Generator: Adobe Illustrator 19.2.1, SVG Export Plug-In . SVG Version: 6.00 Build 0)  -->
<svg version="1.1" id="Layer_1" xmlns="http://www.w3.org/2000/svg" xmlns:xlink="http://www.w3.org/1999/xlink" x="0px" y="0px"
	 viewBox="0 0 100 96.8" style="enable-background:new 0 0 100 96.8;" xml:space="preserve">
<path d="M14.2,64.4c-1.4,1.5-4.1,1.1-5.9-0.8l0,0c-1.8-1.9-2.2-4.6-0.7-6.1l20.8-21.2c1.4-1.5,4.1-1.1,5.9,0.8l0,0
	c1.8,1.9,2.2,4.6,0.7,6.1L14.2,64.4z"/>
<path d="M44.3,6.5c-11.4,0-20.6,9.2-20.6,20.6s9.2,20.6,20.6,20.6s20.6-9.2,20.6-20.6C64.9,15.7,55.7,6.5,44.3,6.5z M44.3,39.5
	c-6.8,0-12.4-5.5-12.4-12.4s5.5-12.4,12.4-12.4s12.4,5.5,12.4,12.4C56.7,33.9,51.1,39.5,44.3,39.5z"/>
<g>
	<rect x="48" y="68.3" width="29.8" height="3.3"/>
	<rect x="48" y="58.9" width="29.8" height="3.3"/>
	<rect x="48" y="49.5" width="29.8" height="3.3"/>
	<path d="M52.7,17.5l-0.3,0.3c2.6,2.3,4.3,5.6,4.3,9.3c0,6.8-5.5,12.4-12.4,12.4c-3.6,0-6.9-1.6-9.1-4l-1.7,1.8v51.6H92V17.5H52.7z
		 M83.6,80.4H41.9V40H57V25.9h26.5V80.4z"/>
</g>
</svg>
