<svg id="Layer_1" data-name="Layer 1" xmlns="http://www.w3.org/2000/svg" viewBox="0 0 32 30"><title>script</title><path d="M28,7a1,1,0,0,1-1-1,2,2,0,0,0-2-2H5A1,1,0,0,1,5,2H25a4,4,0,0,1,4,4A1,1,0,0,1,28,7Zm0,20a1,1,0,0,1-1-1V6a1,1,0,0,1,2,0V26A1,1,0,0,1,28,27ZM28,7a1,1,0,0,1-1-1,2,2,0,0,0-2-2H5A1,1,0,0,1,5,2H25a4,4,0,0,1,4,4A1,1,0,0,1,28,7Zm0,25c-2.56,0-16.1-1.865-17.1-2A4.277,4.277,0,0,1,7,25.83V9H2A1,1,0,0,1,1,8V6.17A4.089,4.089,0,0,1,4.787,2.006,3.942,3.942,0,0,1,7.753,3.1,4.02,4.02,0,0,1,9,6V25.83A2.254,2.254,0,0,0,11.043,28h.018a1.777,1.777,0,0,0,1.322-.476A2.1,2.1,0,0,0,13,26a1,1,0,0,1,1-1H32a1,1,0,0,1,1,1v1A4.836,4.836,0,0,1,28,32ZM14.234,28.431C19.428,29.125,26.384,30,28,30a2.844,2.844,0,0,0,3-3H14.882A4.079,4.079,0,0,1,14.234,28.431ZM3,7H7V6A2,2,0,0,0,4.891,4,2.119,2.119,0,0,0,3,6.17Z" transform="translate(-1 -2)"/></svg>