<svg id="Layer_1" data-name="Layer 1" xmlns="http://www.w3.org/2000/svg" viewBox="0 0 95 78.6"><title>see-customized-forms</title><path d="M63.5,78.6H1.8A1.793,1.793,0,0,1,0,76.8V1.8A1.793,1.793,0,0,1,1.8,0H63.5a1.793,1.793,0,0,1,1.8,1.8V39.3a1.8,1.8,0,0,1-3.6,0V3.7H3.7V75h58V69.3a1.8,1.8,0,1,1,3.6,0v7.5A1.793,1.793,0,0,1,63.5,78.6Z"/><path d="M56.7,64.1a2.106,2.106,0,0,1-1.3-.5,1.856,1.856,0,0,1-.4-2.1l4-7.7c0.1-.2.2-0.3,0.3-0.5L88.2,24a1.871,1.871,0,0,1,2.6,0l3.6,3.5a1.612,1.612,0,0,1,.6,1.3,1.9,1.9,0,0,1-.5,1.3l-29,29.3c-0.1.1-.3,0.2-0.4,0.3l-7.6,4.2A1.077,1.077,0,0,1,56.7,64.1Zm5.4-8.4L61,57.8l2.1-1.2L90.5,28.8l-1-1Z"/><path d="M54.6,20.2H10.7a1.367,1.367,0,0,1-1.4-1.4V11.5a1.367,1.367,0,0,1,1.4-1.4H54.6A1.367,1.367,0,0,1,56,11.5v7.3A1.367,1.367,0,0,1,54.6,20.2ZM12.1,17.5H53.2V12.9H12.1v4.6Z"/><path d="M54.6,36.5H10.7a1.367,1.367,0,0,1-1.4-1.4V27.8a1.367,1.367,0,0,1,1.4-1.4H54.6A1.367,1.367,0,0,1,56,27.8v7.3A1.367,1.367,0,0,1,54.6,36.5ZM12.1,33.8H53.2V29.2H12.1v4.6Z"/><path d="M54.7,52.8H10.8a1.367,1.367,0,0,1-1.4-1.4V44.1a1.367,1.367,0,0,1,1.4-1.4H54.7a1.367,1.367,0,0,1,1.4,1.4v7.3A1.43,1.43,0,0,1,54.7,52.8ZM12.2,50.1H53.3V45.5H12.2v4.6Z"/><path d="M20.2,69.6H12a1.367,1.367,0,0,1-1.4-1.4V60A1.367,1.367,0,0,1,12,58.6h8.2A1.367,1.367,0,0,1,21.6,60v8.2A1.5,1.5,0,0,1,20.2,69.6Zm-6.9-2.7h5.5V61.4H13.3v5.5Z"/><path d="M36.3,69.6H28.1a1.367,1.367,0,0,1-1.4-1.4V60a1.367,1.367,0,0,1,1.4-1.4h8.2A1.367,1.367,0,0,1,37.7,60v8.2A1.43,1.43,0,0,1,36.3,69.6Zm-6.9-2.7h5.5V61.4H29.4v5.5Z"/><path d="M51.5,69.6H45.2a1.367,1.367,0,0,1-1.4-1.4V60a1.367,1.367,0,0,1,1.4-1.4h6.2a1.4,1.4,0,0,1,0,2.8H46.5v5.5h5a1.367,1.367,0,0,1,1.4,1.4A1.344,1.344,0,0,1,51.5,69.6Z"/></svg>