<svg id="Layer_1" data-name="Layer 1" xmlns="http://www.w3.org/2000/svg" viewBox="0 0 120 120"><title>icon</title><path d="M46.84,63.35l5,5a3.56,3.56,0,0,0,5,0l5-5L88.47,36.72a3.56,3.56,0,0,0,0-5l-5-5a3.56,3.56,0,0,0-5,0L54.34,50.88,43.53,40a3.56,3.56,0,0,0-5,0l-5,5a3.56,3.56,0,0,0,0,5Z"/><path d="M37.75,93h6.1l1.64,5h5.18l-6.6-21H37.75L31.25,98h5Zm2-8.71a31.7,31.7,0,0,0,1-4.29h0.06a26.87,26.87,0,0,0,1.07,4.29L43.16,89H38.45Z"/><path d="M65,86.53V86.47c2-.88,3.54-2.65,3.54-4.55A4.62,4.62,0,0,0,66,77.75c-1.55-.92-3.09-1.2-6-1.2A32.75,32.75,0,0,0,54,77V97.9a32.36,32.36,0,0,0,5,.32c4.23,0,6.7-.7,8.25-1.93a5.59,5.59,0,0,0,2.11-4.52C69.33,89,68,87.2,65,86.53Zm-7-6.35c1-.06,1.15-0.13,2.19-0.13,2.18,0,3.48.78,3.48,2.39S62.39,85,59.86,85H58V80.19Zm2,14.47c-0.82,0-1,0-2-.06V89h1.92c2.4,0,4.26.65,4.26,2.79S62.18,94.65,60,94.65Z"/><path d="M83.45,80.34a10.41,10.41,0,0,1,4,.79l1-3.82a12.57,12.57,0,0,0-5.24-.95c-6.44,0-11.62,4-11.62,11.31,0,6.06,3.79,10.68,11.15,10.68a13.56,13.56,0,0,0,5.46-.95l-0.73-3.76a12,12,0,0,1-4,.7c-4.3,0-6.82-2.69-6.82-6.95C76.66,82.65,79.63,80.34,83.45,80.34Z"/><path d="M104,10H16a6,6,0,0,0-6,6v88a6,6,0,0,0,6,6h88a6,6,0,0,0,6-6V16A6,6,0,0,0,104,10Zm0,94H16V16h88v88Z"/></svg>