<?xml version="1.0" encoding="utf-8"?>
<!-- Generator: Adobe Illustrator 20.0.0, SVG Export Plug-In . SVG Version: 6.00 Build 0)  -->
<svg version="1.1" id="Layer_1" xmlns="http://www.w3.org/2000/svg" xmlns:xlink="http://www.w3.org/1999/xlink" x="0px" y="0px"
	 viewBox="0 0 120 120" style="enable-background:new 0 0 120 120;" xml:space="preserve">
<path d="M9.2,15.9c-1.4,0-2.5,1.1-2.5,2.5V101c0,1.4,1.1,2.5,2.5,2.5H112c1.4,0,2.5-1.1,2.5-2.5V18.4c0-1.4-1.1-2.5-2.5-2.5H9.2z
	 M13.4,22.6h13.5v13.5H13.4V22.6z M28.6,22.6h38.8v13.5H28.6V22.6z M69.1,22.6h38.8v13.5H69.1V22.6z M13.4,37.8h13.5v13.5H13.4V37.8
	z M28.6,37.8h38.8v13.5H28.6V37.8z M69.1,37.8h38.8v13.5H69.1V37.8z M13.4,53h13.5v13.5H13.4V53z M28.6,53h38.8v13.5H28.6V53z
	 M69.1,53h38.8v13.5H69.1V53z M13.4,68.1h13.5v13.5H13.4V68.1z M28.6,68.1h38.8v13.5H28.6V68.1z M69.1,68.1h38.8v13.5H69.1V68.1z
	 M13.4,83.3h13.5v13.5H13.4V83.3z M28.6,83.3h38.8v13.5H28.6V83.3z M69.1,83.3h38.8v13.5H69.1V83.3z"/>
</svg>
