<svg id="Layer_1" data-name="Layer 1" xmlns="http://www.w3.org/2000/svg" viewBox="0 0 120 120"><title>icon</title><path d="M59.21,92.48c-0.06-.28-0.11-0.92-0.11-1-0.06-.9.9-1.55,0.84-2.39a1.17,1.17,0,0,1-.67-1.48,4.07,4.07,0,0,1,1.62-2.25,3.16,3.16,0,0,0,.67-2.69c-0.28-1.34-.28-2.75-0.5-4.09,0.06,0.34,1,.22,1.18.67A13.46,13.46,0,0,1,62.85,78a4.27,4.27,0,0,1,1-.73l0,0a5.34,5.34,0,0,1,1.1-1.6L84.44,56.11a5.25,5.25,0,0,1,7.47,0l4,4c0.07-1,.12-2,0.12-3a43,43,0,1,0-43,43,43.69,43.69,0,0,0,23-6.68V85H75.72A33.92,33.92,0,0,1,59.21,92.48ZM58,78.55a0.89,0.89,0,0,1-.39.5c-0.56-.67-1.51-1-2-1.68-0.11-.17-1.62-2.46-1.29-2.58-0.78.34-2.35-.22-3.08-0.62-1.18-.62-1.34-2.24-2.8-2-1,.17-1.29.56-2.46,0.11A22.1,22.1,0,0,1,43.7,71c-0.9-.5-2.46-1-2.8-2.13-0.34-.9-0.22-2-0.73-2.8-0.34-.56-1.34-1.68-2.07-1.68,0.67,0-.62-1.68-0.78-1.85-0.62-.73-2.86-2.69-2.41-3.81,0.11-.17-1.12-0.62-1.34-0.67a14.75,14.75,0,0,0,.56,1.68c0.28,0.56.62,1.06,1,1.62,0.62,1,1.46,2.24,1.34,3.47-0.73.22-.5-0.84-0.73-1.29-0.39-.73-1.46-0.73-1.74-1.51C34.07,62,34.12,62,34.23,62c0.06-1-1.34-1.74-1.12-2.41-0.78-.62-0.78-1.79-1.34-2.58a7.23,7.23,0,0,0-2.07-1.57c-0.28-.17-2.3-2.74-1.57-2.91-1.12.28-1.68-2.35-1.51-3,0,0-.11,0-0.11-0.06,0.22-.67-0.17-4.14.73-4.2-0.62.06-.78-1.46-0.62-1.74s1,0.62,1,.73a1,1,0,0,0,.56-1A3.92,3.92,0,0,0,27,42c-0.17-.11-2.41-1.57-2.46-1.51a0.78,0.78,0,0,0-.17-1.06c-1.06.84-.5-0.78-1.06-1a1.57,1.57,0,0,1-.67-0.45A36.4,36.4,0,0,1,35.8,25.63,8.27,8.27,0,0,1,37,25.58c1,0.11,1.57,1,2.3,1.46A1.4,1.4,0,0,0,39,26a1.71,1.71,0,0,1,1.23-.67,3.39,3.39,0,0,1,1.68.06A13.63,13.63,0,0,0,40.84,24a1.32,1.32,0,0,0-.28.28c-0.62-.5-1.79.17-2.35,0.39a14.17,14.17,0,0,1-1.29.67,1,1,0,0,1-.67.06,34,34,0,0,1,5.26-2.3c0.34,0.22.67,0.62,1.18,1-0.34-.28-0.34,1-0.22,1.23,0.62,0.84,2,.28,2.8.28-0.05,0,2.11.29,2-.16a7.7,7.7,0,0,0,.84,1.79c0.5-.5-0.22-1.06.11-1.57A5.91,5.91,0,0,1,49.69,25c0.39-.28-0.28-0.67-0.45-0.78-0.56-.34-2.74-0.5-1.68-1.79,0.39-.45,1.79-0.22,2.24.06,0.62,0.34,1.29,1,.45,1.51,0.39,0.06,2.24.56,2,1.29a1.23,1.23,0,0,1,.9-0.84c0.5,0.06.62,1.23,0.84,1.51,0.78,1.4,2.13-1.4,2.35-1.29-1-.39.9-0.9,1.4-0.73s1,1.51.28,1.46c0.62,0.56.67,1.79-.45,1.74-0.78-.06-1.68-1.12-2.41-0.28-0.5.56-.73,1.4-1.23,1.9a3.18,3.18,0,0,1-2.8.62c0.39,0.06-.84,1.34-1,1.57a3.17,3.17,0,0,0-.67,1.29A6.23,6.23,0,0,1,49.18,34c1-.28,1.46,1.46,1.06,1.51a6.38,6.38,0,0,1,3.25.22c0.78,0.28,2,.62,2.3,1.46,0.22-.34,1.29-0.17,1.62-0.06a2.2,2.2,0,0,1,.9,1.68c0.22,0.84,1,2.24,1.9,1.79,0.17-.11,1.4-0.67,1-1s-1-1.4-.5-2,1.51-.78,1.79-1.57c0.45-1.29-1.34-1.12-1.34-2.07,0-.56.73-0.73,0.67-1.4s-0.84-1.68-.17-2.07,3.25,0,3.75.38A16.07,16.07,0,0,0,67.55,32H67.27c0.45,1,.84,1.41.06,1.63,0.5-.11,2,0.54,1,0.87a5.88,5.88,0,0,0,1-.24c0.39-.22.62-0.59,1.12-0.31,0.11,0.06.73-1.16,1.06-1.11,0.5,0.06.62,0.79,0.84,1.12,0.22,0.5.84,0.67,1.06,1.18,0.39,1,.22,1.85,1.51,2.19,0.39,0.11,1.46-.5,1.4.34a1.18,1.18,0,0,0,.34-0.45c0.06,0.78.39,1.68,1.34,1.57A5.25,5.25,0,0,1,77.8,40c-0.34.5-1.18,0.39-1.68,0.67-0.17.06-1.51,1.23-1.34,1.4a2.82,2.82,0,0,0-2.86-.62,12.92,12.92,0,0,0-2.91.67,3.71,3.71,0,0,0-1.23.84A4.08,4.08,0,0,1,67,44.28a3.86,3.86,0,0,0,1.29-1.06,3.38,3.38,0,0,1,2.41-.67c0.62,0.17,1.12.39,0.39,0.9a4.39,4.39,0,0,1-1.23.11c0.5,0.11,1.23.34,1,.84,1.46,0.84-.45,1.85-1.4,1.74,0.45,0.06-1,.9-1,0.84a4.14,4.14,0,0,0-1.57.78c-0.45.62,0.17,1.68-.67,1.46-0.34.73-1.62,0.34-2.18,1.12,0.62,0.67-.62,1.62-1.23.78-0.56.22-.28,0.84-0.84,1.18a0.55,0.55,0,0,1-.11.9,6,6,0,0,1,1,.56,0.71,0.71,0,0,1-.62.5,2,2,0,0,1-.84,2,13.17,13.17,0,0,1-2,1c-1,1-1.68,2.35.11,2.74,0.06,0,.06,1.85.11,1.9,0.11,0.67.39,2.63-.78,1.9-0.56-.28-0.9-1.85-1.06-2.46A3,3,0,0,0,57.13,60c-0.73.84-.84,0.22-1.46-0.17s-1.51-.22-1.85-0.56c-0.84.62-1.46,0.45-1.62-.5A2.75,2.75,0,0,0,52.37,60c-0.28.56-.78,0.45-1.23,0.11-0.73-.56-2.3.39-3.14,0a4.47,4.47,0,0,1,.45.34c-0.17.67-.56,0.28-0.9,0.5s-0.73.84-1.06,1.12c0.73,1.4-.06,2.74,0,4.25A5,5,0,0,0,48.29,70,4.9,4.9,0,0,0,51,70.2c0.78-.34.67-1,1-1.62a1.45,1.45,0,0,1,1.46-1.12c2.41-.11.56,1.85,0.28,2.86-0.17.73-.22,1.57-0.34,2.24a2.13,2.13,0,0,0,.84.06c0-.22.17-0.5,0.17-0.67a1.1,1.1,0,0,0,1.79.06c0.39,0.67,1.18,1.18,1.29,2s0.84,1.62-.22,1.62c-0.78,0,.11,1.57.22,1.85a2,2,0,0,0,2.74,1c0,0.45-.17,1.68-0.78,1.79A1.69,1.69,0,0,1,58,78.55Z"/><path d="M109.32,77.84L89.79,58.27a2.3,2.3,0,0,0-1.61-.7,2.27,2.27,0,0,0-1.61.67L67,77.76a2.68,2.68,0,0,0-.68,1.78A2.46,2.46,0,0,0,68.65,82H79v21.75A2.26,2.26,0,0,0,81.29,106H95.07A2,2,0,0,0,97,103.75V82h10.7A2.46,2.46,0,0,0,109.32,77.84Z"/></svg>