<?xml version="1.0" encoding="utf-8"?>
<!-- Generator: Adobe Illustrator 19.2.1, SVG Export Plug-In . SVG Version: 6.00 Build 0)  -->
<svg version="1.1" id="Layer_1" xmlns="http://www.w3.org/2000/svg" xmlns:xlink="http://www.w3.org/1999/xlink" x="0px" y="0px"
	 viewBox="0 0 100 99.3" style="enable-background:new 0 0 100 99.3;" xml:space="preserve">
<path d="M95,37.6l-10-10L53.4,59L41,46.6L72.4,15l-10-10H95V37.6z M95,50v20c0,14-11,25-25,25H30C16,95,5,84,5,70V30C5,16,16,5,30,5
	h20v13H30c-7,0-12,5-12,12v40c0,7,5,12,12,12h40c7,0,12-5,12-12V50H95z"/>
</svg>
