<?xml version="1.0" encoding="utf-8"?>
<!-- Generator: Adobe Illustrator 21.0.2, SVG Export Plug-In . SVG Version: 6.00 Build 0)  -->
<svg version="1.1" id="Layer_1" xmlns="http://www.w3.org/2000/svg" xmlns:xlink="http://www.w3.org/1999/xlink" x="0px" y="0px"
	 viewBox="0 0 71.6 88.4" style="enable-background:new 0 0 71.6 88.4;" xml:space="preserve">
<path d="M65.9,0l-7.1,0c-3.1,0-5.7,2.5-5.7,5.7v5.4H41.6c-1,0-1.9,0.8-1.9,1.9v29.3h-8V30.6c0-4.1-3.4-7.5-7.5-7.5H7.5
	c-4.1,0-7.5,3.4-7.5,7.5l0,27.2c0,4.1,3.4,7.5,7.5,7.5h16.7c4.1,0,7.5-3.4,7.5-7.5V46.1h8v29.3c0,1,0.8,1.9,1.9,1.9h11.5v5.4
	c0,3.1,2.5,5.7,5.7,5.7h7.1c3.1,0,5.7-2.5,5.7-5.7V68.1c0-3.1-2.5-5.7-5.7-5.7h-7.1c-3.1,0-5.7,2.5-5.7,5.7v5.4h-9.6V46.1h9.6v5.4
	c0,3.1,2.5,5.7,5.7,5.7h7.1c3.1,0,5.7-2.5,5.7-5.7V36.9c0-3.1-2.5-5.7-5.7-5.7h-7.1c-3.1,0-5.7,2.5-5.7,5.7v5.4h-9.6V14.9h9.6v5.4
	c0,3.1,2.5,5.7,5.7,5.7h7.1c3.1,0,5.7-2.5,5.7-5.7V5.7C71.6,2.6,69,0,65.9,0z M24.4,61.4H7.7c-2.1,0-3.7-1.7-3.7-3.7V30.5
	c0-2.1,1.7-3.7,3.7-3.7h16.7c2.1,0,3.7,1.7,3.7,3.7v27.2C28.1,59.7,26.4,61.4,24.4,61.4z M58.8,66h7.1c1.1,0,1.9,0.9,1.9,1.9v14.6
	c0,1.1-0.9,1.9-1.9,1.9h-7.1c-1.1,0-1.9-0.9-1.9-1.9V67.9C56.9,66.9,57.8,66,58.8,66z M58.8,34.9h7.1c1.1,0,1.9,0.9,1.9,1.9v14.6
	c0,1.1-0.9,1.9-1.9,1.9h-7.1c-1.1,0-1.9-0.9-1.9-1.9V36.8C56.9,35.8,57.8,34.9,58.8,34.9z M65.9,3.8c1.1,0,1.9,0.9,1.9,1.9v14.6
	c0,1.1-0.9,1.9-1.9,1.9h-7.1c-1.1,0-1.9-0.9-1.9-1.9V5.7c0-1.1,0.9-1.9,1.9-1.9H65.9z"/>
</svg>
