<?xml version="1.0" encoding="utf-8"?>
<!-- Generator: Adobe Illustrator 21.0.2, SVG Export Plug-In . SVG Version: 6.00 Build 0)  -->
<svg version="1.1" id="Layer_1" xmlns="http://www.w3.org/2000/svg" xmlns:xlink="http://www.w3.org/1999/xlink" x="0px" y="0px"
	 viewBox="0 0 98.9 91.8" style="enable-background:new 0 0 98.9 91.8;" xml:space="preserve">
<style type="text/css">
	.st0{stroke:#000000;stroke-width:2;stroke-miterlimit:10;}
</style>
<g>
	<path class="st0" d="M43.9,59.4c-8.1,0-14.8-6.6-14.8-14.8s6.6-14.8,14.8-14.8c8.1,0,14.8,6.6,14.8,14.8S52.1,59.4,43.9,59.4z
		 M43.9,33.4c-6.2,0-11.2,5-11.2,11.2c0,6.2,5,11.2,11.2,11.2s11.2-5,11.2-11.2C55.2,38.4,50.1,33.4,43.9,33.4z"/>
</g>
<g>
	<polygon class="st0" points="33.8,36.3 16.7,18.5 19.3,16 36.4,33.9 	"/>
</g>
<g>
	
		<rect x="49.6" y="26.2" transform="matrix(0.6722 -0.7404 0.7404 0.6722 -1.2844 53.0396)" class="st0" width="19.3" height="3.5"/>
</g>
<g>
	<rect x="66.6" y="38.3" transform="matrix(0.25 -0.9682 0.9682 0.25 2.4856 103.9899)" class="st0" width="3.5" height="24.2"/>
</g>
<g>
	<path class="st0" d="M47.8,76c-5.5-24.8-4.4-19.5-2.9-20.1l1.3,3.3l-0.6-1.6l1.7-0.3c0.1,0.7,2,9,4,18L47.8,76z"/>
</g>
<g>
	<polygon class="st0" points="15.2,52.1 14.6,48.7 30.9,45.6 31.5,49.1 	"/>
</g>
<g>
	<path class="st0" d="M12.4,21.2c-5.6,0-10.1-4.5-10.1-10.1C2.2,5.5,6.8,1,12.4,1c5.6,0,10.1,4.5,10.1,10.1S17.9,21.2,12.4,21.2z
		 M12.4,4.5c-3.6,0-6.6,3-6.6,6.6s3,6.6,6.6,6.6s6.6-3,6.6-6.6C19,7.5,16,4.5,12.4,4.5z"/>
</g>
<g>
	<path class="st0" d="M87.8,66.1c-5.6,0-10.1-4.5-10.1-10.1c0-5.6,4.5-10.1,10.1-10.1c5.6,0,10.1,4.5,10.1,10.1S93.4,66.1,87.8,66.1
		z M87.8,49.4c-3.6,0-6.6,3-6.6,6.6s3,6.6,6.6,6.6s6.6-3,6.6-6.6S91.5,49.4,87.8,49.4z"/>
</g>
<g>
	<path class="st0" d="M8.7,59.3c-4.3,0-7.7-3.5-7.7-7.7s3.5-7.7,7.7-7.7c4.3,0,7.7,3.5,7.7,7.7S13,59.3,8.7,59.3z M8.7,47.3
		c-2.3,0-4.2,1.9-4.2,4.2s1.9,4.2,4.2,4.2c2.3,0,4.2-1.9,4.2-4.2S11.1,47.3,8.7,47.3z"/>
</g>
<g>
	<path class="st0" d="M68.2,23.8c-3.3,0-5.9-2.7-5.9-5.9c0-3.3,2.7-5.9,5.9-5.9c3.3,0,5.9,2.7,5.9,5.9
		C74.1,21.1,71.4,23.8,68.2,23.8z M68.2,15.4c-1.3,0-2.4,1.1-2.4,2.4c0,1.3,1.1,2.4,2.4,2.4c1.3,0,2.4-1.1,2.4-2.4
		C70.6,16.5,69.5,15.4,68.2,15.4z"/>
</g>
<g>
	<path class="st0" d="M50.9,90.8c-5.2,0-9.5-4.3-9.5-9.5c0-5.2,4.3-9.5,9.5-9.5c5.2,0,9.5,4.3,9.5,9.5
		C60.4,86.5,56.1,90.8,50.9,90.8z M50.9,77.4c-2.1,0-3.9,1.7-3.9,3.9c0,2.1,1.7,3.9,3.9,3.9c2.1,0,3.9-1.7,3.9-3.9
		C54.8,79.1,53,77.4,50.9,77.4z"/>
</g>
</svg>
