<?xml version="1.0" encoding="utf-8"?>
<svg version="1.1" x="0px" y="0px" viewBox="0 0 100 125" style="enable-background:new 0 0 100 100;" xmlns="http://www.w3.org/2000/svg" xmlns:bx="https://boxy-svg.com">
  <path style="fill: rgb(216, 216, 216); stroke: rgb(0, 0, 0);" d="M 20.258 25.423 L 1.013 117.34 L 97.165 116.849 L 66.676 25.105" transform="matrix(1, 0.000813, -0.000813, 1, 0.057476, -0.039901)"/>
  <g transform="matrix(-0.400816, -0.824079, 0.824079, -0.400816, 9.848583, 150.512482)">
    <path d="M 19.589 73.352 L 17.107 68.742 C 14.226 70.293 11.726 73.278 9.461 77.866 L 14.158 80.183 C 15.873 76.702 17.751 74.341 19.589 73.352 Z"/>
    <path d="M 7.924 94.663 C 10.67 94.663 12.897 92.436 12.897 89.689 C 12.897 88.284 12.308 87.019 11.371 86.114 C 11.784 84.697 12.209 83.344 12.643 82.094 L 7.699 80.373 C 7.195 81.821 6.705 83.381 6.23 85.032 C 4.322 85.727 2.951 87.54 2.951 89.689 C 2.951 92.436 5.178 94.663 7.924 94.663 Z"/>
    <path d="M 52.175 90.239 C 52.092 90.243 51.973 90.245 51.924 90.246 C 51.284 90.246 50.649 90.116 49.988 89.849 L 48.03 94.704 C 49.309 95.222 50.619 95.482 51.924 95.482 C 52.128 95.47 52.279 95.478 52.456 95.468 C 55.254 95.32 57.82 94.05 60.302 91.588 L 56.613 87.871 C 55.084 89.388 53.634 90.162 52.175 90.239 Z"/>
    <path d="M 61.893 81.09 C 60.873 82.864 59.816 84.697 58.759 86.345 L 63.164 89.174 C 64.291 87.42 65.377 85.529 66.43 83.702 C 67.132 82.483 67.832 81.266 68.543 80.089 L 64.063 77.379 C 63.333 78.589 62.613 79.839 61.893 81.09 Z"/>
    <path d="M 79.06 66.26 C 78.516 66.239 77.938 66.239 77.309 66.261 C 73.983 66.386 70.941 68.154 68.01 71.668 L 72.029 75.023 C 73.982 72.682 75.722 71.562 77.503 71.495 C 77.978 71.478 78.429 71.477 78.846 71.494 L 79.06 66.26 Z"/>
    <path d="M 30.119 79.457 L 34.307 76.313 C 32.159 73.453 29.238 69.971 25.676 68.42 L 23.584 73.22 C 26.052 74.295 28.496 77.294 30.119 79.457 Z"/>
    <path d="M 90.21 89.842 C 90.21 93.727 93.371 96.887 97.256 96.887 C 101.142 96.887 104.302 93.727 104.302 89.842 C 104.302 85.957 101.142 82.796 97.256 82.796 C 97.043 82.796 96.843 82.841 96.634 82.859 C 95.638 78.267 94.687 75.104 93.033 72.884 L 88.832 76.012 C 90.009 77.592 90.831 80.68 91.705 84.831 L 92.523 84.659 C 91.112 85.947 90.21 87.784 90.21 89.842 Z M 99.065 89.842 C 99.065 90.839 98.254 91.651 97.256 91.651 C 96.257 91.651 95.446 90.839 95.446 89.842 C 95.446 88.844 96.257 88.033 97.256 88.033 C 98.254 88.033 99.065 88.844 99.065 89.842 Z"/>
    <path d="M 37.648 93.509 C 37.648 97.395 40.809 100.555 44.694 100.555 C 48.58 100.555 51.74 97.395 51.74 93.509 C 51.74 89.624 48.58 86.464 44.694 86.464 C 44.481 86.464 44.281 86.508 44.072 86.527 C 43.076 81.935 42.125 78.772 40.471 76.552 L 36.27 79.679 C 37.447 81.259 38.269 84.347 39.142 88.498 L 39.961 88.327 C 38.549 89.615 37.648 91.451 37.648 93.509 Z M 46.503 93.509 C 46.503 94.507 45.692 95.318 44.694 95.318 C 43.695 95.318 42.884 94.507 42.884 93.509 C 42.884 92.512 43.695 91.7 44.694 91.7 C 45.692 91.7 46.503 92.512 46.503 93.509 Z" transform="matrix(0.906039, -0.423194, 0.423194, 0.906039, -33.340563, 26.943225)"/>
    <path d="M 90.631 65.12 C 90.087 65.099 89.509 65.099 88.88 65.121 C 85.554 65.246 82.512 67.014 79.581 70.528 L 83.6 73.883 C 85.553 71.542 87.293 70.422 89.074 70.355 C 89.549 70.338 90 70.337 90.417 70.354 L 90.631 65.12 Z" transform="matrix(0.603939, 0.797031, -0.797031, 0.603939, 89.095776, -40.308346)"/>
  </g>
  <g transform="matrix(1, 0, 0, 1.250009, 24.562531, -23.731916)">
    <ellipse cx="20.696" cy="29.172" rx="17.764" ry="9.778" style="fill: rgb(235, 234, 210); stroke: rgb(7, 12, 166);"/>
    <g transform="matrix(1, 0, 0, 1, -9.615385, -3.911343)">
      <g transform="matrix(0.629049, 0, 0, 0.549374, -1.382919, 5.696223)">
        <path stroke="#000000" stroke-width="0.5" stroke-miterlimit="10" d="M32.4,53.1v0.5c0,1.3-1.1,2.4-2.4,2.4h-0.1   c-1.3,0-2.4-1.1-2.4-2.4v-1.8c0-2.3,0.3-4,0.8-5c0.7-1.4,1.9-2.4,3.4-3.1l1.1,1.8c-0.9,0.4-1.6,1-2.1,1.8C30.3,48,30,49.2,30,50.7   h0C31.3,50.7,32.4,51.7,32.4,53.1z M40.4,53.1v0.5c0,1.3-1.1,2.4-2.4,2.4h-0.1c-1.3,0-2.4-1.1-2.4-2.4v-1.8c0-2.3,0.3-4,0.8-5   c0.7-1.4,1.9-2.4,3.4-3.1l1.1,1.8c-0.9,0.4-1.6,1-2.1,1.8c-0.4,0.8-0.7,1.9-0.7,3.4l0,0C39.3,50.7,40.4,51.7,40.4,53.1z" style="fill: rgb(7, 12, 166);"/>
        <path stroke="#000000" stroke-width="0.5" stroke-miterlimit="10" d="M59.6,46.9v-0.5c0-1.3,1.1-2.4,2.4-2.4h0.1   c1.3,0,2.4,1.1,2.4,2.4v1.8c0,2.3-0.3,3.9-0.8,5c-0.7,1.4-1.9,2.4-3.4,3.1l-1.1-1.8c0.9-0.4,1.6-1,2.1-1.8s0.7-1.9,0.8-3.3h0   C60.7,49.3,59.6,48.3,59.6,46.9z M67.6,46.9v-0.5c0-1.3,1.1-2.4,2.4-2.4h0.1c1.3,0,2.4,1.1,2.4,2.4v1.8c0,2.3-0.3,3.9-0.8,5   c-0.7,1.4-1.9,2.4-3.4,3.1l-1.1-1.8c0.9-0.4,1.6-1,2.1-1.8c0.5-0.8,0.7-1.9,0.8-3.3l0,0C68.7,49.3,67.6,48.3,67.6,46.9z" style="fill: rgb(7, 12, 166);"/>
      </g>
      <g transform="matrix(0.32966, 0, 0, 0.32966, 14.79357, 26.382742)">
        <circle cx="56.5" cy="27" r="3.0" style="fill: rgb(7, 12, 166);"/>
        <circle cx="46.5" cy="27" r="3.0" style="fill: rgb(7, 12, 166);"/>
        <circle cx="36.5" cy="27" r="3.0" style="fill: rgb(7, 12, 166);"/>
      </g>
    </g>
  </g>
  <line style="stroke-dasharray: 0; stroke-dashoffset: 1; stroke-width: 2; fill: rgb(235, 234, 210); stroke: rgb(7, 12, 166);" x1="51.028" y1="28.512" x2="49.668" y2="21.895" transform="matrix(-0.968827, -0.247737, 0.247737, -0.968827, 88.135296, 65.014041)" bx:origin="-1.25 0.5"/>
  <path d="M 30.099 23.081 L 30.099 28.739 L 25.136 28.739 L 30.099 23.081 Z" transform="matrix(0.617842, 0.786303, -0.803895, 0.595453, 49.272301, -5.747776)" style="fill: rgb(7, 12, 166);" bx:shape="triangle 25.136 23.081 4.963 5.658 1 0 1@f5babbea"/>
  <path d="M 6.681877136230469 34.87614059448242" style="stroke: rgb(0, 0, 0); fill: rgb(216, 216, 216);"/>
  <path style="fill: rgb(216, 216, 216); stroke: rgb(0, 0, 0);" d="M 17.656 83.506" transform="matrix(0.947216, 0.320597, -0.320597, 0.947216, 27.703722, -1.252655)"/>
  <line style="stroke-dasharray: 2; stroke: rgba(0, 0, 0, 0.408);" x1="15.971" y1="45.306" x2="73.339" y2="45.306"/>
  <line style="stroke-dasharray: 2; stroke: rgba(0, 0, 0, 0.408);" x1="9.615" y1="82.953" x2="84.095" y2="82.953"/>
</svg>