<svg id="Layer_1" data-name="Layer 1" xmlns="http://www.w3.org/2000/svg" viewBox="0 0 120 120"><title>icon</title><path d="M61.29,15.61L11.1,25.78A1.34,1.34,0,0,0,10,27V96.34a1.23,1.23,0,0,0,1.06,1.21l50.31,6.85A1.45,1.45,0,0,0,63,103.19V16.81A1.44,1.44,0,0,0,61.29,15.61ZM33.58,79.75c-2.94,0-6.33-.85-8-2.16l1.62-6.1a12.9,12.9,0,0,0,6.49,2c2.93,0,4.71-1.62,4.71-4.33,0-2.32-1.08-3.86-4.56-6.1-5.56-3.32-7.65-7-7.65-10.74C26.17,45.84,31,41,37.68,41a14.74,14.74,0,0,1,7.26,1.85L43.24,49a9.56,9.56,0,0,0-5.18-1.62c-2.86,0-4.25,1.85-4.25,3.94s0.93,3.17,4.56,5.48c5,3,7.65,6.72,7.65,11.35C46,75.81,40.69,79.75,33.58,79.75Z"/><path d="M99.67,50.86c-0.1,0-.2,0-0.3,0A27.9,27.9,0,0,0,83.85,35.4a10.3,10.3,0,0,0-10.23-9.29,9.6,9.6,0,0,0-6.06,2.16A2,2,0,0,0,67,30V42.91a2,2,0,0,0,.56,1.7,9.91,9.91,0,0,0,6.17,2.16,10.2,10.2,0,0,0,8.93-5.32,21.8,21.8,0,0,1,11,11.37,10.27,10.27,0,0,0,0,16.73,21.87,21.87,0,0,1-11,11.37,10.29,10.29,0,0,0-9-5.32,9.6,9.6,0,0,0-6.06,2.16,2,2,0,0,0-.56,1.7V92.41a2,2,0,0,0,.56,1.7,9.91,9.91,0,0,0,6.17,2.16A10.24,10.24,0,0,0,83.91,87,27.86,27.86,0,0,0,99.4,71.49c0.1,0,.18,0,0.28,0A10.33,10.33,0,1,0,99.67,50.86Z"/></svg>