<svg id="Layer_1" data-name="Layer 1" xmlns="http://www.w3.org/2000/svg" viewBox="0 0 120 120"><title>icon</title><path d="M99.17,33L81.66,15.15C79.58,13.08,75.42,11,72.45,11H22.2c-3,0-5.2,3.09-5.2,6.06v89.74c0,3,2.22,4.19,5.2,4.19H97.58c3,0,5.42-1.22,5.42-4.19V42.19A15.07,15.07,0,0,0,99.17,33ZM75,19.31c0,0.34,1.53.84,1.92,1.23L94.29,37.4c0.39,0.39.71,1.6,1,1.6H75V19.31ZM96,104H24V18H67V42.19c0,3,2.48,3.81,5.45,3.81H96v58Z"/><path d="M68,65H42V59h7V41H31V59h7V89a2,2,0,0,0,2,2H68v7H86V80H68v7H42V69H68v6H86V57H68v8Z"/></svg>