<?xml version="1.0" encoding="utf-8"?>
<svg version="1.1" xmlns="http://www.w3.org/2000/svg" xmlns:xlink="http://www.w3.org/1999/xlink" x="0px" y="0px" viewBox="0 0 14 14" xml:space="preserve">
    <style type="text/css">
        .st0{fill:#000;}
    </style>
    <g>
        <path class="st0" d="
M3 0 H11.5 a1 1 0 0 1 1 1 V2.3 H11.5 V1.3 a.3 .3 0 0 0 -.3 -.3 H3.2 a.7 1 0 0 0 0 2 H11.5 a1 1 0 0 1 1 1 V13 a1 1 0 0 1 -1 1 H3 a1.5 2 0 0 1 -1.5 -2 V2 a1.5 2 0 0 1 1.5 -2 Z
M7.6 7.9 h2.25 l-2.35 2.9 v.9 h3.95 v-.9 h-2.5 l2.35 -2.9 v-.9 h-3.7 Z
M2.8 9.5 h1.2 l.34 -.97 h1.75 l.34 .97 h1.25 l-1.75 -4.7 h-1.4 Z
M4.62 7.68 l.59 -1.7 l.59 1.7 Z
"/>
    </g>
</svg>
