<?xml version="1.0" encoding="utf-8"?>
<!-- Generator: Adobe Illustrator 21.1.0, SVG Export Plug-In . SVG Version: 6.00 Build 0)  -->
<svg version="1.1" id="Layer_1" xmlns="http://www.w3.org/2000/svg" xmlns:xlink="http://www.w3.org/1999/xlink" x="0px" y="0px"
	 viewBox="0 0 14 14" style="enable-background:new 0 0 14 14;" xml:space="preserve">
<style type="text/css">
	.st0{fill:#000000;}
</style>
<path class="st0" d="M13.1,3.8L13.1,3.8C13.1,3.8,13.1,3.7,13.1,3.8C13.1,3.7,13.1,3.7,13.1,3.8C13.1,3.7,13.1,3.7,13.1,3.8
	L13.1,3.8L13.1,3.8L13.1,3.8L13.1,3.8L13.1,3.8L13.1,3.8L13.1,3.8L13.1,3.8L13.1,3.8L13.1,3.8L13.1,3.8L13.1,3.8l-1.7-0.9V2.1l0,0
	c0,0,0,0,0-0.1l0,0l0,0l0,0l0,0l0,0l0,0l0,0l0,0l0,0l0,0l0,0l0,0l0,0l0,0l0,0l0,0L7.5,0.1C7.4,0,7.3,0,7.2,0.1L3.8,1.8l0,0l0,0l0,0
	l0,0l0,0l0,0l0,0l0,0l0,0l0,0l0,0l0,0l0,0l0,0l0,0l0,0c0,0,0,0,0,0.1l0,0v0.5L1.9,3.5l0,0l0,0l0,0l0,0l0,0l0,0l0,0l0,0l0,0l0,0l0,0
	l0,0l0,0l0,0l0,0l0,0c0,0,0,0,0,0.1l0,0v6.6c0,0.2,0.1,0.3,0.2,0.4l5.3,3l0,0l0,0l0,0l0,0l0,0l0,0l0,0l0,0l0,0l0,0l0,0l0,0l0,0l0,0
	l0,0l0,0l5.3-3c0.1-0.1,0.2-0.2,0.2-0.4L13.1,3.8L13.1,3.8L13.1,3.8z M11.9,3.9l-0.6,0.4V3.6L11.9,3.9z M7.8,6.1V4.3l2.6-1.5v1.8
	L7.8,6.1z M4.4,2.8L7,4.3v1.8L4.4,4.7V2.8z M7.4,0.9l2.5,1.2L7.4,3.6L4.8,2.2L7.4,0.9z M3.6,4.2L2.9,3.9l0.6-0.3L3.6,4.2z M2.5,4.5
	l1.3,0.7l0,0L7,7v0.3v5.4l-4.5-2.5V4.5L2.5,4.5z M7.8,12.7V7.3V7L11,5.3l0,0l1.3-0.7v5.7L7.8,12.7z"/>
</svg>
