<?xml version="1.0" encoding="utf-8"?>
<!-- Generator: Adobe Illustrator 21.1.0, SVG Export Plug-In . SVG Version: 6.00 Build 0)  -->
<svg version="1.1" id="Layer_1" xmlns="http://www.w3.org/2000/svg" xmlns:xlink="http://www.w3.org/1999/xlink" x="0px" y="0px"
	 viewBox="0 0 14 14" style="enable-background:new 0 0 14 14;" xml:space="preserve">
<style type="text/css">
	.st0{fill:#000000;}
</style>
<g>
	<path class="st0" d="M6.1,6.8c0.2-0.6,0.4-1,0.6-1.3C6.9,5.2,7,5,7.1,4.8c0.1-0.2,0.2-0.3,0.4-0.5C7.6,4.2,7.8,4.1,8,4
		c0.2-0.1,0.4-0.1,0.7-0.1h2v1.5c0,0.1,0,0.1,0.1,0.2c0,0,0.1,0.1,0.2,0.1c0.1,0,0.1,0,0.2-0.1l2.5-2.5c0,0,0.1-0.1,0.1-0.2
		c0-0.1,0-0.1-0.1-0.2l-2.5-2.5c-0.1-0.1-0.1-0.1-0.2-0.1c-0.1,0-0.1,0-0.2,0.1c0,0-0.1,0.1-0.1,0.2v1.5h-2c-0.4,0-0.7,0-1,0.1
		C7.4,2.1,7.1,2.2,6.9,2.3C6.6,2.5,6.4,2.7,6.2,2.9C5.9,3.1,5.8,3.3,5.6,3.5C5.4,3.7,5.3,4,5.1,4.3C4.9,4.6,4.8,4.9,4.7,5.1
		C4.6,5.4,4.4,5.6,4.3,6C4.1,6.6,3.9,7,3.7,7.3C3.6,7.6,3.4,7.8,3.3,7.9C3.2,8.1,3.1,8.2,2.9,8.4C2.8,8.6,2.6,8.7,2.4,8.8
		C2.2,8.8,2,8.9,1.7,8.9H0c-0.1,0-0.1,0-0.2,0.1c0,0-0.1,0.1-0.1,0.2v1.5c0,0.1,0,0.1,0.1,0.2c0,0,0.1,0.1,0.2,0.1h1.7
		c0.4,0,0.7,0,1-0.1c0.3-0.1,0.6-0.2,0.8-0.3c0.2-0.1,0.5-0.3,0.7-0.5c0.2-0.2,0.4-0.4,0.6-0.6C5,9,5.2,8.8,5.3,8.5
		c0.2-0.3,0.3-0.6,0.4-0.8C5.9,7.4,6,7.1,6.1,6.8L6.1,6.8z M6.1,6.8"/>
	<path class="st0" d="M0,3.9h1.7c0.2,0,0.4,0,0.6,0.1c0.2,0.1,0.4,0.2,0.5,0.3C3,4.4,3.1,4.5,3.2,4.7c0.1,0.2,0.2,0.4,0.3,0.5
		c0.1,0.1,0.2,0.3,0.3,0.6c0.4-0.9,0.8-1.6,1.1-2.1C4.1,2.5,3,1.9,1.7,1.9H0c-0.1,0-0.1,0-0.2,0.1c0,0-0.1,0.1-0.1,0.2v1.5
		c0,0.1,0,0.1,0.1,0.2C-0.2,3.9-0.1,3.9,0,3.9L0,3.9z M0,3.9"/>
	<path class="st0" d="M11.1,7.2c-0.1-0.1-0.1-0.1-0.2-0.1c-0.1,0-0.1,0-0.2,0.1c0,0-0.1,0.1-0.1,0.2v1.5h-2c-0.2,0-0.4,0-0.6-0.1
		C7.9,8.7,7.7,8.6,7.6,8.5C7.4,8.4,7.3,8.2,7.2,8C7,7.9,6.9,7.7,6.9,7.6C6.8,7.4,6.7,7.2,6.6,7C6.2,7.9,5.8,8.6,5.5,9.1
		C5.7,9.3,5.8,9.5,6,9.7c0.2,0.2,0.3,0.3,0.4,0.4c0.1,0.1,0.3,0.2,0.5,0.3c0.2,0.1,0.3,0.2,0.5,0.2c0.1,0.1,0.3,0.1,0.5,0.1
		c0.2,0,0.4,0.1,0.5,0.1c0.1,0,0.3,0,0.6,0c0.2,0,0.4,0,0.6,0c0.1,0,0.4,0,0.6,0c0.3,0,0.5,0,0.7,0v1.5c0,0.1,0,0.1,0.1,0.2
		c0,0,0.1,0.1,0.2,0.1c0.1,0,0.1,0,0.2-0.1l2.5-2.5c0,0,0.1-0.1,0.1-0.2c0-0.1,0-0.1-0.1-0.2L11.1,7.2z M11.1,7.2"/>
</g>
</svg>
