<?xml version="1.0" encoding="utf-8"?>
<!-- Generator: Adobe Illustrator 21.1.0, SVG Export Plug-In . SVG Version: 6.00 Build 0)  -->
<svg version="1.1" id="Layer_1" xmlns="http://www.w3.org/2000/svg" xmlns:xlink="http://www.w3.org/1999/xlink" x="0px" y="0px"
	 viewBox="0 0 14 14" style="enable-background:new 0 0 14 14;" xml:space="preserve">
<style type="text/css">
	.st0{fill:none;stroke:#000000;stroke-width:0.2844;stroke-miterlimit:10;}
	.st1{fill:#000000;}
	.st2{fill:none;stroke:#000000;stroke-width:0.7229;stroke-miterlimit:10;}
</style>
<g>
	<g>
		<polygon class="st0" points="13.2,4 13.2,13.1 4.1,13.1 4.1,1 10.2,1 		"/>
		<g>
			<path class="st1" d="M10.2,1l3,3v9h-9V1H10.2 M10.5,0.2h-0.3h-6H3.3V1v12.1v0.8h0.8h9H14v-0.8V4V3.7l-0.2-0.2l-3-3L10.5,0.2
				L10.5,0.2z"/>
		</g>
		<polygon class="st1" points="10.2,4 10.2,1 13.2,4 		"/>
	</g>
</g>
<g>
	<g>
		<path class="st1" d="M1.1,13.6c-0.5,0-0.8-0.4-0.8-0.8V8.1c0-0.5,0.4-0.8,0.8-0.8h7.3c0.5,0,0.8,0.4,0.8,0.8v4.7
			c0,0.5-0.4,0.8-0.8,0.8H1.1z"/>
		<g>
			<path class="st1" d="M8.4,7.5c0.3,0,0.6,0.3,0.6,0.6v4.7c0,0.3-0.3,0.6-0.6,0.6H1.1c-0.3,0-0.6-0.3-0.6-0.6V8.1
				c0-0.3,0.3-0.6,0.6-0.6H8.4 M8.4,7H1.1C0.5,7,0,7.5,0,8.1v4.7c0,0.6,0.5,1.1,1.1,1.1h7.3c0.6,0,1.1-0.5,1.1-1.1V8.1
				C9.4,7.5,8.9,7,8.4,7L8.4,7z"/>
		</g>
	</g>
	<path class="st2" d="M6.9,9.4"/>
	<path class="st2" d="M2.5,9.4"/>
</g>
</svg>
