<?xml version="1.0" encoding="utf-8"?>
<!-- Generator: Adobe Illustrator 21.1.0, SVG Export Plug-In . SVG Version: 6.00 Build 0)  -->
<svg version="1.1" id="Layer_1" xmlns="http://www.w3.org/2000/svg" xmlns:xlink="http://www.w3.org/1999/xlink" x="0px" y="0px"
	 viewBox="0 0 14 14" style="enable-background:new 0 0 14 14;" xml:space="preserve">
<style type="text/css">
	.st0{clip-path:url(#SVGID_2_);fill:#000000;}
</style>
<g>
	<g>
		<defs>
			<rect id="SVGID_1_" x="0.1" y="0" width="13.1" height="13.8"/>
		</defs>
		<clipPath id="SVGID_2_">
			<use xlink:href="#SVGID_1_"  style="overflow:visible;"/>
		</clipPath>
		<path class="st0" d="M11.5,6.1c0.1,0.4,0.2,0.8,0.2,1.2c0,2.8-2.3,5-5,5c-2.8,0-5-2.3-5-5c0-2.8,2.3-5,5-5c0.7,0,1.4,0.1,2,0.4
			l0.8-1.2C8.5,1.2,7.6,0.9,6.6,0.9C3,0.9,0.1,3.8,0.1,7.4c0,3.6,2.9,6.5,6.5,6.5c3.6,0,6.5-2.9,6.5-6.5c0-1-0.2-1.9-0.6-2.8
			L11.5,6.1z M11.5,6.1"/>
		<path class="st0" d="M12.7,0.2c-0.6-0.3-1.3-0.2-1.6,0.4L6.4,8.1L4.8,5.9C4.4,5.3,3.7,5.2,3.2,5.6C2.6,5.9,2.5,6.7,2.9,7.2
			l2.6,3.7c0.2,0.3,0.6,0.5,1,0.5c0,0,0,0,0,0c0.4,0,0.8-0.2,1-0.6l5.6-9C13.4,1.3,13.2,0.5,12.7,0.2L12.7,0.2z M12.7,0.2"/>
	</g>
</g>
</svg>
