<?xml version="1.0" encoding="utf-8"?>
<!-- Generator: Adobe Illustrator 21.1.0, SVG Export Plug-In . SVG Version: 6.00 Build 0)  -->
<svg version="1.1" id="Layer_1" xmlns="http://www.w3.org/2000/svg" xmlns:xlink="http://www.w3.org/1999/xlink" x="0px" y="0px"
	 viewBox="0 0 14 14" style="enable-background:new 0 0 14 14;" xml:space="preserve">
<style type="text/css">
	.st0{fill:#000000;}
</style>
<g>
	<g>
		<path class="st0" d="M13.3,7.9l-0.7-0.3c0.1-0.5,0-1.1-0.1-1.6l0.7-0.3c0.4-0.2,0.6-0.7,0.4-1.2l-0.4-0.9
			c-0.2-0.4-0.7-0.6-1.2-0.4l-0.7,0.3C11,3,10.6,2.7,10.2,2.3l0.3-0.7c0.2-0.5-0.1-1-0.5-1.1L9,0.1C8.5,0,8,0.2,7.8,0.7L7.6,1.4
			C7,1.3,6.5,1.4,5.9,1.5L5.6,0.7C5.4,0.3,4.9,0.1,4.4,0.3L3.5,0.7C3.1,0.9,2.9,1.5,3.1,1.9l0.3,0.7C3,3,2.6,3.4,2.3,3.8L1.6,3.5
			c-0.4-0.2-1,0.1-1.1,0.5L0.1,5C0,5.2,0,5.5,0.1,5.7C0.2,5.9,0.4,6,0.6,6.1l0.7,0.3C1.3,6.9,1.3,7.5,1.4,8L0.7,8.4
			C0.3,8.6,0.1,9.1,0.3,9.5l0.4,0.9c0.2,0.4,0.7,0.6,1.2,0.4l0.7-0.3c0.3,0.4,0.8,0.8,1.2,1.1l-0.3,0.7c-0.1,0.2-0.1,0.5,0,0.7
			c0.1,0.2,0.3,0.4,0.5,0.5L5,13.9c0.2,0.1,0.5,0.1,0.7,0c0.2-0.1,0.4-0.3,0.5-0.5l0.3-0.7c0.5,0.1,1.1,0,1.6-0.1l0.3,0.7
			c0.2,0.4,0.7,0.6,1.2,0.4l0.9-0.4c0.4-0.2,0.6-0.7,0.4-1.2l-0.3-0.7c0.4-0.3,0.8-0.8,1.1-1.2l0.7,0.3c0.2,0.1,0.5,0.1,0.7,0
			c0.2-0.1,0.4-0.3,0.5-0.5L13.8,9C14,8.5,13.8,8,13.3,7.9L13.3,7.9z M8.4,10.2c-0.5,0.2-1,0.3-1.5,0.3c-1.4,0-2.6-0.8-3.2-2
			C3,6.7,3.7,4.6,5.5,3.8C6,3.6,6.5,3.5,7,3.5c1.4,0,2.6,0.8,3.2,2C11,7.3,10.2,9.4,8.4,10.2L8.4,10.2z M8.4,10.2"/>
	</g>
</g>
</svg>
