<?xml version="1.0" encoding="utf-8"?>
<!-- Generator: Adobe Illustrator 20.1.0, SVG Export Plug-In . SVG Version: 6.00 Build 0)  -->
<svg version="1.1" id="Layer_1" xmlns="http://www.w3.org/2000/svg" xmlns:xlink="http://www.w3.org/1999/xlink" x="0px" y="0px"
	 viewBox="0 0 100 100" style="enable-background:new 0 0 100 100;" xml:space="preserve">
<path d="M12.937,96.333V12.942h25.712C39.761,7.609,44.417,3.667,50,3.667s10.239,3.947,11.337,9.201l25.726,0.074v83.392H12.937z
	 M50,12.942c-1.279,0-2.316,1.038-2.316,2.316s1.038,2.316,2.316,2.316s2.316-1.038,2.316-2.316S51.279,12.942,50,12.942z
	 M77.797,22.207H63.899c0,2.557-2.076,4.633-4.633,4.633H40.734c-2.557,0-4.633-2.076-4.633-4.633H22.203v64.86h55.594V22.207z
	 M36.101,36.106c2.557,0,4.633,2.076,4.633,4.633c0,2.557-2.076,4.633-4.633,4.633c-2.557,0-4.633-2.076-4.633-4.633
	C31.469,38.182,33.544,36.106,36.101,36.106z M36.101,50.005c2.557,0,4.633,2.076,4.633,4.633c0,2.557-2.076,4.633-4.633,4.633
	c-2.557,0-4.633-2.076-4.633-4.633C31.469,52.08,33.544,50.005,36.101,50.005z M36.101,63.903c2.557,0,4.633,2.076,4.633,4.633
	c0,2.557-2.076,4.633-4.633,4.633c-2.557,0-4.633-2.076-4.633-4.633C31.469,65.979,33.544,63.903,36.101,63.903z M50,36.106h13.899
	c2.557,0,4.633,2.076,4.633,4.633c0,2.557-2.076,4.633-4.633,4.633H50c-2.557,0-4.633-2.076-4.633-4.633
	C45.367,38.182,47.443,36.106,50,36.106z M50,50.005h13.899c2.557,0,4.633,2.076,4.633,4.633c0,2.557-2.076,4.633-4.633,4.633H50
	c-2.557,0-4.633-2.076-4.633-4.633C45.367,52.08,47.443,50.005,50,50.005z M50,63.903h13.899c2.557,0,4.633,2.076,4.633,4.633
	c0,2.557-2.076,4.633-4.633,4.633H50c-2.557,0-4.633-2.076-4.633-4.633C45.367,65.979,47.443,63.903,50,63.903z"/>
</svg>
