<?xml version="1.0" encoding="utf-8"?>
<!-- Generator: Adobe Illustrator 21.1.0, SVG Export Plug-In . SVG Version: 6.00 Build 0)  -->
<svg version="1.1" id="Layer_1" xmlns="http://www.w3.org/2000/svg" xmlns:xlink="http://www.w3.org/1999/xlink" x="0px" y="0px"
	 viewBox="0 0 14 14" style="enable-background:new 0 0 14 14;" xml:space="preserve">
<style type="text/css">
	.st0{clip-path:url(#SVGID_2_);fill:#000000;}
	.st1{fill:#000000;}
	.st2{clip-path:url(#SVGID_4_);fill:#000000;}
</style>
<g>
	<g>
		<defs>
			<rect id="SVGID_1_" x="0" y="0.8" width="13.9" height="12.6"/>
		</defs>
		<clipPath id="SVGID_2_">
			<use xlink:href="#SVGID_1_"  style="overflow:visible;"/>
		</clipPath>
		<path class="st0" d="M13.9,1.5H5.2c0,0,0,0,0,0v0.8c0,0,0,0,0,0h8.7c0,0,0,0,0,0L13.9,1.5C14,1.5,13.9,1.5,13.9,1.5L13.9,1.5z
			 M13.9,1.5"/>
	</g>
	<path class="st1" d="M3.2,7.4c0,0.6-0.5,1.1-1.1,1.1C1.5,8.5,1,8,1,7.4s0.5-1.1,1.1-1.1C2.7,6.3,3.2,6.8,3.2,7.4L3.2,7.4z M3.2,7.4
		"/>
	<path class="st1" d="M3.2,12.2c0,0.6-0.5,1.1-1.1,1.1c-0.6,0-1.1-0.5-1.1-1.1c0-0.6,0.5-1.1,1.1-1.1C2.7,11.1,3.2,11.6,3.2,12.2
		L3.2,12.2z M3.2,12.2"/>
	<g>
		<defs>
			<rect id="SVGID_3_" x="0" y="0.8" width="13.9" height="12.6"/>
		</defs>
		<clipPath id="SVGID_4_">
			<use xlink:href="#SVGID_3_"  style="overflow:visible;"/>
		</clipPath>
		<path class="st2" d="M5.2,3.8h4.1c0,0,0,0,0,0V3c0,0,0,0,0,0H5.2c0,0,0,0,0,0L5.2,3.8C5.2,3.8,5.2,3.8,5.2,3.8L5.2,3.8z M5.2,3.8"
			/>
		<path class="st2" d="M13.9,6.2H5.2c0,0,0,0,0,0v0.8c0,0,0,0,0,0h8.7c0,0,0,0,0,0L13.9,6.2C14,6.3,13.9,6.2,13.9,6.2L13.9,6.2z
			 M13.9,6.2"/>
		<path class="st2" d="M5.2,8.6h4.1c0,0,0,0,0,0V7.8c0,0,0,0,0,0H5.2c0,0,0,0,0,0L5.2,8.6C5.2,8.6,5.2,8.6,5.2,8.6L5.2,8.6z
			 M5.2,8.6"/>
		<path class="st2" d="M13.9,11H5.2c0,0,0,0,0,0v0.8c0,0,0,0,0,0h8.7c0,0,0,0,0,0L13.9,11C14,11,13.9,11,13.9,11L13.9,11z M13.9,11"
			/>
	</g>
	<path class="st1" d="M9.3,12.5H5.2c0,0,0,0,0,0v0.8c0,0,0,0,0,0h4.1c0,0,0,0,0,0L9.3,12.5C9.4,12.5,9.4,12.5,9.3,12.5L9.3,12.5z
		 M9.3,12.5"/>
	<path class="st1" d="M1.6,2.6L0.8,1.9L0,2.7l0.8,0.8l0.8,0.8l0.8-0.8l1.8-1.8L3.3,0.8L1.6,2.6z M1.6,2.6"/>
</g>
</svg>
