<?xml version="1.0" encoding="utf-8"?>
<!-- Generator: Adobe Illustrator 21.1.0, SVG Export Plug-In . SVG Version: 6.00 Build 0)  -->
<svg version="1.1" id="Layer_1" xmlns="http://www.w3.org/2000/svg" xmlns:xlink="http://www.w3.org/1999/xlink" x="0px" y="0px"
	 viewBox="0 0 14 14" style="enable-background:new 0 0 14 14;" xml:space="preserve">
<style type="text/css">
	.st0{fill:#FFFFFF;}
</style>
<g>
	<path class="st0" d="M11.2,7.7c0-0.3-0.1-0.5-0.3-0.7L5.6,1.8C5.4,1.6,5.2,1.4,4.9,1.3C4.6,1.2,4.3,1.1,4,1.1H0.9
		c-0.3,0-0.5,0.1-0.7,0.3C0.1,1.6,0,1.8,0,2.1v3.1C0,5.4,0.1,5.7,0.2,6c0.1,0.3,0.3,0.6,0.5,0.7L6,12c0.2,0.2,0.4,0.3,0.7,0.3
		c0.3,0,0.5-0.1,0.7-0.3l3.6-3.6C11.1,8.2,11.2,8,11.2,7.7L11.2,7.7z M3,4.1C2.8,4.3,2.6,4.4,2.4,4.4c-0.3,0-0.5-0.1-0.7-0.3
		C1.5,4,1.4,3.7,1.4,3.5c0-0.3,0.1-0.5,0.3-0.7c0.2-0.2,0.4-0.3,0.7-0.3c0.3,0,0.5,0.1,0.7,0.3C3.2,3,3.3,3.2,3.3,3.5
		C3.3,3.7,3.2,4,3,4.1L3,4.1z M3,4.1"/>
	<path class="st0" d="M13.7,7.1L8.5,1.8C8.3,1.6,8,1.4,7.7,1.3C7.4,1.2,7.1,1.1,6.8,1.1H5.2c0.3,0,0.5,0.1,0.9,0.2
		c0.3,0.1,0.6,0.3,0.8,0.5l5.3,5.3c0.2,0.2,0.3,0.4,0.3,0.7c0,0.3-0.1,0.5-0.3,0.7l-3.5,3.5C8.8,12,8.9,12.1,9,12.2
		c0.1,0.1,0.3,0.1,0.4,0.1c0.3,0,0.5-0.1,0.7-0.3l3.6-3.6C13.9,8.2,14,8,14,7.7C14,7.5,13.9,7.3,13.7,7.1L13.7,7.1z M13.7,7.1"/>
</g>
</svg>
