<?xml version="1.0" encoding="utf-8"?>
<!-- Generator: Adobe Illustrator 21.1.0, SVG Export Plug-In . SVG Version: 6.00 Build 0)  -->
<svg version="1.1" id="Layer_1" xmlns="http://www.w3.org/2000/svg" xmlns:xlink="http://www.w3.org/1999/xlink" x="0px" y="0px"
	 viewBox="0 0 14 14" style="enable-background:new 0 0 14 14;" xml:space="preserve">
<style type="text/css">
	.st0{fill:#FFFFFF;}
</style>
<g>
	<path class="st0" d="M2.3,13.5h8.9c1.2,0,2.2-1,2.2-2.2v-9c0-1.2-1-2.2-2.2-2.2H2.3c-1.2,0-2.2,1-2.2,2.2v8.9
		C0.1,12.5,1.1,13.5,2.3,13.5z M1.6,2.3c0-0.4,0.3-0.8,0.8-0.8h8.9c0.4,0,0.8,0.3,0.8,0.8v8.9c0,0.4-0.3,0.8-0.8,0.8h-9
		c-0.4,0-0.8-0.3-0.8-0.8V2.3H1.6z"/>
	<rect x="3.1" y="6" class="st0" width="7.5" height="1.5"/>
	<rect x="3.1" y="3" class="st0" width="7.5" height="1.5"/>
	<rect x="3.1" y="9" class="st0" width="4.5" height="1.5"/>
</g>
</svg>
