<?xml version="1.0" encoding="utf-8"?>
<!-- Generator: Adobe Illustrator 21.1.0, SVG Export Plug-In . SVG Version: 6.00 Build 0)  -->
<svg version="1.1" id="Layer_1" xmlns="http://www.w3.org/2000/svg" xmlns:xlink="http://www.w3.org/1999/xlink" x="0px" y="0px"
	 viewBox="0 0 14 14" style="enable-background:new 0 0 14 14;" xml:space="preserve">
<style type="text/css">
	.st0{clip-path:url(#SVGID_2_);fill:#FFFFFF;}
</style>
<g>
	<g>
		<defs>
			<rect id="SVGID_1_" x="0" y="0.8" width="14" height="11.7"/>
		</defs>
		<clipPath id="SVGID_2_">
			<use xlink:href="#SVGID_1_"  style="overflow:visible;"/>
		</clipPath>
		<path class="st0" d="M13.8,7.2L10.5,6V2.3c0-0.1,0-0.1-0.1-0.2L7.1,0.9c0,0-0.1,0-0.1,0L3.6,2.2c0,0-0.1,0-0.1,0.1
			c0,0,0,0.1,0,0.1V6L0.1,7.2c0,0-0.1,0-0.1,0.1c0,0,0,0.1,0,0.1v3.7c0,0.1,0,0.1,0.1,0.2l3.4,1.2c0,0,0.1,0,0.1,0L7,11.3l3.4,1.2
			c0,0,0.1,0,0.1,0l3.4-1.2c0.1,0,0.1-0.1,0.1-0.2V7.4C14,7.3,13.9,7.3,13.8,7.2L13.8,7.2z M10,5.8L7.4,6.7V3.9l2.6-1V5.8z M7,1.6
			l2.4,0.9L7,3.3L4.5,2.5L7,1.6z M3.6,8.4L1,7.5l2.5-0.9L6,7.5L3.6,8.4z M6.5,10.8l-2.6,0.9V8.9l2.6-1V10.8z M10.4,8.4L7.9,7.5
			l2.5-0.9l2.4,0.9L10.4,8.4z M13.4,10.8l-2.6,0.9V8.9l2.6-1V10.8z M13.4,10.8"/>
	</g>
</g>
</svg>
