<?xml version="1.0" encoding="utf-8"?>
<!-- Generator: Adobe Illustrator 21.1.0, SVG Export Plug-In . SVG Version: 6.00 Build 0)  -->
<svg version="1.1" id="Layer_1" xmlns="http://www.w3.org/2000/svg" xmlns:xlink="http://www.w3.org/1999/xlink" x="0px" y="0px"
	 viewBox="0 0 14 14" style="enable-background:new 0 0 14 14;" xml:space="preserve">
<style type="text/css">
	.st0{fill:#FFFFFF;}
</style>
<g>
	<path class="st0" d="M4.5,3.2c0,0.7-0.5,1.2-1.2,1.2S2.1,3.8,2.1,3.2C2.1,2.5,2.6,2,3.3,2S4.5,2.5,4.5,3.2"/>
	<path class="st0" d="M6.9,1.2c0,0.7-0.5,1.2-1.2,1.2S4.5,1.9,4.5,1.2c0-0.7,0.5-1.2,1.2-1.2S6.9,0.6,6.9,1.2"/>
	<path class="st0" d="M10.4,1.2c0,0.7-0.5,1.2-1.2,1.2C8.5,2.4,8,1.9,8,1.2c0-0.7,0.5-1.2,1.2-1.2C9.8,0.1,10.4,0.6,10.4,1.2"/>
	<path class="st0" d="M2,8.5h0.1v2.4c0,0.3,0.3,0.6,0.6,0.6h1.2c0.3,0,0.6-0.3,0.6-0.6v-0.1c-0.1-0.2-0.2-0.4-0.2-0.7V6.9
		c0-0.6,0.4-1.1,0.9-1.3V5.4c0-0.3-0.3-0.6-0.6-0.6H2C1.6,4.8,1.4,5,1.4,5.4v2.5C1.4,8.2,1.6,8.5,2,8.5"/>
	<path class="st0" d="M12.7,3.2c0,0.7-0.5,1.2-1.2,1.2s-1.2-0.5-1.2-1.2c0-0.7,0.5-1.2,1.2-1.2S12.7,2.5,12.7,3.2"/>
	<path class="st0" d="M9.6,5.4v0.2c0.5,0.2,0.9,0.7,0.9,1.3V10c0,0.2-0.1,0.5-0.2,0.7v0.1c0,0.3,0.3,0.6,0.6,0.6h1.2
		c0.3,0,0.6-0.3,0.6-0.6V8.5h0.1c0.3,0,0.6-0.3,0.6-0.6V5.4c0-0.3-0.3-0.6-0.6-0.6h-2.6C9.9,4.8,9.6,5,9.6,5.4"/>
	<path class="st0" d="M5.2,6.9V10c0,0.3,0.3,0.6,0.6,0.6H6v2.8C6,13.7,6.3,14,6.6,14h1.6c0.3,0,0.6-0.3,0.6-0.6v-2.8H9
		c0.3,0,0.6-0.3,0.6-0.6V6.9c0-0.3-0.3-0.6-0.6-0.6H5.8C5.5,6.4,5.2,6.6,5.2,6.9"/>
	<path class="st0" d="M8.8,4.5c0,0.8-0.6,1.4-1.4,1.4C6.7,5.9,6,5.3,6,4.5c0-0.8,0.6-1.4,1.4-1.4C8.2,3.1,8.8,3.8,8.8,4.5"/>
</g>
</svg>
