<?xml version="1.0" encoding="utf-8"?>
<!-- Generator: Adobe Illustrator 21.1.0, SVG Export Plug-In . SVG Version: 6.00 Build 0)  -->
<svg version="1.1" id="Layer_1" xmlns="http://www.w3.org/2000/svg" xmlns:xlink="http://www.w3.org/1999/xlink" x="0px" y="0px"
	 viewBox="0 0 14 14" style="enable-background:new 0 0 14 14;" xml:space="preserve">
<style type="text/css">
	.st0{fill:#FFFFFF;}
</style>
<g>
	<g>
		<path class="st0" d="M10.6,5.2C10.6,2.3,8.3,0,5.4,0C2.6,0,0.3,2.3,0.3,5.2c0,2.8,2.3,5.1,5.1,5.1C8.3,10.3,10.6,8,10.6,5.2
			L10.6,5.2z M5.4,9C3.3,9,1.6,7.3,1.6,5.2s1.7-3.8,3.8-3.8s3.8,1.7,3.8,3.8C9.3,7.3,7.5,9,5.4,9L5.4,9z"/>
		<path class="st0" d="M13.6,11.5l-3.1-3.1C10,9.1,9.4,9.7,8.6,10.2l3.1,3.1c0.5,0.5,1.3,0.5,1.8,0C14.1,12.8,14.1,12,13.6,11.5
			L13.6,11.5z"/>
	</g>
</g>
</svg>
