<?xml version="1.0" encoding="utf-8"?>
<!-- Generator: Adobe Illustrator 21.1.0, SVG Export Plug-In . SVG Version: 6.00 Build 0)  -->
<svg version="1.1" id="Layer_1" xmlns="http://www.w3.org/2000/svg" xmlns:xlink="http://www.w3.org/1999/xlink" x="0px" y="0px"
	 viewBox="0 0 14 14" style="enable-background:new 0 0 14 14;" xml:space="preserve">
<style type="text/css">
	.st0{fill:#FFFFFF;stroke:#FFFFFF;stroke-width:0.5223;stroke-miterlimit:10;}
</style>
<g>
	<path class="st0" d="M7,3.7c-0.5,0-0.8,0.4-0.8,0.8C6.1,5,6.5,5.4,7,5.4S7.8,5,7.8,4.6C7.8,4.1,7.4,3.7,7,3.7L7,3.7z M7,6.8
		c-0.5,0-0.8,0.4-0.8,0.8v2.5c0,0.5,0.4,0.8,0.8,0.8s0.8-0.4,0.8-0.8V7.6C7.8,7.1,7.4,6.8,7,6.8L7,6.8z M7,0.4c-3.7,0-6.7,3-6.7,6.7
		s3,6.7,6.7,6.7s6.7-3,6.7-6.7C13.6,3.4,10.6,0.4,7,0.4L7,0.4z M7,12.5c-3,0-5.4-2.4-5.4-5.4S4,1.7,7,1.7s5.4,2.4,5.4,5.4
		S10,12.5,7,12.5L7,12.5z"/>
</g>
</svg>
