<?xml version="1.0" encoding="utf-8"?>
<!-- Generator: Adobe Illustrator 21.1.0, SVG Export Plug-In . SVG Version: 6.00 Build 0)  -->
<svg version="1.1" id="Layer_1" xmlns="http://www.w3.org/2000/svg" xmlns:xlink="http://www.w3.org/1999/xlink" x="0px" y="0px"
	 viewBox="0 0 14 14" style="enable-background:new 0 0 14 14;" xml:space="preserve">
<style type="text/css">
	.st0{fill:#FFFFFF;stroke:#FFFFFF;stroke-width:0.2475;stroke-miterlimit:10;}
</style>
<g>
	<g>
		<path class="st0" d="M7.6,0.1c-0.5,0-1,0.2-1.4,0.6c-0.4,0.4-0.7,0.9-1,1.5C5.2,2.3,5.2,2.4,5.1,2.6c-0.1,0-0.3,0-0.4,0
			c-0.2,0-0.4,0-0.6,0c-0.4,0-0.8,0.1-1.2,0.2C2.4,2.8,2,3.1,1.7,3.5C1.5,4,1.4,4.5,1.5,5c0.1,0.5,0.4,1.1,0.8,1.6
			C2.4,6.8,2.5,6.9,2.6,7C2.5,7.1,2.4,7.2,2.3,7.3C1.9,7.8,1.7,8.4,1.5,8.9c0,0.2-0.1,0.3-0.1,0.5C1.2,9.6,1,9.9,1,10.3
			c0,0.6,0.5,1,1,1c0.2,0,0.4-0.1,0.5-0.2c0.1,0.1,0.2,0.1,0.4,0.1c0.5,0.2,1.1,0.2,1.8,0.1c0.1,0,0.3,0,0.4,0
			c0.1,0.1,0.1,0.3,0.2,0.4c0.3,0.6,0.6,1.1,1,1.5c0.4,0.4,0.9,0.6,1.4,0.6c0.5,0,1-0.2,1.4-0.6c0.4-0.4,0.7-0.9,1-1.5
			c0.1-0.1,0.1-0.2,0.2-0.4c0.1,0,0.3,0,0.4,0c0,0,0,0,0,0c0.1,0.3,0.4,0.5,0.7,0.5c0.4,0,0.7-0.3,0.7-0.6c0.1,0,0.2,0,0.3-0.1
			c0.5-0.2,0.9-0.5,1.2-0.9c0.2-0.4,0.3-0.9,0.2-1.5c-0.1-0.5-0.4-1.1-0.8-1.6c-0.1-0.1-0.2-0.2-0.2-0.3c0.1-0.1,0.2-0.2,0.2-0.3
			c0.4-0.6,0.7-1.1,0.8-1.6c0.1-0.5,0.1-1-0.2-1.5c-0.2-0.4-0.7-0.7-1.2-0.9c-0.4-0.1-0.8-0.2-1.2-0.2c-0.2,0-0.4,0-0.6,0
			c-0.1,0-0.3,0-0.4,0c-0.1-0.1-0.1-0.3-0.2-0.4C9.7,1.6,9.4,1.1,9,0.7C8.6,0.3,8.1,0.1,7.6,0.1L7.6,0.1z M7.6,0.6
			c0.3,0,0.7,0.1,1,0.5C9,1.4,9.3,1.8,9.6,2.4c0,0.1,0.1,0.2,0.1,0.2c-0.5,0.1-1,0.2-1.5,0.4C8.1,2.9,7.9,2.8,7.6,2.8
			c-0.2,0-0.4,0.1-0.6,0.3c-0.5-0.2-1-0.3-1.5-0.4c0-0.1,0.1-0.2,0.1-0.2c0.3-0.6,0.6-1,0.9-1.3C7,0.8,7.3,0.6,7.6,0.6L7.6,0.6z
			 M11.1,3c0.4,0,0.8,0,1.2,0.1c0.4,0.1,0.7,0.4,0.9,0.7c0.2,0.3,0.2,0.7,0.1,1.1c-0.1,0.4-0.3,0.9-0.7,1.5
			c-0.1,0.1-0.1,0.1-0.2,0.2c-0.4-0.5-1-1-1.6-1.4c-0.1-0.8-0.3-1.5-0.5-2.1c0.1,0,0.2,0,0.3,0C10.8,3,10.9,3,11.1,3L11.1,3z M4.2,3
			c0.1,0,0.3,0,0.5,0c0.1,0,0.2,0,0.3,0C4.7,3.7,4.6,4.4,4.5,5.1C3.9,5.6,3.3,6.1,2.9,6.6C2.8,6.5,2.8,6.4,2.7,6.4
			C2.4,5.8,2.1,5.3,2,4.9C1.9,4.5,2,4.1,2.2,3.8c0.2-0.3,0.5-0.5,0.9-0.7C3.4,3,3.8,3,4.2,3L4.2,3z M9.8,3.1c0.2,0.5,0.3,1,0.4,1.6
			c-0.3-0.2-0.6-0.4-1-0.6C9,3.9,8.7,3.8,8.4,3.6c0,0,0,0,0-0.1c0,0,0,0,0,0C8.9,3.4,9.4,3.2,9.8,3.1L9.8,3.1z M5.4,3.1
			c0.5,0.1,0.9,0.2,1.4,0.4c0,0,0,0,0,0c0,0,0,0,0,0.1C6.6,3.8,6.3,3.9,6,4.1C5.7,4.3,5.3,4.5,5,4.7C5.1,4.1,5.3,3.6,5.4,3.1
			L5.4,3.1z M8.2,4.1C8.5,4.2,8.8,4.4,9,4.6c0.5,0.3,0.9,0.6,1.3,0.9c0.1,0.5,0.1,1,0.1,1.6c0,0.5,0,1.1-0.1,1.6
			C9.9,8.8,9.5,9.1,9,9.4c-0.5,0.3-0.9,0.5-1.4,0.7C7.2,9.9,6.7,9.6,6.2,9.4C5.8,9.1,5.3,8.8,4.9,8.5C4.9,8,4.9,7.5,4.9,7
			c0-0.5,0-1.1,0.1-1.6c0.4-0.3,0.8-0.6,1.3-0.9c0.3-0.2,0.6-0.3,0.8-0.5c0.1,0.1,0.3,0.2,0.5,0.2C7.8,4.3,8,4.2,8.2,4.1L8.2,4.1z
			 M4.4,5.8c0,0.4,0,0.7,0,1.1c0,0.4,0,0.8,0,1.1C3.9,7.7,3.6,7.3,3.2,7C3.6,6.6,3.9,6.2,4.4,5.8L4.4,5.8z M10.9,5.8
			c0.4,0.4,0.8,0.7,1.2,1.1c-0.3,0.4-0.7,0.8-1.2,1.1c0-0.4,0-0.7,0-1.1C10.9,6.6,10.9,6.2,10.9,5.8L10.9,5.8z M2.9,7.4
			c0.4,0.5,1,1,1.6,1.4c0.1,0.8,0.3,1.5,0.5,2.1c-0.1,0-0.2,0-0.3,0c-0.6,0.1-1.2,0-1.6-0.1c-0.1,0-0.1,0-0.2-0.1
			C3,10.6,3,10.4,3,10.3c0-0.6-0.5-1-1-1C2,9.2,2,9.1,2,9c0.1-0.4,0.3-0.9,0.7-1.5C2.8,7.5,2.8,7.4,2.9,7.4L2.9,7.4z M12.4,7.4
			c0.1,0.1,0.1,0.1,0.2,0.2c0.4,0.5,0.6,1,0.7,1.5c0.1,0.4,0.1,0.8-0.1,1.1c-0.2,0.3-0.5,0.5-0.9,0.7c-0.1,0-0.1,0-0.2,0.1
			c-0.1-0.2-0.4-0.4-0.7-0.4c-0.3,0-0.6,0.2-0.7,0.5h0c-0.1,0-0.2,0-0.3,0c0.2-0.6,0.4-1.3,0.5-2.1C11.4,8.3,11.9,7.9,12.4,7.4
			L12.4,7.4z M10.2,9.2c-0.1,0.6-0.2,1.1-0.4,1.6c-0.5-0.1-1-0.2-1.6-0.4c0.3-0.2,0.7-0.3,1-0.5C9.6,9.6,9.9,9.4,10.2,9.2L10.2,9.2z
			 M5,9.2c0.3,0.2,0.6,0.4,1,0.6c0.3,0.2,0.7,0.4,1,0.5c-0.5,0.2-1.1,0.3-1.6,0.4C5.3,10.3,5.1,9.8,5,9.2L5,9.2z M2,9.8
			c0.3,0,0.5,0.2,0.5,0.5c0,0.3-0.2,0.5-0.5,0.5c-0.3,0-0.5-0.2-0.5-0.5C1.5,10,1.7,9.8,2,9.8L2,9.8z M7.6,10.6
			c0.7,0.3,1.4,0.5,2,0.6c0,0.1-0.1,0.2-0.1,0.2c-0.3,0.6-0.6,1-0.9,1.3c-0.3,0.3-0.7,0.5-1,0.5c-0.3,0-0.7-0.1-1-0.5
			c-0.3-0.3-0.6-0.8-0.9-1.3c0-0.1-0.1-0.2-0.1-0.2C6.3,11.1,6.9,10.9,7.6,10.6L7.6,10.6z M11.3,10.9c0.1,0,0.3,0.1,0.3,0.3
			c0,0.1-0.1,0.3-0.3,0.3s-0.3-0.1-0.3-0.3C11.1,11,11.2,10.9,11.3,10.9L11.3,10.9z M11.3,10.9"/>
	</g>
</g>
</svg>
