<?xml version="1.0" encoding="utf-8"?>
<!-- Generator: Adobe Illustrator 21.1.0, SVG Export Plug-In . SVG Version: 6.00 Build 0)  -->
<svg version="1.1" id="Layer_1" xmlns="http://www.w3.org/2000/svg" xmlns:xlink="http://www.w3.org/1999/xlink" x="0px" y="0px"
	 viewBox="0 0 14 14" style="enable-background:new 0 0 14 14;" xml:space="preserve">
<style type="text/css">
	.st0{fill:#FFFFFF;}
</style>
<g>
	<g>
		<path class="st0" d="M7.7,4.6c0.9,0,1.7,0.8,1.7,1.7C9.4,7.2,8.6,8,7.7,8S6,7.2,6,6.3C6,5.4,6.8,4.6,7.7,4.6 M12.8,0.1
			c-0.7,0-1.2,0.6-1.2,1.2c0,0.2,0,0.3,0.1,0.5l-2,2C9,3.4,8.4,3.2,7.7,3.2c-0.6,0-1.1,0.1-1.6,0.4L4.9,2.2C4.9,2,5,1.8,5,1.6
			c0-0.7-0.6-1.2-1.2-1.2S2.5,0.9,2.5,1.6c0,0.7,0.6,1.2,1.2,1.2c0.1,0,0.3,0,0.4-0.1l1.3,1.5C4.9,4.8,4.6,5.5,4.6,6.3
			c0,0.3,0,0.6,0.1,0.9l-2.8,2C1.8,9.1,1.5,9,1.3,9c-0.7,0-1.2,0.6-1.2,1.2s0.6,1.2,1.2,1.2c0.7,0,1.2-0.6,1.2-1.2
			c0-0.1,0-0.2,0-0.3l2.7-1.9C5.5,8.6,6,9,6.5,9.2L6.2,10c-0.6,0.1-1.1,0.6-1.1,1.2c0,0.7,0.6,1.2,1.2,1.2s1.2-0.6,1.2-1.2
			c0-0.4-0.2-0.7-0.4-0.9l0.3-0.9c0.1,0,0.2,0,0.2,0c0.4,0,0.8-0.1,1.2-0.2l1.3,1.6c-0.1,0.2-0.1,0.4-0.1,0.6c0,0.7,0.6,1.2,1.2,1.2
			c0.7,0,1.2-0.6,1.2-1.2c0-0.7-0.6-1.2-1.2-1.2c-0.1,0-0.2,0-0.4,0.1L9.7,8.7c0.7-0.6,1.1-1.5,1.1-2.4c0-0.7-0.2-1.3-0.6-1.8l2-2
			c0.1,0.1,0.3,0.1,0.5,0.1C13.4,2.6,14,2,14,1.3C14,0.6,13.4,0.1,12.8,0.1"/>
	</g>
</g>
</svg>
