<?xml version="1.0" encoding="utf-8"?>
<!-- Generator: Adobe Illustrator 20.1.0, SVG Export Plug-In . SVG Version: 6.00 Build 0)  -->
<svg version="1.1" id="Layer_1" xmlns="http://www.w3.org/2000/svg" xmlns:xlink="http://www.w3.org/1999/xlink" x="0px" y="0px"
	 viewBox="0 0 90 90" style="enable-background:new 0 0 90 90;" xml:space="preserve">
<style type="text/css">
	.st0{fill:none;}
	.st1{fill:#FFFFFF;}
</style>
<title>open</title>
<rect class="st0" width="90" height="90"/>
<path class="st1" d="M65.5,39.1H6.4C2.9,39.1,0,42,0,45.5s2.9,6.4,6.4,6.4h59.2L49.3,68.1c-2.5,2.5-2.5,6.5-0.1,9
	c2.5,2.5,6.5,2.5,9,0.1c0,0,0,0,0.1-0.1L87,48.5c1.7-1.7,1.7-4.4,0-6l0,0L58.4,13.9c-2.5-2.5-6.5-2.5-9-0.1s-2.5,6.5-0.1,9
	c0,0,0,0,0.1,0.1L65.5,39.1z"/>
</svg>
