<?xml version="1.0" encoding="utf-8"?>
<!-- Generator: Adobe Illustrator 21.1.0, SVG Export Plug-In . SVG Version: 6.00 Build 0)  -->
<svg version="1.1" id="Layer_1" xmlns="http://www.w3.org/2000/svg" xmlns:xlink="http://www.w3.org/1999/xlink" x="0px" y="0px"
	 viewBox="0 0 14 14" style="enable-background:new 0 0 14 14;" xml:space="preserve">
<style type="text/css">
	.st0{fill:#FFFFFF;}
</style>
<g>
	<path class="st0" d="M3.7,1.4c0,0.8-0.6,1.4-1.4,1.4C1.6,2.8,1,2.2,1,1.4C1,0.6,1.6,0,2.4,0C3.1,0,3.7,0.6,3.7,1.4"/>
	<path class="st0" d="M0.8,7.5H1v2.7c0,0.4,0.3,0.7,0.7,0.7h1.4c0.4,0,0.7-0.3,0.7-0.7v-0.2C3.6,9.9,3.5,9.6,3.5,9.3V5.8
		c0-0.7,0.4-1.3,1-1.5V3.9c0-0.4-0.3-0.7-0.7-0.7h-3c-0.4,0-0.7,0.3-0.7,0.7v2.9C0.2,7.2,0.5,7.5,0.8,7.5"/>
	<path class="st0" d="M13.2,1.4c0,0.8-0.6,1.4-1.4,1.4c-0.8,0-1.4-0.6-1.4-1.4c0-0.8,0.6-1.4,1.4-1.4C12.6,0,13.2,0.6,13.2,1.4"/>
	<path class="st0" d="M9.6,3.9v0.3c0.6,0.3,1,0.9,1,1.5v3.5c0,0.3-0.1,0.6-0.2,0.8v0.2c0,0.4,0.3,0.7,0.7,0.7h1.4
		c0.4,0,0.7-0.3,0.7-0.7V7.5h0.1c0.4,0,0.7-0.3,0.7-0.7V3.9c0-0.4-0.3-0.7-0.7-0.7h-3C9.9,3.3,9.6,3.6,9.6,3.9"/>
	<path class="st0" d="M4.6,5.8v3.5c0,0.4,0.3,0.7,0.7,0.7h0.3v3.2c0,0.4,0.3,0.7,0.7,0.7H8c0.4,0,0.7-0.3,0.7-0.7V10h0.3
		c0.4,0,0.7-0.3,0.7-0.7V5.8c0-0.4-0.3-0.7-0.7-0.7H5.2C4.9,5.1,4.6,5.4,4.6,5.8"/>
	<path class="st0" d="M8.7,3c0,0.9-0.7,1.6-1.6,1.6S5.5,3.8,5.5,3c0-0.9,0.7-1.6,1.6-1.6S8.7,2.1,8.7,3"/>
</g>
</svg>
