<?xml version="1.0" encoding="utf-8"?>
<!-- Generator: Adobe Illustrator 21.1.0, SVG Export Plug-In . SVG Version: 6.00 Build 0)  -->
<svg version="1.1" id="Layer_1" xmlns="http://www.w3.org/2000/svg" xmlns:xlink="http://www.w3.org/1999/xlink" x="0px" y="0px"
	 viewBox="0 0 14 14" style="enable-background:new 0 0 14 14;" xml:space="preserve">
<style type="text/css">
	.st0{clip-path:url(#SVGID_2_);fill:#FFFFFF;}
</style>
<g>
	<defs>
		<rect id="SVGID_1_" x="0" y="0" width="13.6" height="12.2"/>
	</defs>
	<clipPath id="SVGID_2_">
		<use xlink:href="#SVGID_1_"  style="overflow:visible;"/>
	</clipPath>
	<path class="st0" d="M13.4,0H0.5C0.2,0,0,0.2,0,0.5v11.4c0,0.2,0.1,0.3,0.2,0.4v0.1h0.2c0,0,0.1,0,0.1,0h12.9c0,0,0.1,0,0.1,0h0v0
		c0.2-0.1,0.4-0.3,0.4-0.5V0.5C13.9,0.2,13.7,0,13.4,0 M2.1,12H0.5c0,0,0,0,0-0.1v-1.4h1.6V12z M2.1,10.1H0.5V8.7h1.6V10.1z
		 M2.1,8.2H0.5V6.7h1.6V8.2z M2.1,6.2H0.5V4.6h1.6V6.2z M2.1,4.1H0.5V2.5h1.6V4.1z M5.8,12H2.5v-1.4h3.3V12z M5.8,10.1H2.5V8.7h3.3
		V10.1z M5.8,8.2H2.5V6.7h3.3V8.2z M5.8,6.2H2.5V4.6h3.3V6.2z M5.8,4.1H2.5V2.5h3.3V4.1z M5.8,2H2.5V0.5h3.3V2z M9.6,12H6.3v-1.4
		h3.3V12z M9.6,10.1H6.3V8.7h3.3V10.1z M9.6,8.2H6.3V6.7h3.3V8.2z M9.6,6.2H6.3V4.6h3.3V6.2z M9.6,4.1H6.3V2.5h3.3V4.1z M9.6,2H6.3
		V0.5h3.3V2z M13.5,11.9C13.5,12,13.5,12,13.5,11.9L10.1,12v-1.4h3.4V11.9z M13.5,10.1h-3.4V8.7h3.4V10.1z M13.5,8.2h-3.4V6.7h3.4
		V8.2z M13.5,6.2h-3.4V4.6h3.4V6.2z M13.5,4.1h-3.4V2.5h3.4V4.1z M13.5,2h-3.4V0.5h3.4c0,0,0.1,0,0.1,0.1V2z M5.5,7.9H2.8V6.9h2.7
		V7.9z M9.3,7.9H6.6V7h2.7V7.9z M13.2,7.9h-2.7V7h2.7V7.9z"/>
	<use xlink:href="#SVGID_1_"  style="overflow:visible;fill:none;stroke:#FFFFFF;stroke-width:0.25;stroke-miterlimit:10;"/>
</g>
</svg>
