<?xml version="1.0" encoding="utf-8"?>
<!-- Generator: Adobe Illustrator 21.1.0, SVG Export Plug-In . SVG Version: 6.00 Build 0)  -->
<svg version="1.1" id="Layer_1" xmlns="http://www.w3.org/2000/svg" xmlns:xlink="http://www.w3.org/1999/xlink" x="0px" y="0px"
	 viewBox="0 0 14 14" style="enable-background:new 0 0 14 14;" xml:space="preserve">
<style type="text/css">
	.st0{fill:#FFFFFF;}
</style>
<g>
	<g>
		<path class="st0" d="M3.9,12.3c-0.2,0.1-0.4,0.1-0.6,0.1c-0.6,0-1.1-0.3-1.3-0.9c-0.3-0.7,0-1.6,0.7-2c0.2-0.1,0.4-0.1,0.6-0.1
			c0.6,0,1.1,0.3,1.3,0.9C5,11.1,4.7,12,3.9,12.3 M6,11.4l-0.3-0.1c0-0.2,0-0.5,0-0.7l0.3-0.1c0.2-0.1,0.3-0.3,0.2-0.5L5.9,9.5
			C5.9,9.4,5.6,9.3,5.4,9.4L5.1,9.5C5,9.3,4.8,9.2,4.6,9l0.1-0.3c0.1-0.2,0-0.4-0.2-0.5L4.1,8.1C4,8,3.7,8.1,3.7,8.3L3.6,8.6
			c-0.2,0-0.5,0-0.7,0L2.7,8.4C2.6,8.2,2.4,8.1,2.2,8.2L1.9,8.3C1.7,8.4,1.6,8.7,1.7,8.8l0.1,0.3C1.6,9.3,1.5,9.5,1.3,9.6L1,9.5
			c-0.2-0.1-0.4,0-0.5,0.2l-0.1,0.4c0,0.1,0,0.2,0,0.3c0,0.1,0.1,0.2,0.2,0.2l0.3,0.1c0,0.2,0,0.5,0,0.7l-0.3,0.1
			c-0.2,0.1-0.3,0.3-0.2,0.5l0.2,0.4c0.1,0.2,0.3,0.3,0.5,0.2l0.3-0.1c0.1,0.2,0.3,0.3,0.5,0.5l-0.1,0.3c0,0.1,0,0.2,0,0.3
			c0,0.1,0.1,0.2,0.2,0.2l0.4,0.1c0.1,0,0.2,0,0.3,0c0.1,0,0.2-0.1,0.2-0.2l0.1-0.3c0.2,0,0.5,0,0.7,0l0.1,0.3
			c0.1,0.2,0.3,0.3,0.5,0.2l0.4-0.2c0.2-0.1,0.3-0.3,0.2-0.5l-0.1-0.3c0.2-0.1,0.3-0.3,0.5-0.5l0.3,0.1c0.1,0,0.2,0,0.3,0
			c0.1,0,0.2-0.1,0.2-0.2l0.1-0.4C6.3,11.6,6.2,11.4,6,11.4"/>
		<path class="st0" d="M10.1,7.5c-0.3,0.2-0.7,0.2-1,0.2c-1,0-1.9-0.6-2.3-1.4C6.3,5,6.8,3.6,8,3c0.3-0.2,0.7-0.2,1-0.2
			c1,0,1.9,0.6,2.3,1.4C11.9,5.4,11.4,6.9,10.1,7.5 M13.6,5.9L13,5.7c0-0.4,0-0.8,0-1.2l0.5-0.2c0.3-0.1,0.5-0.5,0.3-0.8l-0.3-0.6
			c-0.1-0.3-0.5-0.5-0.8-0.3l-0.5,0.2c-0.2-0.3-0.5-0.6-0.8-0.8l0.2-0.5c0.1-0.3,0-0.7-0.4-0.8l-0.7-0.2c-0.3-0.1-0.7,0.1-0.8,0.4
			L9.5,1.3c-0.4,0-0.8,0-1.2,0L8.1,0.8C8,0.5,7.6,0.4,7.3,0.5L6.7,0.8C6.3,0.9,6.2,1.3,6.3,1.6l0.2,0.5C6.3,2.4,6,2.7,5.8,3L5.3,2.8
			C5,2.7,4.6,2.8,4.5,3.2L4.2,3.8C4.2,4,4.2,4.1,4.2,4.3c0.1,0.2,0.2,0.3,0.4,0.3l0.5,0.2c0,0.4,0,0.8,0,1.2L4.7,6.2
			C4.3,6.3,4.2,6.7,4.4,7l0.3,0.6C4.8,8,5.2,8.1,5.5,8L6,7.7c0.2,0.3,0.5,0.6,0.8,0.8L6.6,9c-0.1,0.2-0.1,0.3,0,0.5
			C6.7,9.7,6.8,9.8,7,9.9l0.7,0.2c0.2,0.1,0.3,0.1,0.5,0C8.3,10,8.4,9.9,8.5,9.7l0.2-0.5c0.4,0,0.8,0,1.2,0L10,9.7
			c0.1,0.3,0.5,0.5,0.8,0.3l0.6-0.3c0.3-0.1,0.5-0.5,0.3-0.8l-0.2-0.5c0.3-0.2,0.6-0.5,0.8-0.8l0.5,0.2c0.2,0.1,0.3,0.1,0.5,0
			c0.2-0.1,0.3-0.2,0.3-0.4l0.2-0.7C14.1,6.3,13.9,6,13.6,5.9"/>
	</g>
</g>
</svg>
